<?xml version="1.0" encoding="UTF-8"?>
<svg version="1.1" xmlns="http://www.w3.org/2000/svg" width="512" height="512">
<path d="M0 0 C0.92563173 -0.00507454 1.85126346 -0.01014909 2.80494463 -0.0153774 C4.34050904 -0.01612404 4.34050904 -0.01612404 5.90709496 -0.01688576 C6.98938421 -0.02126801 8.07167346 -0.02565027 9.18675935 -0.03016531 C12.83787349 -0.04359191 16.48896347 -0.04974085 20.14009666 -0.0558567 C22.74806898 -0.06375467 25.35604019 -0.07202343 27.96401024 -0.08063698 C35.80902974 -0.10517441 43.65405562 -0.11979123 51.4991017 -0.13269705 C53.71478874 -0.13640836 55.93047515 -0.14038166 58.14616156 -0.14444971 C71.90345988 -0.16968846 85.66075919 -0.19174299 99.41807556 -0.20417786 C102.6056894 -0.20710759 105.79330321 -0.21006925 108.98091698 -0.21308327 C109.77319102 -0.21382932 110.56546506 -0.21457537 111.38174741 -0.21534403 C124.21233859 -0.22799404 137.04279107 -0.26121119 149.87331744 -0.3028851 C163.04484486 -0.34531592 176.21630131 -0.36887432 189.3878969 -0.37409842 C196.78376084 -0.37751153 204.17940817 -0.38925448 211.57520485 -0.42220116 C218.5339024 -0.45314958 225.49221665 -0.45861201 232.4509716 -0.4468174 C235.00514317 -0.44659622 237.55933199 -0.45493747 240.11344337 -0.47247124 C243.60110654 -0.49511034 247.0873939 -0.48689036 250.57506371 -0.47098732 C251.58538898 -0.48486941 252.59571426 -0.49875149 253.63665545 -0.51305425 C260.13768677 -0.44003809 264.64908384 0.81662145 269.62203026 5.13701439 C273.48594164 9.83669628 274.89321224 15.07714004 274.62203026 21.13701439 C273.24599663 27.41939742 270.31910438 32.31805742 264.93453026 35.94951439 C261.83597594 37.06031688 260.12128295 37.2666648 256.91499901 37.21123314 C255.70686546 37.19516014 255.70686546 37.19516014 254.47432518 37.17876244 C253.86306786 37.16498558 253.25181053 37.15120872 252.62203026 37.13701439 C252.63363182 38.42736595 252.64523338 39.71771751 252.65718651 41.04717064 C252.66657146 42.7646171 252.6756709 44.48206514 252.68453026 46.19951439 C252.69290916 47.04707298 252.70128807 47.89463158 252.70992088 48.76787376 C252.71475487 50.01987572 252.71475487 50.01987572 252.71968651 51.29717064 C252.72754173 52.43617821 252.72754173 52.43617821 252.73555565 53.59819603 C252.59157503 56.81809797 252.11373417 59.95369944 251.62203026 63.13701439 C252.37513985 63.12591133 253.12824944 63.11480827 253.90418053 63.10336876 C261.01043479 63.00307692 268.11644289 62.92700448 275.22320652 62.87795353 C278.87671919 62.85188744 282.52964586 62.81654662 286.18282127 62.75981712 C289.71011973 62.70538674 293.23685553 62.67557137 296.76454163 62.66262817 C298.76159428 62.648928 300.75842132 62.60991145 302.75513268 62.57053185 C312.85863036 62.56740655 312.85863036 62.56740655 315.98628807 65.41460228 C318.19685135 69.09370544 318.19685135 69.09370544 317.62593651 72.18388939 C317.48816795 72.96441673 317.3503994 73.74494408 317.20845604 74.54912376 C317.01493553 75.40312767 316.82141502 76.25713158 316.62203026 77.13701439 C316.41433006 78.06836205 316.20662987 78.9997097 315.99263573 79.95928001 C307.22454513 116.65293449 291.7514798 151.90966696 267.62203026 181.13701439 C267.15297264 181.70758568 266.68391502 182.27815697 266.20064354 182.8660183 C255.51951167 195.77986946 244.11165855 207.15589928 230.62203026 217.13701439 C230.08320213 217.53662376 229.54437401 217.93623314 228.98921776 218.34795189 C221.97875347 223.49356361 214.73767921 227.92653353 207.08931541 232.04375267 C201.21876198 235.2285094 196.86018472 238.42480367 193.12203026 244.07451439 C184.83230097 255.72368369 174.61725978 264.49573844 162.62203026 272.13701439 C158.63801674 274.7930234 158.64174985 277.04874614 157.56343651 281.53154564 C156.62203026 284.13701439 156.62203026 284.13701439 154.60127831 286.03105736 C151.49717887 290.90219996 152.01867579 295.77624951 152.01265526 301.43779564 C151.996119 302.62930733 151.97958275 303.82081902 151.96254539 305.04843712 C151.91401486 308.84884839 151.89268208 312.64885932 151.87203026 316.44951439 C151.84387499 319.02831063 151.8139482 321.60708817 151.78218651 324.18584251 C151.70825423 330.50282701 151.65664123 336.81969868 151.62203026 343.13701439 C152.50898582 343.12323753 153.39594139 343.10946068 154.3097744 343.09526634 C155.47629539 343.08455101 156.64281639 343.07383568 157.84468651 343.06279564 C158.99976707 343.04901878 160.15484764 343.03524193 161.34493065 343.02104759 C168.50326568 343.27435975 173.49933549 346.1307445 178.62203026 351.13701439 C183.48832939 357.49023825 184.94651345 363.09406624 184.74703026 371.01201439 C184.73800682 371.70037376 184.72898338 372.38873314 184.71968651 373.09795189 C184.69635538 374.77779277 184.66049352 376.45745185 184.62203026 378.13701439 C185.27687401 378.11606712 185.93171776 378.09511986 186.60640526 378.07353783 C189.61145354 377.98971056 192.6162549 377.93814544 195.62203026 377.88701439 C196.6519912 377.85349876 197.68195213 377.81998314 198.74312401 377.78545189 C206.41556548 377.68771378 211.73306715 378.84866334 217.64546776 383.84795189 C218.09148338 384.39709251 218.53749901 384.94623314 218.99703026 385.51201439 C219.45851463 386.05599876 219.91999901 386.59998314 220.39546776 387.16045189 C224.21809541 393.32048243 223.94341899 399.73074595 223.95796776 406.73857689 C223.96462456 407.8525988 223.97128136 408.96662071 223.97813988 410.11440086 C223.98824102 412.46274226 223.99295769 414.81111222 223.99263573 417.15947533 C223.99702369 420.75663118 224.03341234 424.3525742 224.07124901 427.94951439 C224.07711463 430.23336436 224.08108573 432.51722016 224.08296776 434.80107689 C224.09733879 435.87717216 224.11170982 436.95326744 224.12651634 438.06197166 C224.12036308 439.06336174 224.11420982 440.06475182 224.1078701 441.09648705 C224.11072014 441.97551689 224.11357018 442.85454674 224.11650658 443.76021385 C223.4311972 447.05429213 222.27490288 448.08133312 219.62203026 450.13701439 C217.02320976 450.528123 214.84789543 450.67412677 212.25177574 450.63821983 C211.50726821 450.64375423 210.76276068 450.64928863 209.99569231 450.65499073 C207.49962415 450.66861004 205.00455372 450.65362189 202.50850487 450.63872337 C200.71969744 450.64250607 198.93089294 450.6480057 197.14209557 450.65509605 C192.2826576 450.66907344 187.42357279 450.65786534 182.56415439 450.64138484 C177.48331014 450.62755074 172.40248675 450.63399246 167.32163048 450.63751793 C158.7897884 450.6402211 150.25808693 450.62673437 141.72627831 450.60356712 C131.85483305 450.57694821 121.98362279 450.5752126 112.11215395 450.58695549 C102.62408302 450.59772456 93.1360973 450.5915536 83.64803314 450.57740021 C79.60620745 450.57163369 75.56444397 450.57172828 71.52261734 450.57646561 C66.7660566 450.58122858 62.00975409 450.57116205 57.25324249 450.54951096 C55.50488341 450.54393393 53.75649955 450.54348615 52.00813866 450.54846382 C49.62690371 450.55439445 47.24646426 450.54195521 44.86530113 450.52469444 C44.16861555 450.53070449 43.47192996 450.53671453 42.75413269 450.5429067 C39.90435789 450.50517726 38.05047524 450.44292145 35.69355583 448.7600956 C34.16975374 446.45193366 34.23400028 444.71989923 34.21797752 441.96636009 C34.20529335 440.91128761 34.19260918 439.85621513 34.17954063 438.76917076 C34.18247627 437.62856697 34.18541191 436.48796318 34.18843651 435.31279564 C34.18319466 434.13742744 34.1779528 432.96205925 34.17255211 431.75107384 C34.16612225 429.26034396 34.16748129 426.76958375 34.17598534 424.27886009 C34.1844585 420.48167175 34.15580421 416.68600574 34.12398338 412.88896751 C34.12237031 410.46774401 34.12295093 408.04651784 34.12593651 405.62529564 C34.11470253 404.494813 34.10346855 403.36433037 34.09189415 402.19959068 C34.15888195 394.55294985 35.08178481 388.78097797 40.62203026 383.07842064 C41.28203026 382.62338158 41.94203026 382.16834251 42.62203026 381.69951439 C43.28203026 381.22642845 43.94203026 380.75334251 44.62203026 380.26592064 C48.28731183 378.197041 51.66643295 378.01517952 55.82515526 378.03935814 C56.80484276 378.0425808 57.78453026 378.04580345 58.79390526 378.04912376 C60.31757713 378.06169212 60.31757713 378.06169212 61.87203026 378.07451439 C63.41890526 378.08128197 63.41890526 378.08128197 64.99703026 378.08818626 C67.53875599 378.09995351 70.08036345 378.11639428 72.62203026 378.13701439 C72.61477928 377.39733421 72.60752831 376.65765404 72.6000576 375.89555931 C72.59159813 374.42759911 72.59159813 374.42759911 72.58296776 372.92998314 C72.57571678 371.96342796 72.56846581 370.99687279 72.5609951 370.00102806 C72.73705245 361.73971292 75.04746109 356.23853288 80.62203026 350.13701439 C86.48528601 344.57443842 91.45464059 342.95992202 99.37203026 343.05888939 C100.54249901 343.07016869 101.71296776 343.08144798 102.91890526 343.09306908 C103.81093651 343.10757103 104.70296776 343.12207298 105.62203026 343.13701439 C105.6057101 335.59260248 105.55077269 328.04916757 105.46944237 320.50517845 C105.44629748 317.94078977 105.43187495 315.37630651 105.42647362 312.81181908 C105.4171591 309.11753698 105.37610879 305.42473549 105.32906151 301.73076439 C105.33496048 300.02092369 105.33496048 300.02092369 105.34097862 298.27654076 C105.22642351 291.97515817 104.61919071 287.83506472 100.69702721 282.79216576 C99.62203026 281.13701439 99.62203026 281.13701439 99.55953026 277.57451439 C98.98464317 274.03477268 98.98464317 274.03477268 96.36031151 272.53154564 C94.27989709 271.38663783 92.18915876 270.26037413 90.09078026 269.14873314 C83.92497051 265.75021413 78.81408108 260.83588888 73.62203026 256.13701439 C72.89242088 255.47959251 72.16281151 254.82217064 71.41109276 254.14482689 C68.35092695 251.23454675 65.66490052 248.25338951 63.21968651 244.81279564 C57.4439702 236.76530479 52.38367278 232.29587359 43.45406151 228.04717064 C18.82172155 216.24482318 -3.05374607 192.08389618 -18.37796974 170.13701439 C-18.84751076 169.46911888 -19.31705177 168.80122337 -19.8008213 168.11308861 C-37.73568697 142.30116978 -62.76395623 98.86821709 -59.37796974 66.13701439 C-57.15312292 63.83075714 -55.771377 63.18776035 -52.58115578 62.77625084 C-51.50637978 62.78291267 -50.43160378 62.78957451 -49.3242588 62.79643822 C-48.10329506 62.79666481 -46.88233131 62.7968914 -45.62436867 62.79712486 C-44.31071327 62.81260872 -42.99705788 62.82809258 -41.64359474 62.84404564 C-40.28168137 62.84964375 -38.91976193 62.85391284 -37.55784035 62.8569088 C-33.98039895 62.86834078 -30.40332532 62.89779322 -26.82602882 62.93102074 C-23.17282015 62.96175748 -19.51955181 62.9754218 -15.86625099 62.99053001 C-8.70330383 63.02266507 -1.54073525 63.0754189 5.62203026 63.13701439 C5.62203026 54.55701439 5.62203026 45.97701439 5.62203026 37.13701439 C2.32203026 37.13701439 -0.97796974 37.13701439 -4.37796974 37.13701439 C-10.04666052 34.302669 -13.91458902 29.96526835 -16.37796974 24.13701439 C-17.35880475 17.48798548 -16.77568238 12.28355918 -12.81546974 6.79326439 C-9.01702513 2.4167956 -5.7571142 0.01671063 0 0 Z M-44.37796974 76.13701439 C-40.57090745 106.59351274 -25.26425437 137.45280507 -7.37796974 162.13701439 C-6.97223732 162.69823997 -6.5665049 163.25946556 -6.14847755 163.83769798 C-0.10154014 172.11687122 6.53502144 179.73777055 13.62203026 187.13701439 C14.33745995 187.89329124 14.33745995 187.89329124 15.06734276 188.66484642 C22.34725423 196.33162485 30.08162349 202.91078236 38.62203026 209.13701439 C39.28203026 208.80701439 39.94203026 208.47701439 40.62203026 208.13701439 C40.08835838 207.04131126 39.55468651 205.94560814 39.00484276 204.81670189 C20.90598322 166.6870128 11.48103547 124.26299491 7.94624901 82.32060814 C7.7372898 79.11865415 7.7372898 79.11865415 6.62203026 76.13701439 C-10.20796974 76.13701439 -27.03796974 76.13701439 -44.37796974 76.13701439 Z M250.62203026 76.13701439 C249.57015526 84.39732689 249.57015526 84.39732689 248.49703026 92.82451439 C243.31554431 131.75340763 234.68306442 170.7030893 215.87007713 205.54594994 C215.06769429 207.04917697 214.33650048 208.59006835 213.62203026 210.13701439 C213.95203026 210.79701439 214.28203026 211.45701439 214.62203026 212.13701439 C230.75555393 200.43577744 245.22357065 187.81015021 257.62203026 172.13701439 C258.43929588 171.12510033 259.25656151 170.11318626 260.09859276 169.07060814 C266.39500448 161.18573624 271.7084509 152.94332437 276.62203026 144.13701439 C277.06192284 143.35294212 277.50181541 142.56886986 277.95503807 141.76103783 C289.23009466 121.47857793 298.7853726 99.15696035 302.62203026 76.13701439 C285.46203026 76.13701439 268.30203026 76.13701439 250.62203026 76.13701439 Z " fill="#FED130" transform="translate(127.37796974182129,31.862985610961914)"/>
<path d="M0 0 C1.31495956 -0.0071553 2.62991913 -0.01431061 3.98472595 -0.02168274 C5.44039893 -0.02452283 6.89607217 -0.02723458 8.35174561 -0.02983093 C9.88613539 -0.03609806 11.42052366 -0.04274508 12.95491028 -0.04974365 C17.99180042 -0.07075591 23.02869077 -0.08114303 28.06561279 -0.09111023 C29.80142991 -0.09515877 31.53724687 -0.09927572 33.27306366 -0.10346031 C41.42840159 -0.12250534 49.5837305 -0.13673811 57.73908639 -0.14507228 C67.14519675 -0.15484406 76.55107176 -0.18116486 85.9570992 -0.22157317 C93.23283055 -0.25175458 100.50849449 -0.26654305 107.78428721 -0.26985329 C112.12734729 -0.27220136 116.47015572 -0.28113009 120.8131485 -0.30631447 C124.9008125 -0.32963594 128.98805989 -0.33381222 133.07577324 -0.32355309 C134.57210872 -0.32305861 136.06846499 -0.329353 137.56473732 -0.34310913 C146.55023077 -0.42106538 153.47793253 -0.19440274 160.63592529 5.85810852 C161.08194092 6.40724915 161.52795654 6.95638977 161.98748779 7.52217102 C162.67971436 8.33814758 162.67971436 8.33814758 163.38592529 9.17060852 C167.20855294 15.33063906 166.93387653 21.74090259 166.94842529 28.74873352 C166.95841049 30.41976639 166.95841049 30.41976639 166.96859741 32.1245575 C166.97869856 34.4728989 166.98341522 36.82126885 166.98309326 39.16963196 C166.98748123 42.76678781 167.02386988 46.36273083 167.06170654 49.95967102 C167.06757217 52.243521 167.07154326 54.52737679 167.07342529 56.81123352 C167.08779633 57.8873288 167.10216736 58.96342407 167.11697388 60.0721283 C167.11082062 61.07351837 167.10466736 62.07490845 167.09832764 63.10664368 C167.10117767 63.98567352 167.10402771 64.86470337 167.10696411 65.77037048 C166.42165473 69.06444876 165.26536042 70.09148975 162.61248779 72.14717102 C160.0136673 72.53827963 157.83835297 72.6842834 155.24223328 72.64837646 C154.12547198 72.65667806 154.12547198 72.65667806 152.98614985 72.66514736 C150.49008169 72.67876667 147.99501125 72.66377852 145.4989624 72.64888 C143.71015498 72.6526627 141.92135047 72.65816233 140.1325531 72.66525269 C135.27311514 72.67923007 130.41403032 72.66802197 125.55461192 72.65154147 C120.47376768 72.63770737 115.39294428 72.6441491 110.31208801 72.64767456 C101.78024594 72.65037773 93.24854446 72.636891 84.71673584 72.61372375 C74.84529059 72.58710484 64.97408033 72.58536923 55.10261148 72.59711212 C45.61454055 72.60788119 36.12655483 72.60171023 26.63849068 72.58755684 C22.59666498 72.58179032 18.5549015 72.58188492 14.51307487 72.58662224 C9.75651413 72.59138521 5.00021162 72.58131868 0.24370003 72.55966759 C-1.50465906 72.55409056 -3.25304291 72.55364278 -5.00140381 72.55862045 C-7.38263875 72.56455108 -9.76307821 72.55211184 -12.14424133 72.53485107 C-12.84092692 72.54086112 -13.53761251 72.54687117 -14.25540978 72.55306333 C-17.10518457 72.51533389 -18.95906723 72.45307808 -21.31598663 70.77025223 C-22.83978873 68.46209029 -22.77554219 66.73005586 -22.79156494 63.97651672 C-22.80424911 62.92144424 -22.81693329 61.86637177 -22.83000183 60.77932739 C-22.82706619 59.6387236 -22.82413055 58.49811981 -22.82110596 57.32295227 C-22.82634781 56.14758408 -22.83158966 54.97221588 -22.83699036 53.76123047 C-22.84342022 51.27050059 -22.84206118 48.77974038 -22.83355713 46.28901672 C-22.82508396 42.49182838 -22.85373826 38.69616237 -22.88555908 34.89912415 C-22.88717216 32.47790064 -22.88659154 30.05667448 -22.88360596 27.63545227 C-22.89483994 26.50496964 -22.90607391 25.374487 -22.91764832 24.20974731 C-22.85066052 16.56310648 -21.92775766 10.7911346 -16.38751221 5.08857727 C-15.72751221 4.63353821 -15.06751221 4.17849915 -14.38751221 3.70967102 C-13.72751221 3.23658508 -13.06751221 2.76349915 -12.38751221 2.27607727 C-8.36616288 0.00621408 -4.56011322 0.01703913 0 0 Z " fill="#FDD130" transform="translate(184.38751220703125,409.8528289794922)"/>
<path d="M0 0 C0.92563173 -0.00507454 1.85126346 -0.01014909 2.80494463 -0.0153774 C4.34050904 -0.01612404 4.34050904 -0.01612404 5.90709496 -0.01688576 C6.98938421 -0.02126801 8.07167346 -0.02565027 9.18675935 -0.03016531 C12.83787349 -0.04359191 16.48896347 -0.04974085 20.14009666 -0.0558567 C22.74806898 -0.06375467 25.35604019 -0.07202343 27.96401024 -0.08063698 C35.80902974 -0.10517441 43.65405562 -0.11979123 51.4991017 -0.13269705 C53.71478874 -0.13640836 55.93047515 -0.14038166 58.14616156 -0.14444971 C71.90345988 -0.16968846 85.66075919 -0.19174299 99.41807556 -0.20417786 C102.6056894 -0.20710759 105.79330321 -0.21006925 108.98091698 -0.21308327 C109.77319102 -0.21382932 110.56546506 -0.21457537 111.38174741 -0.21534403 C124.21233859 -0.22799404 137.04279107 -0.26121119 149.87331744 -0.3028851 C163.04484486 -0.34531592 176.21630131 -0.36887432 189.3878969 -0.37409842 C196.78376084 -0.37751153 204.17940817 -0.38925448 211.57520485 -0.42220116 C218.5339024 -0.45314958 225.49221665 -0.45861201 232.4509716 -0.4468174 C235.00514317 -0.44659622 237.55933199 -0.45493747 240.11344337 -0.47247124 C243.60110654 -0.49511034 247.0873939 -0.48689036 250.57506371 -0.47098732 C251.58538898 -0.48486941 252.59571426 -0.49875149 253.63665545 -0.51305425 C260.13768677 -0.44003809 264.64908384 0.81662145 269.62203026 5.13701439 C273.48594164 9.83669628 274.89321224 15.07714004 274.62203026 21.13701439 C273.28401903 27.24580337 270.46754169 32.27409927 265.15903282 35.74950314 C260.31368899 37.65025638 256.00295381 37.55529829 250.84248924 37.52469444 C249.21181212 37.53277275 249.21181212 37.53277275 247.54819202 37.54101425 C243.90472094 37.55532405 240.26161162 37.54818246 236.61812401 37.54106712 C234.0063148 37.54676904 231.39450808 37.55373261 228.78270531 37.56186485 C222.42472097 37.57905176 216.06683547 37.5798932 209.70883393 37.57465195 C204.54120713 37.57060923 199.37360952 37.57205501 194.20598412 37.57740021 C193.1024329 37.57852284 193.1024329 37.57852284 191.97658771 37.57966815 C190.4819893 37.58119964 188.98739089 37.58273799 187.49279249 37.58428312 C173.48049489 37.59800748 159.46825314 37.59257067 145.45595682 37.58109791 C132.63721418 37.57116299 119.81861583 37.58411073 106.99989545 37.6080321 C93.83501703 37.63241426 80.67020584 37.64203332 67.50530529 37.63537937 C60.11520567 37.63188551 52.72521706 37.63413031 45.33513451 37.6516304 C38.3878936 37.66787793 31.44093314 37.66318457 24.49370003 37.64432526 C21.94192496 37.64062939 19.39012959 37.64377669 16.83837318 37.65421104 C13.35911794 37.6673535 9.88078631 37.65593213 6.40157127 37.63821983 C5.38814879 37.64782484 4.37472631 37.65742985 3.33059406 37.66732591 C-2.42350582 37.60691659 -5.84367139 37.04273736 -10.37796974 33.13701439 C-15.40647372 27.54978774 -16.90022065 23.42118772 -16.76078224 15.96123314 C-15.97909506 10.19429605 -12.89711301 6.514842 -8.69046974 2.69951439 C-5.48483188 0.53354286 -3.822239 0.01109445 0 0 Z " fill="#FFB024" transform="translate(127.37796974182129,31.862985610961914)"/>
<path d="M0 0 C1.98630296 -0.02460266 3.97212588 -0.08119844 5.95776367 -0.13818359 C14.71684366 -0.21825644 19.92535063 0.77673999 26.33105469 6.75830078 C30.11167368 10.8150893 31.77692002 15.05551874 31.85424805 20.58447266 C31.46999701 26.30981316 29.94600203 30.22709367 25.82299805 34.35009766 C25.70000639 36.03719113 25.64514546 37.72930669 25.61767578 39.4206543 C25.59773056 40.50169937 25.57778534 41.58274445 25.55723572 42.69654846 C25.54052322 43.87257126 25.52381073 45.04859406 25.5065918 46.26025391 C25.47542015 48.05601112 25.47542015 48.05601112 25.44361877 49.88804626 C25.37799526 53.72950252 25.31917902 57.57102967 25.26049805 61.41259766 C25.217325 64.00961033 25.17371112 66.60661572 25.12963867 69.20361328 C25.02230089 75.58569882 24.92055874 81.96785558 24.82299805 88.35009766 C26.1534314 88.32943237 26.1534314 88.32943237 27.51074219 88.30834961 C28.67726318 88.29763428 29.84378418 88.28691895 31.0456543 88.27587891 C32.20073486 88.26210205 33.35581543 88.2483252 34.54589844 88.23413086 C41.70423347 88.48744302 46.70030328 91.34382777 51.82299805 96.35009766 C56.85950783 102.92554098 58.13736409 108.66975737 57.94799805 116.72509766 C57.93897461 117.46115234 57.92995117 118.19720703 57.9206543 118.95556641 C57.89729949 120.75388646 57.8614364 122.55203677 57.82299805 124.35009766 C43.36766994 124.37342777 28.91234474 124.39101097 14.45700169 124.40190983 C7.74557937 124.40707255 1.03416873 124.41411478 -5.67724609 124.42553711 C-12.14813931 124.4363633 -18.61902038 124.44237392 -25.08992195 124.4449749 C-27.5647914 124.44682963 -30.03966015 124.45045116 -32.51452446 124.45582771 C-35.96770568 124.46303458 -39.42083597 124.46408875 -42.87402344 124.46362305 C-43.90836014 124.46721832 -44.94269684 124.4708136 -46.00837708 124.47451782 C-46.94372284 124.47314316 -47.8790686 124.47176849 -48.84275818 124.47035217 C-49.66038856 124.47127397 -50.47801893 124.47219576 -51.32042599 124.47314548 C-53.17700195 124.35009766 -53.17700195 124.35009766 -54.17700195 123.35009766 C-54.93998681 113.41355067 -54.19400911 104.91699767 -47.74731445 97.06884766 C-43.96918289 92.93357928 -39.7056855 89.63802962 -34.17700195 88.35009766 C-31.92845213 88.26523391 -29.67697688 88.24384797 -27.42700195 88.27197266 C-26.2565332 88.28325195 -25.08606445 88.29453125 -23.88012695 88.30615234 C-22.9880957 88.3206543 -22.09606445 88.33515625 -21.17700195 88.35009766 C-21.19332211 80.80568574 -21.24825952 73.26225084 -21.32958984 65.71826172 C-21.35273473 63.15387304 -21.36715726 60.58938978 -21.37255859 58.02490234 C-21.38187311 54.33062024 -21.42292343 50.63781876 -21.4699707 46.94384766 C-21.46603806 45.80395386 -21.46210541 44.66406006 -21.45805359 43.48962402 C-21.57246638 37.19606998 -22.20052198 33.02352107 -26.04669189 27.94116211 C-28.67460903 24.24201292 -27.82944748 19.60652801 -27.17700195 15.35009766 C-25.31975755 8.64786784 -21.04221681 4.83068717 -15.17700195 1.35009766 C-10.25297684 -0.29124405 -5.15835905 0.04670483 0 0 Z " fill="#FED02F" transform="translate(254.177001953125,286.64990234375)"/>
<path d="M0 0 C3.49050004 1.18825533 4.04373666 1.90065787 5.9375 5 C6.85990259 7.52254612 7.68218951 9.99200786 8.4375 12.5625 C8.73720703 13.54186523 8.73720703 13.54186523 9.04296875 14.54101562 C10.79492684 20.32694091 12.36500155 26.1632478 13.9375 32 C14.85563477 31.98428955 15.77376953 31.9685791 16.71972656 31.95239258 C20.13400949 31.9011913 23.54788304 31.86361521 26.96240234 31.83520508 C28.43870491 31.82014077 29.91496288 31.79968518 31.39111328 31.77368164 C33.51606258 31.73719261 35.64041901 31.72025067 37.765625 31.70703125 C39.6822998 31.68346558 39.6822998 31.68346558 41.63769531 31.65942383 C45.13887575 32.02078419 46.54661421 32.45456747 48.9375 35 C49.55078125 38.37890625 49.55078125 38.37890625 48.9375 42 C46.97821173 44.06519574 45.43577592 45.38793985 43.125 46.9375 C42.54274658 47.35499512 41.96049316 47.77249023 41.3605957 48.20263672 C40.15859258 49.06207303 38.94974086 49.91200812 37.734375 50.75244141 C36.0110848 51.94891055 34.31471403 53.17466165 32.625 54.41796875 C30.07370887 56.29489517 27.51098038 58.15369544 24.9375 60 C25.61418377 66.45847547 27.58300653 72.09418904 29.85351562 78.15234375 C31.66493727 83.26643004 33.10527724 88.56764132 31.9375 94 C28.80624972 96.08750019 27.62258334 96.37547898 23.99316406 95.72607422 C19.54557882 94.15515753 15.97826819 90.95215633 12.3125 88.0625 C10.65743949 86.77765039 8.99869696 85.49752676 7.3359375 84.22265625 C6.61067871 83.65297119 5.88541992 83.08328613 5.13818359 82.49633789 C2.76787505 80.88466482 0.69662514 79.78888017 -2.0625 79 C-4.43055572 80.38731443 -6.20325398 81.66828405 -8.25 83.4375 C-9.39995038 84.37243761 -10.55100352 85.30602039 -11.703125 86.23828125 C-12.26966797 86.70572754 -12.83621094 87.17317383 -13.41992188 87.65478516 C-15.73129586 89.54772075 -18.0926607 91.35597036 -20.5 93.125 C-21.24121094 93.68445313 -21.98242188 94.24390625 -22.74609375 94.8203125 C-25.74279451 96.3464569 -27.7424847 96.42002885 -31.0625 96 C-32.74926758 94.72558594 -32.74926758 94.72558594 -34.0625 93 C-33.90625478 85.77010735 -31.77145838 79.41718356 -29.4375 72.625 C-28.77047297 70.68247472 -28.11122366 68.73725588 -27.4609375 66.7890625 C-27.16880371 65.94037598 -26.87666992 65.09168945 -26.57568359 64.21728516 C-25.82370798 61.84637813 -25.82370798 61.84637813 -27.0625 59 C-28.64693379 57.58215926 -28.64693379 57.58215926 -30.6328125 56.29296875 C-31.73109375 55.5359668 -31.73109375 55.5359668 -32.8515625 54.76367188 C-33.62242187 54.24353516 -34.39328125 53.72339844 -35.1875 53.1875 C-39.58864884 50.19395997 -43.96337085 47.19019555 -48.109375 43.84765625 C-48.96160645 43.16135132 -48.96160645 43.16135132 -49.83105469 42.46118164 C-51.0625 41 -51.0625 41 -51.1875 37.25 C-50.0625 34 -50.0625 34 -47.0625 32 C-44.59193177 31.82887998 -42.23746079 31.76746876 -39.76953125 31.8046875 C-39.06350266 31.8075174 -38.35747406 31.81034729 -37.63005066 31.81326294 C-35.37819367 31.82444536 -33.12673648 31.8495458 -30.875 31.875 C-29.34701096 31.88503233 -27.81901567 31.89415774 -26.29101562 31.90234375 C-22.54802337 31.92437828 -18.80532944 31.95889433 -15.0625 32 C-14.9281958 30.95094482 -14.7938916 29.90188965 -14.65551758 28.82104492 C-13.87236159 23.7748636 -12.35698006 19.14691592 -10.75 14.3125 C-10.45416016 13.37599609 -10.15832031 12.43949219 -9.85351562 11.47460938 C-6.06140703 0 -6.06140703 0 0 0 Z " fill="#FEFEFC" transform="translate(257.0625,120)"/>
<path d="M0 0 C0.69042892 -0.00525696 1.38085785 -0.01051392 2.09220886 -0.01593018 C4.35345718 -0.02903349 6.61398982 -0.02042618 8.87524414 -0.01025391 C10.46033359 -0.01227767 12.04542214 -0.01519162 13.63050842 -0.01895142 C16.94484361 -0.02336186 20.25893541 -0.01698607 23.57324219 -0.00292969 C27.80423623 0.01414758 32.03465865 0.00432241 36.26563168 -0.01364708 C39.53691345 -0.02453167 42.80806162 -0.02101701 46.07934761 -0.0132637 C47.63853588 -0.01127386 49.1977366 -0.01367787 50.75691032 -0.02070236 C61.89844082 -0.05988463 70.33025093 0.18627617 78.72290039 8.38818359 C83.75941017 14.96362692 85.03726644 20.7078433 84.84790039 28.76318359 C84.83887695 29.49923828 84.82985352 30.23529297 84.82055664 30.99365234 C84.79720183 32.7919724 84.76133875 34.59012271 84.72290039 36.38818359 C70.26757228 36.41151371 55.81224708 36.42909691 41.35690403 36.43999577 C34.64548171 36.44515848 27.93407107 36.45220072 21.22265625 36.46362305 C14.75176303 36.47444924 8.28088197 36.48045986 1.80998039 36.48306084 C-0.66488906 36.48491557 -3.13975781 36.4885371 -5.61462212 36.49391365 C-9.06780334 36.50112052 -12.52093362 36.50217469 -15.97412109 36.50170898 C-17.00845779 36.50530426 -18.04279449 36.50889954 -19.10847473 36.51260376 C-20.0438205 36.5112291 -20.97916626 36.50985443 -21.94285583 36.50843811 C-22.76048621 36.5093599 -23.57811659 36.5102817 -24.42052364 36.51123142 C-26.27709961 36.38818359 -26.27709961 36.38818359 -27.27709961 35.38818359 C-28.04008447 25.45163661 -27.29410677 16.95508361 -20.84741211 9.10693359 C-14.9381019 2.63903187 -8.65097316 0.01665967 0 0 Z " fill="#FFB125" transform="translate(227.277099609375,374.61181640625)"/>
<path d="M0 0 C1.20505188 -0.01606293 2.41010376 -0.03212585 3.65167236 -0.04867554 C9.17744873 -0.09295055 14.70309235 -0.1346476 20.22900391 -0.15722656 C23.8687967 -0.17384986 27.50767962 -0.21859956 31.14712906 -0.26959801 C33.94731659 -0.30329659 36.74728932 -0.31480687 39.54766083 -0.32045364 C41.54024325 -0.33042088 43.53265644 -0.36466225 45.52496338 -0.39926147 C55.59921564 -0.37568184 55.59921564 -0.37568184 58.72827148 2.47265625 C60.94132248 6.14799002 60.94132248 6.14799002 60.37011719 9.23974609 C60.23234863 10.02027344 60.09458008 10.80080078 59.95263672 11.60498047 C59.75911621 12.45898438 59.5655957 13.31298828 59.36621094 14.19287109 C59.15851074 15.12421875 58.95081055 16.05556641 58.73681641 17.01513672 C49.96872581 53.7087912 34.49566048 88.96552366 10.36621094 118.19287109 C9.66262451 119.04872803 9.66262451 119.04872803 8.94482422 119.921875 C-1.73630765 132.83572616 -13.14416077 144.21175599 -26.63378906 154.19287109 C-27.17261719 154.59248047 -27.71144531 154.99208984 -28.26660156 155.40380859 C-37.36616814 162.08280081 -47.84897804 169.59793409 -58.63378906 173.19287109 C-54.03890919 160.40378877 -46.78617243 149.86369279 -35.33300781 142.62255859 C-31.12391353 139.95931705 -27.43285664 136.78677209 -23.69628906 133.50537109 C-23.09397461 132.98225342 -22.49166016 132.45913574 -21.87109375 131.92016602 C-13.96103789 124.96548907 -7.17848273 117.44068472 -0.63378906 109.19287109 C0.18476563 108.17966797 1.00332031 107.16646484 1.84667969 106.12255859 C8.14083726 98.23834956 13.45354739 89.99753972 18.36621094 81.19287109 C18.80610352 80.40879883 19.24599609 79.62472656 19.69921875 78.81689453 C29.90336469 60.46087306 37.01750525 41.55590807 42.71533203 21.37670898 C43.53436484 18.6286788 44.45943177 15.9132086 45.36621094 13.19287109 C28.20621094 13.19287109 11.04621094 13.19287109 -6.63378906 13.19287109 C-6.63378906 0.08000443 -6.63378906 0.08000443 0 0 Z " fill="#FEB124" transform="translate(384.6337890625,94.80712890625)"/>
<path d="M0 0 C1.2409845 0.00022659 2.48196899 0.00045319 3.76055908 0.00068665 C5.10958214 0.01600528 6.4586015 0.03165324 7.80761719 0.04760742 C9.19195089 0.05320542 10.57629055 0.05747456 11.96063232 0.06047058 C15.59725466 0.07190345 19.2335153 0.10135671 22.86999512 0.13458252 C26.58352771 0.1653173 30.29711896 0.17898317 34.01074219 0.1940918 C41.29217586 0.22622843 48.57323719 0.27898305 55.85449219 0.34057617 C55.85449219 4.63057617 55.85449219 8.92057617 55.85449219 13.34057617 C39.02449219 13.34057617 22.19449219 13.34057617 4.85449219 13.34057617 C12.95389512 44.15352212 24.04367072 73.38044726 42.85449219 99.34057617 C43.26022461 99.90180176 43.66595703 100.46302734 44.08398438 101.04125977 C49.73515233 108.77856466 55.8733418 115.98215197 62.48974609 122.90844727 C63.80397685 124.2875667 65.1010988 125.6829283 66.39746094 127.07885742 C70.38537843 131.24776966 74.26556341 134.9987873 78.97558594 138.32104492 C89.25225506 145.57208416 95.29570588 152.36213189 100.94335938 163.6262207 C102.04686234 165.70253308 103.3584466 167.52932601 104.85449219 169.34057617 C104.52449219 170.00057617 104.19449219 170.66057617 103.85449219 171.34057617 C74.56977869 156.65720442 49.59463102 134.17962659 30.85449219 107.34057617 C30.38495117 106.67268066 29.91541016 106.00478516 29.43164062 105.31665039 C11.49677496 79.50473157 -13.5314943 36.07177887 -10.14550781 3.34057617 C-7.014068 0.08319207 -4.3916635 -0.02677844 0 0 Z " fill="#FFB124" transform="translate(78.1455078125,94.659423828125)"/>
<path d="M0 0 C1.98630296 -0.02460266 3.97212588 -0.08119844 5.95776367 -0.13818359 C14.71684366 -0.21825644 19.92535063 0.77673999 26.33105469 6.75830078 C30.11167368 10.8150893 31.77692002 15.05551874 31.85424805 20.58447266 C31.50201461 25.83275083 30.33552001 29.28296696 26.82299805 33.35009766 C18.98658028 40.07483755 11.77134164 39.64326615 1.69799805 39.78759766 C0.41666992 39.83335937 -0.8646582 39.87912109 -2.18481445 39.92626953 C-10.68398418 40.02641344 -16.56072511 38.89001019 -23.17700195 33.35009766 C-27.31848455 28.78585252 -27.81762934 24.12065995 -27.55200195 18.06103516 C-26.67118234 11.69344334 -24.16024565 7.83396753 -19.11450195 3.91259766 C-13.05363902 -0.35676261 -7.20880469 0.06526998 0 0 Z " fill="#FEB125" transform="translate(254.177001953125,286.64990234375)"/>
<path d="M0 0 C0.87341537 -0.00990463 1.74683075 -0.01980927 2.64671326 -0.03001404 C3.60212006 -0.02551239 4.55752686 -0.02101074 5.54188538 -0.01637268 C7.05446175 -0.02666756 7.05446175 -0.02666756 8.59759521 -0.03717041 C11.93862395 -0.05550645 15.27918615 -0.05159109 18.62025452 -0.0459137 C20.93809157 -0.05047228 23.25592727 -0.05577688 25.57376099 -0.0617981 C30.4352619 -0.07074264 35.29659865 -0.0682908 40.15809631 -0.05836487 C46.39396882 -0.04687476 52.62927511 -0.06708103 58.8650732 -0.09628201 C63.65284842 -0.11461165 68.44048716 -0.11435796 73.22828865 -0.10864449 C75.5276373 -0.10849087 77.82699496 -0.11456836 80.12631035 -0.12693596 C83.33941733 -0.14178232 86.55146813 -0.13121491 89.76454163 -0.11402893 C90.71792419 -0.1236969 91.67130676 -0.13336487 92.65357971 -0.14332581 C99.06129859 -0.07141088 99.06129859 -0.07141088 102.34390259 2.22372437 C103.71791077 4.38768005 103.71791077 4.38768005 103.65541077 7.51268005 C102.71791077 10.38768005 102.71791077 10.38768005 99.71791077 12.38768005 C97.73294067 12.64215565 97.73294067 12.64215565 95.42909241 12.64837646 C94.55423187 12.65546127 93.67937134 12.66254608 92.77799988 12.66984558 C91.82102203 12.66736816 90.86404419 12.66489075 89.87806702 12.66233826 C88.36308121 12.67000465 88.36308121 12.67000465 86.81748962 12.67782593 C83.47173676 12.69175084 80.12618919 12.69076313 76.78041077 12.6884613 C74.46017886 12.69234629 72.13994767 12.69668055 69.81971741 12.70144653 C64.95405269 12.70891474 60.08846052 12.70861285 55.22279358 12.70335388 C48.97795298 12.69755485 42.73340855 12.71449802 36.48861694 12.73769855 C31.69661209 12.75240661 26.90467907 12.75331165 22.11265564 12.75018883 C19.8096915 12.75070339 17.50672347 12.75596637 15.20378113 12.76600075 C11.98824112 12.77829262 8.77328469 12.77161721 5.55775452 12.75999451 C4.60077667 12.76763824 3.64379883 12.77528198 2.65782166 12.78315735 C1.78296112 12.77614304 0.90810059 12.76912872 0.00672913 12.76190186 C-1.13367577 12.76215347 -1.13367577 12.76215347 -2.29711914 12.76241016 C-4.84756568 12.28092729 -5.73304259 11.44106049 -7.28208923 9.38768005 C-7.92555791 4.23993061 -7.92555791 4.23993061 -6.02628231 1.72441006 C-3.85332521 0.05908012 -2.71798893 0.00870182 0 0 Z " fill="#FEFEFD" transform="translate(208.28208923339844,439.61231994628906)"/>
</svg>
