<?xml version="1.0" encoding="UTF-8"?>
<svg version="1.1" xmlns="http://www.w3.org/2000/svg" width="512" height="512">
<path d="M0 0 C1.85811984 -0.00461592 3.71623601 -0.01097345 5.57434464 -0.01890898 C10.65068392 -0.03553047 15.72672049 -0.02738869 20.80306053 -0.0149641 C26.28917821 -0.00588645 31.77524507 -0.01989679 37.26135254 -0.03088379 C47.99694409 -0.04864462 58.7324236 -0.04483986 69.46801949 -0.03323323 C78.19520103 -0.0241896 86.92235124 -0.02297893 95.64953613 -0.02732849 C96.89293392 -0.02794142 98.13633172 -0.02855436 99.41740823 -0.02918586 C101.94356379 -0.0304648 104.46971934 -0.03176165 106.99587488 -0.03307623 C129.99390388 -0.04415013 152.99188332 -0.03267761 175.98990017 -0.01170584 C196.9643281 0.00727523 217.93865886 0.00557666 238.91308594 -0.0135498 C262.50245539 -0.03498915 286.09178349 -0.04337632 309.68116379 -0.03110075 C312.1978836 -0.02982659 314.71460342 -0.02856911 317.23132324 -0.02732849 C318.46950876 -0.02671139 319.70769429 -0.02609429 320.98340058 -0.02545848 C329.69732104 -0.02200877 338.41120696 -0.02782578 347.12512207 -0.0372467 C357.74845507 -0.0484798 368.37166989 -0.04539899 378.9949894 -0.02412373 C384.41231921 -0.01363106 389.82945216 -0.00946117 395.2467804 -0.02272034 C400.21114729 -0.03468685 405.17513584 -0.02801157 410.13946867 -0.00681013 C411.93000908 -0.00236209 413.72058182 -0.00456961 415.51110125 -0.01431328 C427.94612618 -0.07676265 440.64454871 0.33742242 450.66308594 8.74621582 C459.30959016 17.31670682 462.75935895 25.137544 462.846322 37.26195753 C462.84031195 38.53530128 462.83430191 39.80864503 462.82810974 41.12057495 C462.83228674 42.50216498 462.83776627 43.88375159 462.84442955 45.26533186 C462.85885503 49.047547 462.85464857 52.82954368 462.84726274 56.61177063 C462.84252615 60.69640638 462.85504528 64.78099521 462.86528015 68.86561584 C462.88246409 76.86231544 462.88330897 84.85893644 462.87806725 92.85564969 C462.87402343 99.35662109 462.87547163 105.85756929 462.88081551 112.35853958 C462.88156393 113.28431445 462.88231235 114.21008932 462.88308345 115.16391797 C462.88461495 117.04472339 462.8861533 118.9255288 462.88769842 120.80633421 C462.90142209 138.43885274 462.89598679 156.07132687 462.88451321 173.70384438 C462.87458179 189.82737453 462.88752016 205.95078991 462.9114474 222.07430236 C462.93584277 238.63833763 462.94544514 255.20231945 462.93879467 271.76637232 C462.93530332 281.06245615 462.93752893 290.35845172 462.9550457 299.65452194 C462.96977318 307.56836788 462.97039603 315.48206343 462.95297479 323.39590643 C462.94446674 327.43162612 462.94231029 331.4670772 462.95762634 335.50278282 C462.97148955 339.20154117 462.96668981 342.8998012 462.94738711 346.59853084 C462.94186083 348.56116982 462.95588507 350.52383427 462.97074121 352.4864248 C462.88064689 363.33629546 460.14513524 372.59012014 452.44042969 380.50793457 C442.15985489 388.9969434 432.58639448 390.67347356 419.55786133 390.62145996 C418.59123566 390.62160599 417.62460999 390.62175201 416.62869263 390.62190247 C413.45263376 390.62120912 410.27663448 390.61344385 407.10058594 390.60559082 C404.89098645 390.60372459 402.68138655 390.60230165 400.4717865 390.6013031 C394.6702255 390.59749409 388.86868974 390.58767764 383.06713867 390.57659912 C377.14144227 390.56635021 371.21574178 390.56179803 365.29003906 390.5567627 C353.67349155 390.54605389 342.05696272 390.52899692 330.44042969 390.50793457 C330.46137695 391.51171143 330.48232422 392.51548828 330.50390625 393.54968262 C330.57649663 397.28619023 330.6222978 401.02263594 330.66015625 404.75964355 C330.68022861 406.37465915 330.70749299 407.98960246 330.7421875 409.60437012 C330.79090183 411.93047958 330.81344123 414.2556255 330.83105469 416.58215332 C330.85169983 417.30005539 330.87234497 418.01795746 330.89361572 418.75761414 C330.89523346 422.400472 330.54090679 424.35278914 328.54101562 427.4407959 C325.94673099 429.99377219 324.92931374 430.42971312 321.31542969 431.00793457 C315.65240001 430.27722106 313.37143119 427.47631486 309.44042969 423.50793457 C308.23409078 422.31322467 307.02699542 421.11927832 305.81933594 419.92590332 C302.33865217 416.47378938 298.88500917 412.99605509 295.44042969 409.50793457 C289.97709138 414.03996356 284.99171954 418.89500991 280.07128906 424.00402832 C276.21871282 427.93448066 273.61800581 430.23078852 268.00292969 430.94543457 C264.44042969 430.50793457 264.44042969 430.50793457 261.56542969 428.25793457 C258.06319068 423.72562527 258.3195933 419.99201208 258.34277344 414.33605957 C258.34489586 413.31243317 258.34489586 413.31243317 258.34706116 412.26812744 C258.35263885 410.09801773 258.36518715 407.92801287 258.37792969 405.75793457 C258.38294757 404.28267565 258.38750998 402.8074151 258.39160156 401.33215332 C258.40260094 397.72404659 258.41985016 394.11600082 258.44042969 390.50793457 C257.86233523 390.50869401 257.28424078 390.50945345 256.68862832 390.51023591 C222.4094105 390.55501333 188.13019935 390.58931845 153.85095865 390.61006523 C149.73299582 390.61256658 145.61503305 390.61515523 141.49707031 390.61779785 C140.67727435 390.61832247 139.8574784 390.61884709 139.01284014 390.61938761 C125.74704102 390.62808503 112.48125927 390.64385135 99.21547045 390.66224016 C85.59877382 390.68095767 71.98208627 390.69205521 58.36537731 390.69611156 C49.96634617 390.69885278 41.56736414 390.70750393 33.16834812 390.7237675 C27.40514361 390.73435723 21.6419644 390.7375307 15.87875088 390.73493733 C12.5560221 390.73365912 9.23344794 390.73668941 5.91072273 390.74634552 C2.30142664 390.75631913 -1.30766058 390.75389445 -4.91696167 390.7484436 C-5.95784404 390.75426929 -6.9987264 390.76009497 -8.07115066 390.76609719 C-20.84306033 390.71408586 -31.1662556 388.26082682 -40.73535156 379.50012207 C-46.50907492 373.19477108 -49.80495063 365.0900268 -49.81683922 356.56296825 C-49.82328811 355.38963473 -49.829737 354.21630122 -49.83638132 353.00741214 C-49.83328411 351.72756058 -49.83018691 350.44770903 -49.82699585 349.1290741 C-49.83073399 347.74849935 -49.83533617 346.36792672 -49.84072649 344.98735744 C-49.85295167 341.19873749 -49.8526966 337.41020588 -49.85033774 333.62157071 C-49.84992946 329.53351745 -49.86096985 325.44549246 -49.87045288 321.35745239 C-49.88706111 313.35013644 -49.89256234 305.34284994 -49.89367764 297.3355182 C-49.89462818 290.82638972 -49.89873877 284.31727094 -49.90507889 277.80814552 C-49.92269066 259.35110844 -49.93191784 240.8940946 -49.93041794 222.43704905 C-49.93033803 221.44216247 -49.93025812 220.44727588 -49.93017578 219.42224121 C-49.93009402 218.42613907 -49.93001226 217.43003692 -49.92992802 216.40374986 C-49.92911509 200.26002148 -49.94825458 184.1163864 -49.97645251 167.972685 C-50.00518154 151.39403301 -50.0189928 134.81542651 -50.01726496 118.23674899 C-50.01660108 108.93004181 -50.02209276 99.62343243 -50.04362106 90.31674767 C-50.06183308 82.39295092 -50.06618002 74.46929633 -50.05260222 66.54548772 C-50.04607271 62.50382471 -50.04595458 58.46243441 -50.06330872 54.42079735 C-50.07904547 50.71770265 -50.07617008 47.01509678 -50.05874045 43.31201396 C-50.054223 41.3445571 -50.06932317 39.37708505 -50.08521974 37.40968722 C-49.9938837 25.68029235 -46.18956252 17.07724035 -37.85253906 8.81652832 C-27.03980673 -0.26616684 -13.32778034 -0.07252727 0 0 Z " fill="#F2D45B" transform="translate(49.5595703125,38.4920654296875)"/>
<path d="M0 0 C0.81946232 -0.00256327 1.63892464 -0.00512655 2.48321915 -0.0077675 C5.2086629 -0.01267961 7.93354347 0.00374464 10.65893555 0.02018738 C12.62068163 0.02103421 14.58242866 0.02055742 16.54417419 0.01885986 C21.85559834 0.01800067 27.16681839 0.03561426 32.47819519 0.05658174 C38.03419962 0.07536112 43.59020896 0.07709998 49.14624023 0.08065796 C59.66101952 0.0899747 70.17570501 0.11458353 80.69044304 0.14470643 C92.66378536 0.17826193 104.63713222 0.19473935 116.61050987 0.20979273 C141.23477664 0.24113336 165.85896021 0.29388671 190.4831543 0.36076355 C190.15652802 1.14004715 189.82990173 1.91933075 189.49337769 2.722229 C188.47548451 5.38079575 188.29060551 6.98736553 188.4284668 9.7943573 C188.45295898 10.60840027 188.47745117 11.42244324 188.50268555 12.26115417 C188.5728502 13.9490039 188.65094351 15.63654315 188.73706055 17.32365417 C188.8862623 22.87483714 188.29797278 26.00948622 184.4831543 30.36076355 C182.4128418 31.89982605 182.4128418 31.89982605 180.3581543 32.98576355 C177.1599002 34.68747611 175.75872436 35.92505726 174.4831543 39.36076355 C173.93022037 46.21714422 175.21297466 50.08161518 179.1706543 55.79826355 C180.92962186 59.23243832 180.88515854 61.54172321 180.4831543 65.36076355 C179.18830523 68.44373753 177.72971398 71.01375362 175.7956543 73.73576355 C173.45171246 78.42364721 173.96880544 82.64626737 175.4206543 87.48576355 C177.94436025 91.00365669 180.73768013 92.76863363 184.42456055 94.9662323 C186.4831543 96.36076355 186.4831543 96.36076355 188.4831543 99.36076355 C188.66259766 101.36613464 188.66259766 101.36613464 188.57299805 103.63420105 C188.55301758 104.45920105 188.53303711 105.28420105 188.51245117 106.13420105 C188.45152354 107.86091598 188.38645619 109.58749007 188.31713867 111.31388855 C188.2068743 116.19593855 188.25820028 119.40734934 191.4831543 123.36076355 C194.90892305 126.21557084 197.7300568 127.52274852 202.0456543 128.29826355 C206.5060218 129.1392756 208.59458516 130.77193523 211.4831543 134.36076355 C213.87774177 137.95264476 214.23067303 140.88808726 214.9206543 145.0834198 C215.31974005 147.54196126 215.31974005 147.54196126 217.4831543 149.36076355 C217.67103634 151.95084664 217.73503196 154.43307288 217.71020508 157.02336121 C217.71049713 157.81369247 217.71078918 158.60402374 217.71109009 159.41830444 C217.70969391 162.03725569 217.69411935 164.65592435 217.6784668 167.27482605 C217.67473769 169.08800603 217.67189023 170.90118802 217.66989136 172.71437073 C217.66224687 177.49184206 217.64259142 182.26919222 217.6204834 187.0466156 C217.6000425 191.91954407 217.5908934 196.79249208 217.58081055 201.66545105 C217.55934627 211.23060852 217.52520052 220.79567597 217.4831543 230.36076355 C188.89642559 230.49780849 160.30973839 230.6039087 131.72274517 230.66715553 C128.34340184 230.67465925 124.96405916 230.68242523 121.5847168 230.69035339 C120.57561998 230.69271419 120.57561998 230.69271419 119.54613736 230.69512267 C108.67097854 230.72118982 97.79601113 230.76847454 86.92096564 230.82368033 C75.7518911 230.87990342 64.58288175 230.9126915 53.4136641 230.92529452 C47.14431644 230.93310468 40.87540209 230.95141227 34.60619354 230.99514389 C28.69969261 231.03600978 22.79380159 231.04840407 16.8871727 231.03940964 C14.7249024 231.041054 12.56261072 231.05290489 10.4004631 231.0759964 C-12.85560155 231.31208864 -12.85560155 231.31208864 -22.52228165 222.54115868 C-28.09128422 216.75458742 -29.97021946 210.2536641 -29.91125488 202.37313843 C-29.91734599 201.59833816 -29.92343709 200.8235379 -29.92971277 200.02525884 C-29.9462824 197.44447799 -29.94157568 194.8641938 -29.93676758 192.28337097 C-29.94411148 190.42666107 -29.95269865 188.56995574 -29.96243286 186.71325684 C-29.98462525 181.68006204 -29.98758063 176.64703109 -29.98568535 171.61379409 C-29.98556553 167.40670998 -29.99413456 163.19966043 -30.00246286 158.99258596 C-30.02168927 149.06344911 -30.02458374 139.13439633 -30.01782227 129.20524597 C-30.01118393 118.97537173 -30.03403937 108.74585827 -30.071136 98.51605719 C-30.10186534 89.72175625 -30.11318945 80.92757117 -30.10929918 72.13321763 C-30.10723481 66.88581205 -30.11266276 61.63868719 -30.13719177 56.39133263 C-30.15950935 51.45404808 -30.15753936 46.51734856 -30.13726425 41.58006096 C-30.13386292 39.77334892 -30.13890532 37.96659712 -30.15324783 36.15993881 C-30.23131881 25.59220939 -30.10987873 16.42351482 -22.55635834 8.23562908 C-16.04418131 1.86286199 -8.86506825 -0.10315317 0 0 Z " fill="#FEFEFD" transform="translate(91.516845703125,118.63923645019531)"/>
<path d="M0 0 C2.38671875 1.34765625 2.38671875 1.34765625 4.875 3 C9.22608967 5.79855691 12.37280981 6.90176935 17.5546875 6.609375 C21.26710208 5.68423654 23.87230734 3.6070889 26.90625 1.34765625 C30.07119516 -0.68948196 32.35065856 -0.61969949 36 0 C40.74336873 1.76713737 43.0860836 3.92051704 46 8 C49.24613126 12.49640682 49.24613126 12.49640682 54 15 C58.65660563 15.34241019 58.65660563 15.34241019 63 14 C68.24308569 13.59668572 71.56127553 14.13948867 76 17 C79.81358985 20.60172375 80.50595397 23.83725775 81.4453125 28.78125 C82.27514818 32.10059271 83.83426751 34.38838141 86 37 C88.76412501 38.64918383 91.21717429 39.30835589 94.375 39.8125 C99.1545852 40.79838804 101.56823584 42.56823584 105 46 C106.91072531 49.82145063 105.94241042 54.93284948 105.78515625 59.171875 C105.69376499 64.22331927 106.09572739 67.66917939 109 72 C111.1115086 73.98412361 111.1115086 73.98412361 113.5 75.5625 C118.1418593 79.01181659 120.53225238 81.34943018 121.5625 87.1875 C120.98369898 91.1104847 120.13822447 92.58747113 118 95.8125 C115.22902841 100.17348148 114.10331737 103.32199419 114.38671875 108.49609375 C115.33447284 112.36558657 117.53190079 115.26157181 119.7109375 118.55078125 C121.48876501 121.92865353 121.48405585 124.27502485 120.7421875 127.96484375 C119.02028324 132.68648647 115.9731263 135.35773664 111.875 138.0625 C108.60978129 140.26297348 107.58539477 141.41398802 106 145 C105.70249795 148.99109719 106.02778287 152.97585178 106.29296875 156.96289062 C106.44705058 161.20014102 106.44589712 164.06457546 103.7421875 167.47265625 C99.41092489 171.46457492 95.99304188 172.31418098 90.31640625 173.2421875 C87.12967348 174.28472739 85.36377505 175.6127048 83 178 C81.58280724 181.42716548 81.58280724 181.42716548 80.75 185.1875 C79.05089409 191.94910591 79.05089409 191.94910591 78 193 C77.89258229 194.36561766 77.85321012 195.73667243 77.84178162 197.10646057 C77.8319928 197.99132141 77.82220398 198.87618225 77.81211853 199.78785706 C77.80636307 200.76608932 77.8006076 201.74432159 77.79467773 202.75219727 C77.78477814 203.7764682 77.77487854 204.80073914 77.76467896 205.85604858 C77.73295829 209.2594772 77.70826493 212.66291981 77.68359375 216.06640625 C77.66303334 218.41910679 77.64203712 220.77180356 77.62062073 223.12449646 C77.56530576 229.33052526 77.51593819 235.53658792 77.46777344 241.74267578 C77.41762705 248.07001779 77.36190525 254.39731037 77.30664062 260.72460938 C77.19894385 273.1496974 77.09752463 285.57482826 77 298 C76.67 298 76.34 298 76 298 C75.67 264.34 75.34 230.68 75 196 C73.02 196.99 73.02 196.99 71 198 C67.28183899 198.19569268 64.53970718 198.17990239 61 197 C56.98655757 196.62137336 54.58285578 196.71451962 50.9375 198.5 C47.83730105 201.13846719 45.78854378 203.88159429 43.42578125 207.16015625 C40.48833818 210.95066498 37.98309391 211.85003652 33.3125 212.5625 C29.48304847 212.45452674 27.23175312 211.08166781 24.0625 209 C20.00031845 206.39524236 17.12879245 205.08829923 12.27734375 205.38671875 C9.46179096 206.14493794 7.48543969 207.44846685 5.0625 209.0625 C0.52977721 212.0419533 -2.4694387 212.69471281 -7.80859375 211.7421875 C-12.45699825 210.16786156 -14.45609935 206.84984477 -17 202.875 C-19.18413561 199.73530506 -20.47457073 198.44222107 -24 197 C-27.4787562 196.63804849 -30.8017988 196.4008994 -34 198 C-40.58766472 198.6334293 -43.57691232 196.74015639 -48.5859375 192.73046875 C-50.53907506 190.34030317 -50.79622331 188.13914871 -51.375 185.125 C-52.59661956 180.01023932 -53.40340571 176.96863381 -58 174 C-60.73667177 173.19509654 -63.48983547 172.53534296 -66.265625 171.87890625 C-70.33225233 170.57177604 -73.28555081 168.27782544 -76 165 C-76.95523831 162.13428507 -77.067328 160.66408079 -76.921875 157.7265625 C-76.88320313 156.4890625 -76.88320313 156.4890625 -76.84375 155.2265625 C-76.78150827 153.49935448 -76.70350757 151.77263878 -76.609375 150.046875 C-76.49773822 145.56744933 -76.48276862 143.6643898 -79.3203125 140.01953125 C-82.01408985 137.92585946 -82.01408985 137.92585946 -85.125 136.0625 C-88.54566629 133.60854375 -89.6277111 131.96439017 -91 128 C-91.7939393 121.84697041 -90.76616105 118.78267065 -87.19140625 113.76171875 C-84.62052323 109.96018353 -84.5616902 106.45614959 -85 102 C-86.12075604 99.79490237 -87.38812402 97.82033615 -88.80859375 95.796875 C-91.42225537 91.85495911 -91.60027857 87.57603666 -91 83 C-88.63854805 77.9819146 -85.54773605 75.79709729 -80.8046875 73.2734375 C-78.59080348 71.7112596 -78.0164081 70.4972455 -77 68 C-76.7747677 65.86091368 -76.7747677 65.86091368 -76.91015625 63.62890625 C-76.93013672 62.80712891 -76.95011719 61.98535156 -76.97070312 61.13867188 C-77.03176715 59.42498148 -77.09685395 57.71142957 -77.16601562 55.99804688 C-77.27619655 51.146287 -77.24128872 47.90751204 -74 44 C-70.09361421 41.26552995 -67.04670998 39.9034078 -62.375 39.0625 C-57.83269496 38.12777396 -55.69639245 36.96528301 -53 33 C-52.14948807 29.9600514 -51.47924537 26.90455217 -50.80859375 23.8203125 C-49.53055082 19.36259755 -47.01739276 17.42375805 -43.3671875 14.84765625 C-39.16554215 13.34310668 -34.65282624 14.33462753 -30.28710938 14.81054688 C-26.71857708 15.12126341 -24.5086401 15.21280553 -21.15234375 13.80859375 C-18.84273225 11.86784943 -17.52225496 10.09475277 -16 7.5 C-12.02730356 1.29896368 -7.63839502 -1.72566192 0 0 Z " fill="#FA7B75" transform="translate(356,75)"/>
<path d="M0 0 C0.91265625 0.48984375 1.8253125 0.9796875 2.765625 1.484375 C6.47583901 3.2229777 8.94878002 3.31163231 13 3 C13.66 2.67 14.32 2.34 15 2 C20.72113733 1.41818942 23.94174189 1.84245811 28.484375 5.43359375 C30.0746677 7.07716945 30.97914923 8.5876241 32 10.625 C34.49837248 14.84100355 36.35544855 15.63866595 41 17 C45.69358128 17.93871626 47.97401534 16.50567749 51.8125 14 C55.90915545 11.42810869 58.85200368 10.08187325 63.71484375 10.390625 C67.44532154 11.38541908 70.37761805 13.55190669 73.58203125 15.6484375 C77.43451124 17.80184312 79.65431265 17.72428122 84 17 C88.97992507 14.60963597 91.43939212 11.19555422 94.5703125 6.83984375 C96.47416564 4.38980324 98.1049303 3.1297833 101 2 C104.75935317 1.74073426 107.42365687 1.80788562 111 3 C115.63714595 3.25761922 118.7703305 2.83867076 123 1 C123.11574903 14.75151022 123.20464222 28.50290493 123.25906086 42.2548027 C123.28517653 48.64009533 123.32061164 55.02505517 123.37719727 61.41015625 C123.43144509 67.56987029 123.46140568 73.72926385 123.47438622 79.8891983 C123.48363897 82.24162086 123.50170711 84.59402549 123.52865028 86.94631195 C123.56484312 90.23640622 123.56994925 93.52516902 123.56762695 96.81542969 C123.58560333 97.79222687 123.60357971 98.76902405 123.62210083 99.77542114 C123.57164346 106.36326807 123.57164346 106.36326807 120.67155457 109.59356689 C116.98609618 111.53376709 115.12319015 111.76873037 111 111 C107.93265026 109.08636063 105.53564282 106.55975353 103 104 C101.79366109 102.8052901 100.58656573 101.61134375 99.37890625 100.41796875 C95.89822248 96.96585481 92.44457949 93.48812052 89 90 C82.14479488 92.88453851 75.83907356 98.65371011 72 105 C69.8255957 111.60086656 70.43718364 118.71146191 70.65234375 125.5625 C70.66433563 127.52731555 70.66996533 129.49217915 70.66957092 131.45703125 C70.68277883 136.59253697 70.76993204 141.72390895 70.87695312 146.85821533 C71.03579341 155.10045696 71.07961635 163.3441192 71.12549019 171.58761597 C71.15196039 174.45842314 71.20947911 177.32729225 71.27220154 180.19750977 C71.29525341 181.95458226 71.31774962 183.71166215 71.33959961 185.46875 C71.36505356 186.26256577 71.39050751 187.05638153 71.41673279 187.87425232 C71.44167493 191.64528269 71.1542941 193.75827658 69.10377502 196.97070312 C66.50418127 199.47826568 65.46406453 199.92574967 61.875 200.5 C56.21197032 199.76928649 53.93100151 196.96838028 50 193 C48.79366109 191.8052901 47.58656573 190.61134375 46.37890625 189.41796875 C42.89822248 185.96585481 39.44457949 182.48812052 36 179 C30.5366617 183.53202899 25.55128986 188.38707534 20.63085938 193.49609375 C16.77828313 197.42654609 14.17757613 199.72285395 8.5625 200.4375 C5 200 5 200 2.125 197.75 C-1.09355851 193.58480663 -1.12457833 190.3461942 -1.10534668 185.1650238 C-1.10327461 183.97640023 -1.10120255 182.78777666 -1.09906769 181.56313419 C-1.09151207 180.26411387 -1.08395645 178.96509356 -1.07617188 177.62670898 C-1.07159202 176.24102365 -1.06740798 174.85533696 -1.063591 173.46964931 C-1.05177218 169.7429675 -1.03317532 166.01635076 -1.01249313 162.28970861 C-1.00018934 160.03470194 -0.98920265 157.77969286 -0.97866821 155.52467728 C-0.92994613 145.19908452 -0.86601652 134.87361508 -0.79807091 124.54813313 C-0.76932443 120.14671225 -0.74172607 115.74528415 -0.71398926 111.34385681 C-0.66164947 103.0646309 -0.60832498 94.78541167 -0.5546174 86.50619453 C-0.49337062 77.05705094 -0.43326621 67.60790018 -0.37324238 58.15874875 C-0.25007029 38.77249111 -0.12551356 19.38624261 0 0 Z " fill="#FE5363" transform="translate(309,269)"/>
<path d="M0 0 C0.92563468 -0.00170885 1.85126936 -0.0034177 2.80495358 -0.00517833 C5.88958044 -0.00845818 8.97398711 0.00250564 12.05859375 0.01345825 C14.27649429 0.01402269 16.49439521 0.01370517 18.71229553 0.01257324 C24.72199357 0.01200001 30.73161158 0.0237497 36.74129105 0.03772116 C43.02600955 0.0502333 49.31072994 0.0513994 55.59545898 0.05377197 C66.14031328 0.05927961 76.68514139 0.07176756 87.22998047 0.08963013 C98.08837742 0.10800466 108.94676641 0.12215345 119.80517578 0.13064575 C120.475148 0.1311712 121.14512022 0.13169665 121.83539462 0.13223802 C125.19664553 0.1348482 128.55789649 0.13737559 131.91914749 0.13986182 C159.77814998 0.16076051 187.6371198 0.19593368 215.49609375 0.24050903 C214.82076409 5.61346149 213.70451491 7.71717969 209.49609375 11.24050903 C205.95067788 13.27488488 202.49981693 13.93749077 198.51953125 14.67800903 C196.28941935 15.11926083 196.28941935 15.11926083 194.49609375 17.24050903 C191.8579943 17.43721723 189.32464716 17.50804657 186.68540955 17.49206543 C185.46118037 17.49652064 185.46118037 17.49652064 184.2122193 17.50106585 C181.46164046 17.50873937 178.71127306 17.50219806 175.96069336 17.49588013 C173.99472915 17.49862855 172.02876605 17.50230754 170.06280518 17.5068512 C165.82030171 17.51497989 161.577851 17.51712741 157.3353405 17.51490402 C150.62427827 17.5120768 143.91332183 17.52640211 137.20228577 17.54388428 C118.11542361 17.5909637 99.02856799 17.61484437 79.94165039 17.62136841 C69.40676807 17.62512138 58.87200482 17.64317345 48.33717352 17.67646277 C41.66933816 17.69666947 35.00181007 17.69904992 28.3339566 17.68818259 C24.17728511 17.6855712 20.02079155 17.69960128 15.86416626 17.71826363 C13.94094555 17.7235763 12.01769189 17.72210468 10.09448433 17.71322823 C-3.30447511 17.35106725 -3.30447511 17.35106725 -15.50390625 22.24050903 C-16.57640625 22.94175903 -17.64890625 23.64300903 -18.75390625 24.36550903 C-27.51420769 33.524006 -27.22426548 43.71992968 -27.15087891 55.65847778 C-27.15766301 57.5156337 -27.16657058 59.37278287 -27.1774292 61.22991943 C-27.20013475 66.25066901 -27.19142239 71.27090224 -27.17553377 76.29166031 C-27.16282937 81.55872181 -27.17462747 86.82574062 -27.1824646 92.09280396 C-27.19154795 100.9360646 -27.17960773 109.77911611 -27.15576172 118.62234497 C-27.12855305 128.83015422 -27.13736814 139.03746404 -27.16489375 149.24526119 C-27.18762125 158.0269061 -27.19076709 166.80840112 -27.1777004 175.59006596 C-27.16992592 180.8273391 -27.16880909 186.06437788 -27.18538284 191.30163574 C-27.19988136 196.22669092 -27.18970779 201.15110543 -27.16091156 206.07609177 C-27.15432944 207.87795323 -27.15614893 209.67986909 -27.16722488 211.48170853 C-27.34010506 225.14364952 -27.34010506 225.14364952 -21.50390625 237.24050903 C-14.22105526 244.1620293 -6.94930892 246.69492109 2.91770935 246.63923645 C3.84657316 246.64588328 4.77543697 246.6525301 5.73244816 246.65937835 C8.83403301 246.67797894 11.93523109 246.675405 15.03686523 246.67288208 C17.26447595 246.68190101 19.49208169 246.69222855 21.71968079 246.70376587 C27.76040904 246.73134638 33.80104314 246.74062188 39.8418262 246.74661994 C46.15728916 246.7560008 52.47268172 246.782204 58.7881012 246.80662537 C69.38598441 246.84533994 79.98385611 246.87368964 90.58178711 246.89407349 C101.4955517 246.91509326 112.40927112 246.94237704 123.32299805 246.97805786 C123.99621998 246.98025669 124.66944192 246.98245551 125.36306452 246.98472097 C128.74057053 246.99579087 132.11807611 247.00698363 135.49558151 247.01823747 C163.49571262 247.11137501 191.49586896 247.1827736 219.49609375 247.24050903 C219.49609375 252.85050903 219.49609375 258.46050903 219.49609375 264.24050903 C190.67155741 264.33188895 161.84703825 264.40261443 133.02238541 264.44477035 C129.6142886 264.44977278 126.20619208 264.45495011 122.7980957 264.4602356 C122.11964557 264.46128484 121.44119544 264.46233408 120.74218621 264.46341512 C109.77722835 264.48078916 98.81235495 264.51231016 87.84744707 264.54912022 C76.58455856 264.58661342 65.321712 264.60846341 54.05875796 264.61686301 C47.7375061 264.6220678 41.41644537 264.63426093 35.0952549 264.66342926 C29.13877337 264.69069057 23.18256071 264.69893232 17.22602272 264.69293976 C15.04645321 264.6940352 12.86687419 264.70192476 10.68735886 264.71733093 C-5.98234067 264.82932812 -19.50848307 263.92389429 -32.50390625 252.24050903 C-41.90479255 242.67938035 -45.66081518 230.76237803 -45.64434814 217.58314514 C-45.64731927 216.83173376 -45.65029039 216.08032238 -45.65335155 215.30614096 C-45.66199478 212.79849375 -45.66354309 210.29089454 -45.66503906 207.78323364 C-45.66967043 205.98080342 -45.67469552 204.17837417 -45.68008423 202.37594604 C-45.69318176 197.48508895 -45.69964832 192.59424556 -45.70409489 187.70337367 C-45.70703062 184.64350562 -45.71113643 181.58364128 -45.71559906 178.5237751 C-45.72926865 168.93801642 -45.73893725 159.35226626 -45.74280095 149.76649851 C-45.74727685 138.72424576 -45.76480527 127.68211709 -45.79380155 116.63990206 C-45.81546829 108.09017688 -45.82550794 99.54048648 -45.82684207 90.99073416 C-45.82788676 85.89139216 -45.83372254 80.79216687 -45.85166168 75.69285393 C-45.86822829 70.89031288 -45.87025646 66.08797522 -45.86152267 61.28541565 C-45.86075681 59.5315655 -45.86503494 57.77770403 -45.87498093 56.02388191 C-45.96637564 38.89044126 -43.94088819 24.40890069 -31.875 11.38504028 C-22.50869244 2.91370116 -12.30986743 -0.08415477 0 0 Z " fill="#E4C05C" transform="translate(89.50390625,101.75949096679688)"/>
<path d="M0 0 C11.84817702 8.37514897 19.0656134 20.3245102 22.33984375 34.34375 C24.71369217 48.33696173 21.31958091 62.08281068 13.78515625 73.96875 C4.56461303 86.09868793 -7.00635104 94.05205277 -22.21484375 96.96875 C-37.91680033 98.41411839 -51.58777671 94.7561835 -64.27734375 85.46875 C-74.31066879 77.09447871 -81.4966014 64.95803165 -83.21484375 51.96875 C-84.14403833 36.96454244 -82.0402906 24.54780463 -73.21484375 11.96875 C-72.79847656 11.35644531 -72.38210938 10.74414062 -71.953125 10.11328125 C-54.5192808 -12.76536715 -22.93316226 -14.26146586 0 0 Z " fill="#FEFEFE" transform="translate(401.21484375,137.03125)"/>
<path d="M0 0 C1.57007813 0.49306641 1.57007813 0.49306641 3.171875 0.99609375 C21.62757107 7.37611308 34.52663972 20.29797124 44 37 C51.36368987 52.96336551 53.15473056 72.8471893 47.375 89.64453125 C46.92125 90.75183594 46.4675 91.85914063 46 93 C45.7421875 93.63599121 45.484375 94.27198242 45.21875 94.92724609 C37.51874594 113.3796285 24.59957585 125.27060104 6.56640625 133.640625 C-2.59366211 137.13208589 -10.94505422 138.5565963 -20.75 138.5 C-21.89090088 138.49500488 -23.03180176 138.49000977 -24.20727539 138.48486328 C-33.3324645 138.29690214 -40.68244786 136.93934316 -49 133 C-49.96421875 132.56558594 -50.9284375 132.13117188 -51.921875 131.68359375 C-69.8022465 122.81917228 -81.46464195 107.73778269 -87.99609375 89.16796875 C-93.71462341 70.91792433 -92.14000996 52.21705032 -83.3125 35.25 C-74.01470416 18.3631453 -59.38181162 5.38559628 -40.8203125 -0.390625 C-27.15826632 -4.1676495 -13.56636888 -4.47980363 0 0 Z M-53 26 C-53.65742188 26.47308594 -54.31484375 26.94617188 -54.9921875 27.43359375 C-64.44194418 34.84640288 -71.31156146 47.12871047 -73 59 C-73.11907649 61.78306682 -73.18505284 64.53008102 -73.1875 67.3125 C-73.19974609 68.03373047 -73.21199219 68.75496094 -73.22460938 69.49804688 C-73.2623853 83.53809716 -67.27461648 95.69795595 -58 106 C-45.92113578 117.16788842 -32.3026134 121.48310699 -16.08203125 121.33984375 C-2.81135046 120.57599515 10.36208817 113.63517513 19.375 104.015625 C29.79352059 91.09265235 34.26039353 77.52515957 33 61 C30.54340369 45.9301235 22.35495654 33.24961852 10.1875 24.1875 C-10.06061474 10.80476166 -33.57716458 11.79197731 -53 26 Z " fill="#F3D45B" transform="translate(391,113)"/>
<path d="M0 0 C0.11574903 13.75151022 0.20464222 27.50290493 0.25906086 41.2548027 C0.28517653 47.64009533 0.32061164 54.02505517 0.37719727 60.41015625 C0.43144509 66.56987029 0.46140568 72.72926385 0.47438622 78.8891983 C0.48363897 81.24162086 0.50170711 83.59402549 0.52865028 85.94631195 C0.56484312 89.23640622 0.56994925 92.52516902 0.56762695 95.81542969 C0.58560333 96.79222687 0.60357971 97.76902405 0.62210083 98.77542114 C0.57164346 105.36326807 0.57164346 105.36326807 -2.32844543 108.59356689 C-6.01390382 110.53376709 -7.87680985 110.76873037 -12 110 C-15.06734974 108.08636063 -17.46435718 105.55975353 -20 103 C-21.20633891 101.8052901 -22.41343427 100.61134375 -23.62109375 99.41796875 C-27.10177752 95.96585481 -30.55542051 92.48812052 -34 89 C-37.44893844 90.47971211 -39.64482454 92.42359532 -42.2578125 95.09765625 C-43.04800781 95.89880859 -43.83820313 96.69996094 -44.65234375 97.52539062 C-45.46832031 98.36263672 -46.28429687 99.19988281 -47.125 100.0625 C-48.75038706 101.72222622 -50.37788627 103.37988747 -52.0078125 105.03515625 C-52.72598145 105.7712915 -53.44415039 106.50742676 -54.18408203 107.26586914 C-56.70680919 109.67497522 -57.77309217 109.97431232 -61.3125 110.375 C-65 110 -65 110 -67.69102478 108.03689575 C-70.81023542 103.93433222 -70.70117934 101.05459586 -70.63110352 96.03466797 C-70.63825882 95.14142822 -70.64541412 94.24818848 -70.65278625 93.32788086 C-70.66966411 90.38212597 -70.65027918 87.43789459 -70.62890625 84.4921875 C-70.62973488 82.44385655 -70.63219406 80.39552566 -70.63621521 78.34719849 C-70.6390724 74.0582473 -70.62437684 69.76981859 -70.59692383 65.48095703 C-70.56279836 59.97809736 -70.56887441 54.47616932 -70.5875864 48.97326469 C-70.59814267 44.7456584 -70.58923177 40.51826978 -70.57420158 36.29068375 C-70.56901212 34.26125866 -70.5695108 32.23181091 -70.57574654 30.20238876 C-70.58118383 27.36994061 -70.56087322 24.53883788 -70.53344727 21.70654297 C-70.54323608 20.44410263 -70.54323608 20.44410263 -70.55322266 19.15615845 C-70.45962478 13.48487542 -70.45962478 13.48487542 -68.09214783 10.98733521 C-64.33044127 9.21209482 -61.05542193 9.1812998 -57 10 C-54.36058588 11.40741557 -51.92002984 13.01143009 -49.41796875 14.6484375 C-45.56548876 16.80184312 -43.34568735 16.72428122 -39 16 C-34.02007493 13.60963597 -31.56060788 10.19555422 -28.4296875 5.83984375 C-26.52583436 3.38980324 -24.8950697 2.1297833 -22 1 C-18.24064683 0.74073426 -15.57634313 0.80788562 -12 2 C-7.4719329 2.24698548 -3.86365743 0 0 0 Z " fill="#DF4D60" transform="translate(432,270)"/>
<path d="M0 0 C4.15037634 2.72830941 5.9172137 5.30032387 7.875 9.8125 C11.05349604 16.53908464 14.84109348 20.89406232 21 25 C24.12521833 25.16699232 24.12521833 25.16699232 27 25 C27.226875 23.7625 27.45375 22.525 27.6875 21.25 C28.4835054 18.11051018 29.00496919 16.99447867 31.25 14.5 C34.56945525 12.68938804 36.27235774 12.37872629 40 13 C43.25471822 15.01482556 44.87160672 16.79029097 46.875 20.0625 C51.38318978 26.29440939 59.92614307 27.07839154 67.0625 28.625 C68.02994141 28.8415625 68.99738281 29.058125 69.99414062 29.28125 C78.81378932 31.23714745 87.16863328 32.23573854 96.1875 32.51757812 C97.00476563 32.55173828 97.82203125 32.58589844 98.6640625 32.62109375 C99.40092285 32.6461499 100.1377832 32.67120605 100.89697266 32.69702148 C103.32582769 33.04694128 104.92336044 33.69642602 107 35 C109.09637701 38.14456551 109.36556445 40.16094676 109.65625 43.8671875 C108.57611985 47.37761047 106.09964616 49.27463062 103 51 C100.08701171 51.48853241 97.88973609 51.66970612 95 51.5625 C93.83791016 51.53869263 93.83791016 51.53869263 92.65234375 51.5144043 C76.08463577 50.89245884 55.84754047 47.69209928 41 40 C38.27295987 40.2821076 36.45102482 41.28592457 34 42.5625 C27.90875401 45.16559658 21.24048322 45.21518121 15.0625 42.8984375 C9.00210359 39.75039825 3.8935297 35.73929238 -1 31 C-1.24363281 31.73605469 -1.48726562 32.47210938 -1.73828125 33.23046875 C-5.24022372 40.9173951 -13.51388201 45.62329181 -20.6875 49.5625 C-21.30455811 49.90901611 -21.92161621 50.25553223 -22.55737305 50.61254883 C-26.85355197 52.85266241 -30.18967317 53.49560943 -35 53 C-37.75329021 51.20437595 -39.52627461 49.94745078 -41 47 C-41.375 44.1875 -41.375 44.1875 -41 41 C-37.3802352 36.67963557 -33.52106773 34.51045317 -28.5625 32.125 C-21.7471488 28.66841433 -17.55864401 25.50808707 -13.6875 18.6875 C-13.01493533 16.05838358 -12.81252885 13.70121346 -12.625 11 C-12.25955668 6.54159144 -11.35348193 4.1502406 -8 1 C-5.14675563 -0.42662219 -3.16545451 -0.31033868 0 0 Z " fill="#577782" transform="translate(129,278)"/>
<path d="M0 0 C1.0809494 -0.00571014 2.1618988 -0.01142029 3.27560425 -0.01730347 C4.46680374 -0.01842133 5.65800323 -0.01953918 6.88529968 -0.02069092 C8.76100647 -0.02813828 8.76100647 -0.02813828 10.67460632 -0.03573608 C14.11068005 -0.04785878 17.54669281 -0.05530667 20.98278069 -0.05974674 C23.12930264 -0.06267659 25.27581923 -0.06678125 27.42233849 -0.07125092 C34.13765447 -0.08492867 40.85295824 -0.09459363 47.56828719 -0.09845281 C55.32117339 -0.10293262 63.0738832 -0.12047563 70.82671577 -0.1494534 C76.81829576 -0.17107089 82.80982613 -0.18115714 88.80144471 -0.18249393 C92.38036671 -0.18354203 95.95912297 -0.18945065 99.53800392 -0.20731354 C103.53148215 -0.22685743 107.52459144 -0.22250502 111.51811218 -0.21600342 C113.29580238 -0.22982559 113.29580238 -0.22982559 115.10940552 -0.243927 C116.19881439 -0.23835785 117.28822327 -0.2327887 118.41064453 -0.22705078 C119.82677017 -0.22925062 119.82677017 -0.22925062 121.2715044 -0.2314949 C124.43179859 0.21640842 126.3217265 1.28263015 128.89579773 3.14044189 C130.49196516 6.33277675 130.41045887 9.67505686 129.89579773 13.14044189 C128.02564679 15.57163812 126.61441428 16.78113362 123.89579773 18.14044189 C122.19678007 18.2440528 120.49373971 18.28428336 118.79159546 18.29434204 C117.71064606 18.3029425 116.62969666 18.31154297 115.51599121 18.32040405 C113.72919197 18.32679398 113.72919197 18.32679398 111.90629578 18.33331299 C110.03058899 18.34557922 110.03058899 18.34557922 108.11698914 18.35809326 C103.96383487 18.38298043 99.81071704 18.39962083 95.65751648 18.41387939 C94.22809658 18.41923897 92.79867674 18.42461648 91.36925697 18.43001175 C85.42353406 18.45164057 79.47781387 18.47037751 73.53206158 18.48163414 C65.00945841 18.49787517 56.48731102 18.53105592 47.96487969 18.58803499 C41.97330329 18.62672835 35.98184882 18.64626606 29.99015075 18.6515547 C26.41109058 18.65520904 22.83251651 18.66723764 19.25359154 18.69965744 C15.25994615 18.73531538 11.26728091 18.73136891 7.27348328 18.72393799 C6.08835648 18.74034332 4.90322968 18.75674866 3.68218994 18.77365112 C-4.31245662 18.7126058 -4.31245662 18.7126058 -8.31140137 15.82272339 C-10.5837083 12.42303366 -11.17725911 10.23162467 -11.10420227 6.14044189 C-7.91308716 1.0786731 -5.78877681 0.01826142 0 0 Z " fill="#587883" transform="translate(99.10420227050781,224.85955810546875)"/>
<path d="M0 0 C1.07109009 -0.00860046 2.14218018 -0.01720093 3.24572754 -0.02606201 C5.0161441 -0.03245193 5.0161441 -0.03245193 6.82232666 -0.03897095 C8.06143799 -0.04714844 9.30054932 -0.05532593 10.57720947 -0.06375122 C14.69309158 -0.0886399 18.80893689 -0.10528053 22.92486572 -0.11953735 C24.34188087 -0.12489715 25.75889594 -0.13027466 27.17591095 -0.13566971 C33.07101942 -0.15730019 38.96612515 -0.17603623 44.86126328 -0.1872921 C53.30829317 -0.20352654 61.7548627 -0.23668938 70.20171905 -0.29369295 C76.14150681 -0.3324097 82.08117154 -0.35192688 88.02108216 -0.35721266 C91.56831825 -0.36086424 95.11506339 -0.37286321 98.66216278 -0.4053154 C102.62193766 -0.4410232 106.58113631 -0.43702068 110.54107666 -0.42959595 C111.71325745 -0.44600128 112.88543823 -0.46240662 114.09313965 -0.47930908 C122.95652535 -0.41119009 122.95652535 -0.41119009 126.66784668 2.5614624 C129.74601764 6.07277629 129.74601764 6.07277629 129.62799072 9.15390015 C129.63185791 9.79327515 129.6357251 10.43265015 129.63970947 11.09140015 C128.52409542 14.38214998 126.90045369 16.42143892 123.94049072 18.15390015 C119.80778931 18.91545433 115.71068394 18.82620047 111.51861572 18.78500366 C109.62762146 18.79573662 109.62762146 18.79573662 107.69842529 18.8066864 C104.24781369 18.8251799 100.7979761 18.81227587 97.34739685 18.7925961 C93.73291142 18.77619078 90.11847429 18.7850251 86.50396729 18.79011536 C80.43450582 18.79463425 74.36535274 18.77877951 68.29595947 18.75082397 C61.28336279 18.71877268 54.27132224 18.71878827 47.25868607 18.73603874 C40.50700166 18.75191411 33.75552074 18.74516388 27.00384521 18.72810173 C24.13310312 18.72123718 21.26252443 18.72225745 18.39178467 18.72964668 C14.38166521 18.73874519 10.37240173 18.71475264 6.36236572 18.68734741 C4.57771912 18.69713623 4.57771912 18.69713623 2.75701904 18.7071228 C-5.25017478 18.61394644 -5.25017478 18.61394644 -9.26556396 16.33149719 C-11.84190603 13.20418064 -12.19863263 11.18847732 -12.05950928 7.15390015 C-9.02984058 1.83118809 -5.94383754 0.03545068 0 0 Z " fill="#587883" transform="translate(100.05950927734375,153.84609985351563)"/>
<path d="M0 0 C1.10052704 -0.01272446 2.20105408 -0.02544891 3.33493042 -0.03855896 C4.53764084 -0.03203308 5.74035126 -0.0255072 6.97950745 -0.01878357 C8.24977783 -0.02739914 9.52004822 -0.03601471 10.82881165 -0.04489136 C14.3103409 -0.06739256 17.79141571 -0.0644441 21.27298999 -0.05556989 C24.18058483 -0.0504592 27.08809434 -0.05775323 29.99568039 -0.06504196 C36.85576244 -0.08204351 43.71562206 -0.078473 50.57569885 -0.06175232 C57.65024666 -0.04483172 64.72417743 -0.06066346 71.79865783 -0.0929752 C77.87524587 -0.11967657 83.95164189 -0.12694567 90.0282827 -0.11846012 C93.6564297 -0.11353223 97.28420547 -0.1157383 100.91230583 -0.13624763 C104.9585353 -0.15802558 109.00359601 -0.13920039 113.04981995 -0.11643982 C114.85084923 -0.13397812 114.85084923 -0.13397812 116.68826294 -0.15187073 C125.72190222 -0.04826657 125.72190222 -0.04826657 128.82315063 2.92300415 C131.55041102 6.94765331 131.26275962 8.73087308 130.57936096 13.5146637 C128.543434 16.17496776 127.35568266 17.35909135 124.03964329 18.02361488 C123.07641116 18.02772062 122.11317904 18.03182636 121.12075806 18.03605652 C120.01181686 18.05022614 118.90287567 18.06439575 117.7603302 18.07899475 C115.94223846 18.0715625 115.94223846 18.0715625 114.0874176 18.0639801 C112.80739365 18.07420197 111.52736969 18.08442383 110.20855713 18.09495544 C106.70018946 18.12172815 103.19225276 18.12289393 99.68380284 18.11782885 C96.75383616 18.11568887 93.82395659 18.12545747 90.89400858 18.13503969 C83.98119839 18.15722743 77.06860555 18.15810642 70.15577698 18.14601135 C63.02661778 18.1339295 55.8982478 18.15855841 48.76922327 18.20115149 C42.64592174 18.23638916 36.52287136 18.24838549 30.39947218 18.24187601 C26.7433005 18.23825071 23.08769181 18.24351638 19.43161201 18.27130508 C15.3541202 18.30113741 11.27823349 18.2825193 7.20069885 18.2592926 C5.38564346 18.28222382 5.38564346 18.28222382 3.53392029 18.30561829 C-4.38556 18.20568726 -4.38556 18.20568726 -7.30500984 16.25664902 C-9.8366871 13.43321147 -10.41774351 11.68260418 -10.48313904 7.8896637 C-8.66360207 2.10995802 -6.02343245 0.01768809 0 0 Z " fill="#547580" transform="translate(98.42063903808594,189.48533630371094)"/>
</svg>
