<?xml version="1.0" encoding="UTF-8"?>
<svg version="1.1" xmlns="http://www.w3.org/2000/svg" width="512" height="512">
<path d="M0 0 C1.3365287 -0.01469078 1.3365287 -0.01469078 2.70005798 -0.02967834 C22.60828118 -0.20334589 41.90456474 -0.03544421 61.4453125 4.23828125 C62.92451172 4.55974121 62.92451172 4.55974121 64.43359375 4.88769531 C113.29447026 15.88619536 161.14969796 42.34158506 193.4453125 81.23828125 C194.22777344 82.1096875 195.01023437 82.98109375 195.81640625 83.87890625 C224.76774894 116.38002403 243.92344787 159.36421165 250.4453125 202.23828125 C250.62046387 203.358396 250.79561523 204.47851074 250.97607422 205.63256836 C252.5800588 216.94273439 252.84456538 228.13833039 252.8203125 239.55078125 C252.81949677 240.99969254 252.81949677 240.99969254 252.81866455 242.47787476 C252.67723335 297.28359543 233.91294268 351.1405859 198.4453125 393.23828125 C198.00074707 393.77163086 197.55618164 394.30498047 197.09814453 394.85449219 C188.22536736 405.48522354 179.07675597 415.36819695 168.21484375 424.02734375 C166.40012249 425.47604929 164.60476024 426.94942113 162.83203125 428.44921875 C121.52207816 463.33317913 66.69507132 480.72710773 13.1328125 480.61328125 C12.16687164 480.61273743 11.20093079 480.6121936 10.20571899 480.6116333 C-5.69146444 480.57060916 -20.9742443 479.64585488 -36.5546875 476.23828125 C-37.54082031 476.02397461 -38.52695313 475.80966797 -39.54296875 475.58886719 C-80.68601851 466.32763679 -118.66455293 447.01341561 -149.5546875 418.23828125 C-150.94613416 417.02489906 -152.34177389 415.81630322 -153.7421875 414.61328125 C-160.23579506 408.92488103 -165.82997583 402.84849748 -171.23828125 396.11328125 C-172.72964128 394.26228465 -174.24130496 392.42737276 -175.77734375 390.61328125 C-186.48593264 377.92162035 -194.84788293 363.9027082 -202.5546875 349.23828125 C-202.90241211 348.58762695 -203.25013672 347.93697266 -203.60839844 347.26660156 C-214.77726192 326.11658788 -221.86063665 301.78641992 -225.5546875 278.23828125 C-225.73725098 277.08271729 -225.91981445 275.92715332 -226.10791016 274.73657227 C-227.70824137 263.46656388 -227.95385383 252.29750635 -227.9296875 240.92578125 C-227.92914368 239.95984039 -227.92859985 238.99389954 -227.92803955 237.99868774 C-227.88701541 222.10150431 -226.96226113 206.81872445 -223.5546875 191.23828125 C-223.34038086 190.25214844 -223.12607422 189.26601562 -222.90527344 188.25 C-213.64404304 147.10695024 -194.32982186 109.12841582 -165.5546875 78.23828125 C-164.34130531 76.84683459 -163.13270947 75.45119486 -161.9296875 74.05078125 C-123.16385022 29.67058133 -58.73818865 0.53610464 0 0 Z M7.0703125 111.61328125 C5.68026688 112.3565533 4.28961271 113.09868809 2.8984375 113.83984375 C2.17462891 114.23333008 1.45082031 114.62681641 0.70507812 115.03222656 C-2.39066385 116.6844484 -5.53841906 118.22170946 -8.68920898 119.765625 C-16.35571727 123.52936125 -23.8952688 127.47793363 -31.3671875 131.61328125 C-41.81087302 137.3906392 -52.42307787 142.8172198 -63.0546875 148.23828125 C-74.51772525 154.08487784 -85.9472435 159.95637613 -97.20092773 166.19946289 C-101.55512236 168.6135453 -105.93048779 170.9632087 -110.36328125 173.23046875 C-111.80840088 173.9718811 -111.80840088 173.9718811 -113.28271484 174.72827148 C-115.10826236 175.66054291 -116.93775077 176.58515735 -118.77197266 177.50024414 C-125.60193185 180.99340366 -130.82673168 184.77229689 -133.5546875 192.23828125 C-134.38325792 197.67451157 -133.83912108 202.51362028 -131.01660156 207.28710938 C-125.73931399 214.33054329 -115.60013596 217.9427586 -107.89013672 221.84020996 C-104.40340653 223.60356295 -100.9263064 225.38569575 -97.44921875 227.16796875 C-96.75913727 227.52137329 -96.06905579 227.87477783 -95.35806274 228.2388916 C-89.86860186 231.0581532 -84.44952931 233.99192283 -79.0546875 236.98828125 C-68.84293306 242.64325768 -58.45177147 247.93518458 -48.0546875 253.23828125 C-37.36728282 258.6898837 -26.69263254 264.14255708 -16.1796875 269.92578125 C-14.91185425 270.6226001 -14.91185425 270.6226001 -13.6184082 271.33349609 C-10.46241611 273.07284046 -7.30986912 274.81825672 -4.16064453 276.56982422 C-1.86006429 277.84478212 0.44793238 279.10527166 2.7578125 280.36328125 C3.73596924 280.91375122 3.73596924 280.91375122 4.73388672 281.4753418 C11.12087652 284.92993486 17.11167926 287.17687646 24.3359375 285.203125 C29.88480033 283.25118308 35.02774938 280.5888639 40.1953125 277.80078125 C41.20062012 277.26783447 42.20592773 276.7348877 43.24169922 276.18579102 C50.59673906 272.27327844 57.89264138 268.25408356 65.18847656 264.23266602 C75.15108592 258.78246102 85.27725029 253.65264954 95.39065552 248.48999023 C105.70337736 243.22330272 115.94544218 237.86535454 126.07568359 232.25317383 C131.99948466 228.98468959 138.00299611 225.91860501 144.0703125 222.92578125 C158.98155516 216.27526461 158.98155516 216.27526461 170.4453125 205.23828125 C172.19524115 199.9884953 172.45001847 194.24214706 170.6796875 188.94921875 C165.46476391 179.43749193 152.98412896 175.35663205 143.70532227 170.63635254 C134.04443626 165.71907538 124.42483181 160.74860344 114.9453125 155.48828125 C103.88645474 149.36479929 92.6168361 143.65986986 81.35684204 137.91842651 C71.54704542 132.91424112 61.77357354 127.87531166 52.1328125 122.55078125 C48.90461726 120.7781727 45.67514096 119.00791175 42.4453125 117.23828125 C41.21965576 116.56321533 41.21965576 116.56321533 39.96923828 115.87451172 C37.55580137 114.55675717 35.12854949 113.26902586 32.6953125 111.98828125 C31.658302 111.41267456 31.658302 111.41267456 30.6003418 110.82543945 C22.46837441 106.62591054 14.90802457 107.1483637 7.0703125 111.61328125 Z M-133.5546875 222.23828125 C-133.5546875 243.35828125 -133.5546875 264.47828125 -133.5546875 286.23828125 C-136.0296875 287.22828125 -136.0296875 287.22828125 -138.5546875 288.23828125 C-142.76831033 292.80303932 -143.65417908 296.02338394 -143.78515625 302.203125 C-143.68738514 304.29012376 -143.68738514 304.29012376 -142.5 306.046875 C-141.08805634 309.32001712 -141.74338926 311.86108084 -142.2421875 315.36328125 C-142.33741699 316.05832764 -142.43264648 316.75337402 -142.53076172 317.46948242 C-143.1795942 322.07639802 -143.96647346 326.65555054 -144.77416992 331.23681641 C-147.23722861 343.97508209 -147.23722861 343.97508209 -145.4296875 356.61328125 C-142.13706177 361.22295727 -138.09526954 364.78717643 -132.5546875 366.23828125 C-126.28916217 366.85456243 -121.69651652 366.01774532 -116.5546875 362.23828125 C-112.2584641 357.55922606 -110.28067074 353.27573355 -110.36328125 346.8203125 C-110.78977439 341.06700709 -111.99933032 335.40298222 -113.0546875 329.73828125 C-116.73091583 310.00587731 -116.73091583 310.00587731 -114.4921875 304.73828125 C-113.10588222 301.04146718 -113.26949997 297.89972699 -114.5546875 294.23828125 C-116.58837236 291.25384872 -118.82500255 288.60863123 -121.5546875 286.23828125 C-122.2146875 286.23828125 -122.8746875 286.23828125 -123.5546875 286.23828125 C-123.5546875 266.76828125 -123.5546875 247.29828125 -123.5546875 227.23828125 C-126.8546875 225.58828125 -130.1546875 223.93828125 -133.5546875 222.23828125 Z M-94.5546875 243.23828125 C-94.67088059 251.70535852 -94.75955284 260.17209898 -94.81374836 268.63977814 C-94.83976852 272.57231441 -94.87502523 276.50430256 -94.93188477 280.43652344 C-94.98647903 284.23615351 -95.01616498 288.03525863 -95.02907372 291.83525085 C-95.03826487 293.28008786 -95.05621306 294.72489828 -95.08333778 296.16950989 C-95.30866133 307.64824579 -95.30866133 307.64824579 -89.5546875 317.23828125 C-81.75625594 323.80051511 -71.72456563 327.91353252 -62.6796875 332.48828125 C-60.16126603 333.77008859 -57.64389077 335.05393466 -55.1265564 336.33787537 C-53.4848088 337.17506495 -51.84274313 338.01163109 -50.2003479 338.84754944 C-44.50401247 341.74763659 -38.82803138 344.68312088 -33.1796875 347.67578125 C-32.47884033 348.04654785 -31.77799316 348.41731445 -31.0559082 348.79931641 C-29.6512504 349.54258533 -28.24670939 350.28607499 -26.84228516 351.02978516 C-20.25343016 354.51055701 -13.64869903 357.96065564 -7.03125 361.38671875 C-3.63033045 363.1480147 -0.25112977 364.9402289 3.109375 366.77734375 C4.49206709 367.5145488 5.87487101 368.25154416 7.2578125 368.98828125 C7.84844482 369.32359863 8.43907715 369.65891602 9.04760742 370.00439453 C14.13417558 372.66793269 18.85329657 373.05973761 24.4453125 372.23828125 C27.73482606 371.16406951 30.666336 369.64949332 33.6953125 367.98828125 C34.54738281 367.54226563 35.39945313 367.09625 36.27734375 366.63671875 C39.01378881 365.19480738 41.73101836 363.72142851 44.4453125 362.23828125 C45.34958984 361.74650391 46.25386719 361.25472656 47.18554688 360.74804688 C50.87199624 358.74083423 54.55564206 356.72880056 58.23144531 354.70214844 C64.23569755 351.40118247 70.29794668 348.26346604 76.4453125 345.23828125 C84.55178953 341.24592397 92.50268481 337.01277433 100.41015625 332.63989258 C104.70892047 330.26444153 109.01278857 327.92669079 113.40234375 325.72265625 C114.17231689 325.33215088 114.94229004 324.94164551 115.7355957 324.53930664 C117.14817772 323.82747518 118.56684013 323.12750431 119.99291992 322.44311523 C125.73248334 319.53212304 130.37054212 315.46259239 132.4453125 309.23828125 C132.53473703 307.10676398 132.56290149 304.97249974 132.55883789 302.83911133 C132.55905693 301.87285072 132.55905693 301.87285072 132.5592804 300.8870697 C132.55858445 298.76061623 132.55080698 296.63425065 132.54296875 294.5078125 C132.54110344 293.03236438 132.53968007 291.55691564 132.53868103 290.08146667 C132.53486476 286.2000253 132.52504206 282.3186214 132.51397705 278.43719482 C132.50374381 274.47571317 132.49917931 270.51422544 132.49414062 266.55273438 C132.483419 258.78123292 132.46635325 251.00976234 132.4453125 243.23828125 C128.91435923 244.39086628 125.64951744 245.51848599 122.41796875 247.35546875 C121.64557861 247.78746582 120.87318848 248.21946289 120.07739258 248.66455078 C119.22943115 249.14263184 118.38146973 249.62071289 117.5078125 250.11328125 C105.1138232 256.99171183 92.49707523 263.41944152 79.86938477 269.85498047 C71.64062827 274.05052674 63.42821003 278.2733279 55.25390625 282.57421875 C54.49145096 282.97528839 53.72899567 283.37635803 52.94343567 283.7895813 C46.84054283 287.01000251 40.7831936 290.3096772 34.7421875 293.64453125 C25.43887091 298.14186913 17.00128874 298.34725518 7.29370117 295.30200195 C1.79282798 293.24772026 -3.32087815 290.43838406 -8.4921875 287.67578125 C-9.69455858 287.0416675 -10.89736412 286.4083769 -12.10058594 285.77587891 C-14.49200446 284.51702172 -16.88081831 283.25344975 -19.26708984 281.98486328 C-22.85843332 280.07691205 -26.45741665 278.18393062 -30.05810547 276.29370117 C-32.31771829 275.10643449 -34.57494498 273.91471782 -36.83203125 272.72265625 C-40.23436322 270.92868626 -43.64438071 269.15015859 -47.05859375 267.37890625 C-57.89592337 261.75442294 -68.6765374 256.04514277 -79.37426758 250.15869141 C-86.62389109 245.46809143 -86.62389109 245.46809143 -94.5546875 243.23828125 Z " fill="#000000" transform="translate(243.5546875,15.76171875)"/>
</svg>
