<?xml version="1.0" encoding="UTF-8"?>
<svg version="1.1" xmlns="http://www.w3.org/2000/svg" width="512" height="512">
<path d="M0 0 C1.59353199 -0.00461324 3.18705972 -0.01096899 4.78057861 -0.01890898 C9.14399307 -0.03556741 13.50705643 -0.02737187 17.87047195 -0.0149641 C22.58221026 -0.00590163 27.29388885 -0.01988928 32.00561523 -0.03088379 C41.22976757 -0.0486608 50.45378963 -0.04483266 59.67794704 -0.03323323 C67.17528285 -0.02419597 74.67258218 -0.02297617 82.16992188 -0.02732849 C83.2373934 -0.02794142 84.30486492 -0.02855436 85.40468407 -0.02918586 C87.57330069 -0.03046478 89.7419173 -0.03176163 91.91053391 -0.03307623 C112.24082314 -0.04447963 132.5710402 -0.03137206 152.9013176 -0.00987476 C170.34179995 0.00799599 187.78217581 0.00489182 205.22265625 -0.0135498 C225.48070021 -0.03496073 245.73868093 -0.04338102 265.99673462 -0.03110075 C268.15732828 -0.02982657 270.31792195 -0.02856908 272.47851562 -0.02732849 C273.54154089 -0.02671139 274.60456615 -0.02609429 275.69980431 -0.02545848 C283.18725478 -0.02200626 290.67466512 -0.0278312 298.16210938 -0.0372467 C307.28807888 -0.04847051 316.41391078 -0.04541855 325.53986454 -0.02412373 C330.19518163 -0.01361851 334.85026937 -0.00948252 339.50558472 -0.02272034 C343.76923138 -0.03466095 348.03243663 -0.02805429 352.2960434 -0.00681013 C353.83629674 -0.00235113 355.37658757 -0.00459457 356.91681671 -0.01431328 C367.19803927 -0.07419797 375.10235564 0.72935408 383.13671875 7.57043457 C391.70141678 17.03073585 390.90515112 29.27923352 390.85766602 41.21057129 C390.86473379 43.08583756 390.8734824 44.96109813 390.8837738 46.83634949 C390.9061701 51.90001638 390.90335266 56.96336931 390.89445233 62.02706671 C390.88932677 66.25968279 390.89664694 70.49224069 390.90392441 74.72485077 C390.92088917 84.70565752 390.91738834 94.68631121 390.90063477 104.66711426 C390.88367782 114.96193939 390.89960479 125.2563416 390.93185765 135.55112064 C390.95853146 144.4006361 390.96583667 153.25001972 390.95734257 162.09957135 C390.95241172 167.38083686 390.95463911 172.66184735 390.97513008 177.9430809 C390.99345508 182.90258461 390.98756755 187.861477 390.96293068 192.82094765 C390.95791458 194.64104341 390.96143324 196.46118554 390.97407913 198.28124428 C390.98997129 200.76473052 390.97509789 203.24619358 390.95240784 205.72958374 C390.96424357 206.45068734 390.97607929 207.17179094 390.98827368 207.91474617 C390.91643957 211.78054614 390.39533964 213.4176289 387.97245693 216.4940815 C385.32421875 218.50793457 385.32421875 218.50793457 382.32421875 218.50793457 C382.32421875 224.77793457 382.32421875 231.04793457 382.32421875 237.50793457 C384.30421875 238.16793457 386.28421875 238.82793457 388.32421875 239.50793457 C390.86060444 242.7049983 390.55551998 246.06479921 390.51953125 250.02355957 C390.51308594 251.2739502 390.50664062 252.52434082 390.5 253.81262207 C390.48324219 255.1145752 390.46648437 256.41652832 390.44921875 257.75793457 C390.43568359 259.73406738 390.43568359 259.73406738 390.421875 261.75012207 C390.39830408 265.00290919 390.36539897 268.25533046 390.32421875 271.50793457 C390.91952393 271.42269531 391.5148291 271.33745605 392.12817383 271.24963379 C400.09454837 270.21529196 400.09454837 270.21529196 404.01171875 271.63293457 C404.69621094 271.8623877 405.38070313 272.09184082 406.0859375 272.32824707 C413.49991231 276.23578702 416.70050105 281.90877323 420.63671875 289.07043457 C421.17361328 290.01596191 421.71050781 290.96148926 422.26367188 291.93566895 C426.56647243 299.61342782 428.56676876 305.77331353 426.93359375 314.62512207 C424.31723063 323.24570312 416.76614689 327.37353005 409.32421875 331.50793457 C407.52419492 344.96338771 407.52419492 344.96338771 411.33984375 357.12512207 C413.94913043 358.50788777 416.55862104 359.48425064 419.32421875 360.50793457 C424.12178022 364.62567964 426.88768293 369.2536946 427.5390625 375.60168457 C428.05817405 387.72813047 420.27174473 399.05438831 413.32421875 408.50793457 C408.20520603 413.90943462 403.00566263 415.1922988 395.70703125 415.59777832 C393.32421875 415.50793457 393.32421875 415.50793457 390.32421875 414.50793457 C390.32421875 418.13793457 390.32421875 421.76793457 390.32421875 425.50793457 C391.85232178 425.4869873 393.3804248 425.46604004 394.95483398 425.44445801 C400.6520034 425.37177752 406.34913222 425.32603247 412.04663086 425.28820801 C414.50731307 425.26815645 416.967948 425.2409081 419.4284668 425.20617676 C422.97586773 425.15737577 426.52263582 425.13490029 430.0703125 425.11730957 C431.16129745 425.09666443 432.25228241 425.07601929 433.37632751 425.05474854 C442.05624574 425.05222795 448.49185082 426.87609803 455.13671875 432.57043457 C462.41578165 440.5241832 462.94163323 450.66709456 462.76171875 460.94543457 C462.76880859 462.08303223 462.77589844 463.22062988 462.78320312 464.3927002 C462.67503691 478.97849777 458.94733136 490.2482129 449.26171875 501.25793457 C440.86531038 509.19426577 429.8346573 512.66005451 418.58726501 512.64837646 C417.6957496 512.65134759 416.80423418 512.65431871 415.88570315 512.65737987 C412.89246125 512.66606539 409.89925936 512.66757497 406.90600586 512.66906738 C404.7625266 512.6736955 402.61904816 512.67872015 400.47557068 512.68411255 C394.64934595 512.69723535 388.82313275 512.70368076 382.99689555 512.70812321 C379.35987807 512.71105287 375.72286375 512.71515738 372.08584785 512.71962738 C360.71462104 512.73329923 349.34340143 512.74296859 337.97216696 512.74682927 C324.8294239 512.75131563 311.68678455 512.76889164 298.54407305 512.79782987 C288.39370888 512.81940699 278.24337399 512.82953135 268.09298712 512.83087039 C262.0259039 512.83192086 255.95891821 512.83788046 249.89185905 512.85569 C244.18981487 512.87210311 238.48794226 512.87435925 232.78588295 512.86555099 C230.68919797 512.8647771 228.59250401 512.86916936 226.49584198 512.87900925 C223.64174995 512.89162228 220.78827555 512.88591042 217.93418884 512.87542725 C217.09742912 512.88348365 216.26066939 512.89154006 215.39855331 512.89984059 C209.75391789 512.85108201 209.75391789 512.85108201 207.65155894 511.17218852 C206.32421875 509.50793457 206.32421875 509.50793457 205.32421875 506.50793457 C199.05421875 506.17793457 192.78421875 505.84793457 186.32421875 505.50793457 C185.99421875 507.15793457 185.66421875 508.80793457 185.32421875 510.50793457 C181.7489473 512.89144887 179.21651737 512.79372798 175.09008789 512.77536011 C174.34799576 512.77989122 173.60590363 512.78442233 172.84132385 512.78909075 C170.34727813 512.80178067 167.8534495 512.8001114 165.359375 512.79846191 C163.57384458 512.80444462 161.78831676 512.81124956 160.00279236 512.81881714 C155.14493456 512.83651835 150.28714718 512.84117447 145.42926025 512.84244871 C142.39236721 512.84386943 139.35549211 512.84813768 136.31860352 512.85344315 C125.71776187 512.87196248 115.11697057 512.88011206 104.51611328 512.87854004 C94.64653103 512.87734062 84.77716818 512.89839892 74.90764141 512.93002737 C66.42848784 512.95622811 57.9494057 512.96690562 49.47021198 512.96562922 C44.40886548 512.96512037 39.34771354 512.97075999 34.28640747 512.99198532 C29.51914574 513.01142969 24.75226278 513.01144992 19.98498726 512.99695206 C18.24158738 512.99486999 16.49816343 512.99952872 14.75480461 513.01167297 C0.14867438 513.10677112 -11.86260109 510.81112962 -22.8359375 500.47277832 C-34.12107459 488.51264238 -35.98174242 475.88356075 -35.94320679 459.9821167 C-35.94694776 458.51360617 -35.95155105 457.04509762 -35.95693743 455.57659221 C-35.96912647 451.55899767 -35.96891186 447.54148665 -35.96654868 443.52387786 C-35.96613951 439.18441861 -35.97718886 434.84498578 -35.98666382 430.50553894 C-36.00324943 422.01269151 -36.00877215 413.51987185 -36.00988857 405.02700958 C-36.01083967 398.12604223 -36.014953 391.22508402 -36.02128983 384.32411957 C-36.03889117 364.757794 -36.04812977 345.19149034 -36.04662888 325.62515679 C-36.04654897 324.57117561 -36.04646905 323.51719442 -36.04638672 322.43127441 C-36.04630496 321.37600724 -36.0462232 320.32074006 -36.04613896 319.23349509 C-36.04532511 302.11081205 -36.06449059 284.98821677 -36.09266345 267.86555913 C-36.12136438 250.28338085 -36.13520547 232.70124543 -36.1334759 215.11904311 C-36.13281131 205.2480077 -36.13833466 195.37706444 -36.159832 185.50605011 C-36.1780065 177.10717471 -36.18242151 168.70843331 -36.16881315 160.3095468 C-36.16226618 156.02330698 -36.16222859 151.73732454 -36.17951965 147.45110893 C-36.19517816 143.5293852 -36.19246151 139.60812448 -36.17495139 135.68641254 C-36.17186561 134.26600778 -36.17557296 132.84556906 -36.18667154 131.42520431 C-36.20073924 129.49758274 -36.1878455 127.56982043 -36.17355919 125.64220047 C-36.17399392 124.57057199 -36.17442866 123.49894351 -36.17487657 122.39484143 C-35.54816466 118.76976455 -34.2421435 117.10133576 -31.67578125 114.50793457 C-30.19078125 114.01293457 -30.19078125 114.01293457 -28.67578125 113.50793457 C-28.34578125 107.23793457 -28.01578125 100.96793457 -27.67578125 94.50793457 C-29.32578125 94.17793457 -30.97578125 93.84793457 -32.67578125 93.50793457 C-35.11414553 91.24231612 -35.62857899 89.86718413 -36.0634613 86.55735779 C-36.06886429 85.40917068 -36.07426727 84.26098358 -36.07983398 83.07800293 C-36.09251816 81.77241928 -36.10520233 80.46683563 -36.11827087 79.12168884 C-36.11621801 77.69705039 -36.11322881 76.27241303 -36.109375 74.84777832 C-36.11394013 73.37768819 -36.11924669 71.90760018 -36.1252594 70.43751526 C-36.13419435 67.35323435 -36.13176741 64.26921223 -36.12182617 61.18493652 C-36.11040013 57.26004076 -36.13044645 53.33605327 -36.15974331 49.41127682 C-36.17823436 46.37146956 -36.17778636 43.3318741 -36.17210579 40.29202461 C-36.1719538 38.84694721 -36.17789574 37.40185431 -36.19039726 35.95683098 C-36.26687061 25.65849251 -35.75747144 15.54834841 -28.48828125 7.57043457 C-19.80219146 0.17809939 -10.97109098 -0.06922665 0 0 Z " fill="#F7F4F4" transform="translate(42.67578125,-0.5079345703125)"/>
<path d="M0 0 C3.4375 1.75 3.4375 1.75 5.4375 4.75 C5.68655568 7.40018326 5.68655568 7.40018326 5.68524647 10.66661167 C5.68962847 11.90999005 5.69401046 13.15336843 5.69852525 14.43442494 C5.6932933 15.82180822 5.6878877 17.20919087 5.68232727 18.59657288 C5.68374893 20.06458994 5.68606086 21.53260637 5.68918961 23.00062078 C5.69530733 27.04493337 5.68903345 31.08914821 5.680879 35.13345373 C5.67430432 39.49151005 5.67929544 43.84955366 5.68310547 48.20761108 C5.68833459 55.76391014 5.68682817 63.32018358 5.68132973 70.87648201 C5.67312451 82.82184576 5.68433713 94.76715408 5.6985321 106.71250916 C5.70313354 110.79840552 5.70758385 114.88430203 5.71197033 118.97019863 C5.71306847 119.99139084 5.71416661 121.01258305 5.71529803 122.06472047 C5.72747734 133.69443062 5.73502541 145.32414256 5.7409668 156.95385742 C5.74178889 158.54885222 5.74178889 158.54885222 5.74262758 160.17606913 C5.7510828 177.39918768 5.74775112 194.62229059 5.74181245 211.84540922 C5.7361939 229.52576077 5.74973589 247.20603358 5.77936524 264.88636106 C5.79690509 275.79230632 5.79854096 286.69802399 5.77972009 297.6039682 C5.76810931 305.08141702 5.77457028 312.55871239 5.7951893 320.03614128 C5.80650362 324.34933095 5.80969851 328.66212511 5.79101372 332.97529793 C5.77404994 336.92784398 5.78026093 340.87966649 5.80451228 344.83216827 C5.80922328 346.25822071 5.80557453 347.68433186 5.79248682 349.11033202 C5.71008656 358.75924559 6.69477512 366.5395274 13.38134462 373.88555485 C19.37249502 379.66282363 25.12707902 381.85298356 33.375 382.1875 C41.64842019 381.94784173 47.8867756 378.95732248 53.9375 373.3828125 C62.65133894 363.89743574 61.77788691 352.11531614 61.828125 340.06445312 C61.99927578 331.16936684 63.07122878 324.53758907 69.625 318 C70.13417969 317.46890625 70.64335938 316.9378125 71.16796875 316.390625 C77.9475369 311.48973236 84.40234923 310.16334604 92.63111877 310.26898193 C93.61886116 310.26556423 94.60660355 310.26214653 95.62427753 310.25862527 C98.91331235 310.25206955 102.20151967 310.27398478 105.49047852 310.29589844 C107.85630779 310.29702741 110.22213846 310.29639208 112.58796692 310.29412842 C118.99644386 310.29298231 125.4046204 310.31647548 131.81302762 310.34442425 C137.83597535 310.36883615 143.85895671 310.3709198 149.88194477 310.37503174 C161.80652552 310.3837722 173.73099642 310.41035371 185.65551758 310.44824219 C197.23461358 310.48499472 208.81367967 310.51329057 220.39282227 310.53027344 C221.10733669 310.53132433 221.82185112 310.53237523 222.5580175 310.53345796 C226.1427587 310.53867836 229.72750012 310.54373313 233.31224167 310.54870558 C263.02073391 310.59012867 292.72911172 310.66084163 322.4375 310.75 C322.1890678 307.82388713 322.1890678 307.82388713 321.4375 304.75 C318.95245235 303.03834474 316.8250485 301.80770478 314.125 300.5625 C312.77329914 299.90529816 311.4229958 299.24521293 310.07421875 298.58203125 C309.43661621 298.27604004 308.79901367 297.97004883 308.14208984 297.65478516 C306.4375 296.75 306.4375 296.75 304.20703125 294.94921875 C302.52026918 293.53788219 302.52026918 293.53788219 300.46875 293.90234375 C298.16341443 294.86437802 296.09356363 296.05120278 293.9375 297.3125 C288.10036019 300.26550731 282.88020837 300.85192529 276.4375 299.75 C267.23629623 296.1607701 262.66653671 287.8299435 258.1875 279.5625 C257.74148438 278.75619141 257.29546875 277.94988281 256.8359375 277.11914062 C253.20399881 270.49910693 251.5059763 265.39071222 252.4375 257.75 C254.94733759 249.84913372 260.53635238 245.85404531 267.4375 241.75 C268.0975 241.42 268.7575 241.09 269.4375 240.75 C269.46255615 240.17032471 269.4876123 239.59064941 269.51342773 238.9934082 C269.62996234 236.34957893 269.75242682 233.70605591 269.875 231.0625 C269.93397461 229.69448242 269.93397461 229.69448242 269.99414062 228.29882812 C270.03603516 227.41259766 270.07792969 226.52636719 270.12109375 225.61328125 C270.15775146 224.80157471 270.19440918 223.98986816 270.23217773 223.15356445 C270.44787431 220.62855515 270.89649452 218.22399303 271.4375 215.75 C270.7053125 215.4715625 269.973125 215.193125 269.21875 214.90625 C261.70734602 211.78353149 256.47720694 208.01409783 253.26953125 200.36328125 C250.92378998 192.99567133 251.95385321 188.21741389 255.36376953 181.39160156 C266.08033802 161.12833846 266.08033802 161.12833846 276.4375 156.75 C284.62601051 155.48461353 290.19896373 157.03096057 297.0625 161.53515625 C299.27161145 162.90907215 299.27161145 162.90907215 301.3125 162.6796875 C304.48943194 161.28977978 307.45712145 159.57391619 310.4375 157.8125 C317.3082714 153.79496735 317.3082714 153.79496735 319.83984375 152.9140625 C321.79446173 151.7752445 321.79446173 151.7752445 321.94140625 148.73828125 C321.96074219 147.52527344 321.98007812 146.31226563 322 145.0625 C322.33391995 137.8053064 322.95300118 133.55302431 327.875 128 C335.17427179 121.5908833 340.45141474 121.48372007 350.04174805 121.39990234 C351.42180316 121.38340573 352.80177506 121.35619846 354.18139648 121.31787109 C362.45236414 121.08969279 369.11368161 120.92997673 375.4375 126.75 C379.90149857 131.13367699 382.30603359 135.21269826 382.6328125 141.51953125 C382.61966327 142.86732715 382.5960249 144.21505695 382.5625 145.5625 C382.55347656 146.25537109 382.54445313 146.94824219 382.53515625 147.66210938 C382.51176157 149.35822395 382.47589641 151.05415871 382.4375 152.75 C383.13230469 152.84152344 383.82710938 152.93304688 384.54296875 153.02734375 C388.0589586 153.90515498 390.65272346 155.44051967 393.75 157.3125 C394.81863281 157.95316406 395.88726562 158.59382812 396.98828125 159.25390625 C397.79652344 159.74761719 398.60476563 160.24132812 399.4375 160.75 C399.4060791 159.33521362 399.4060791 159.33521362 399.37402344 157.8918457 C399.30568572 154.37872476 399.25562253 150.86631415 399.21777344 147.3527832 C399.19770797 145.8347659 399.17044866 144.31682541 399.13574219 142.79907227 C399.08699607 140.61194878 399.06448195 138.42585048 399.046875 136.23828125 C399.02592773 134.92384033 399.00498047 133.60939941 398.98339844 132.25512695 C399.51032765 128.18785667 400.52085686 126.57924938 403.4375 123.75 C407.09644163 122.50440285 408.70473968 122.42432875 412.25 124 C414.4375 125.75 414.4375 125.75 415.4375 128.75 C415.5208804 130.88794525 415.54483747 133.02842009 415.53515625 135.16796875 C415.53193359 136.42158203 415.52871094 137.67519531 415.52539062 138.96679688 C415.51701172 140.27712891 415.50863281 141.58746094 415.5 142.9375 C415.49498317 144.27278481 415.49042059 145.60807141 415.48632812 146.94335938 C415.47452695 150.21228473 415.45806297 153.48111991 415.4375 156.75 C416.03280518 156.66476074 416.62811035 156.57952148 417.24145508 156.49169922 C425.20782962 155.45735739 425.20782962 155.45735739 429.125 156.875 C429.80949219 157.10445312 430.49398438 157.33390625 431.19921875 157.5703125 C438.61319356 161.47785245 441.8137823 167.15083866 445.75 174.3125 C446.28689453 175.25802734 446.82378906 176.20355469 447.37695312 177.17773438 C451.67975368 184.85549325 453.68005001 191.01537896 452.046875 199.8671875 C449.43051188 208.48776855 441.87942814 212.61559548 434.4375 216.75 C432.63747617 230.20545314 432.63747617 230.20545314 436.453125 242.3671875 C439.06241168 243.7499532 441.67190229 244.72631607 444.4375 245.75 C449.23506147 249.86774507 452.00096418 254.49576003 452.65234375 260.84375 C453.1714553 272.97019589 445.38502598 284.29645374 438.4375 293.75 C433.31848728 299.15150005 428.11894388 300.43436423 420.8203125 300.83984375 C418.4375 300.75 418.4375 300.75 415.4375 299.75 C415.4375 303.38 415.4375 307.01 415.4375 310.75 C416.96560303 310.72905273 418.49370605 310.70810547 420.06811523 310.68652344 C425.76528465 310.61384295 431.46241347 310.5680979 437.15991211 310.53027344 C439.62059432 310.51022188 442.08122925 310.48297353 444.54174805 310.44824219 C448.08914898 310.3994412 451.63591707 310.37696572 455.18359375 310.359375 C456.2745787 310.33872986 457.36556366 310.31808472 458.48960876 310.29681396 C467.16952699 310.29429338 473.60513207 312.11816346 480.25 317.8125 C487.5290629 325.76624863 488.05491448 335.90915999 487.875 346.1875 C487.88208984 347.32509766 487.88917969 348.46269531 487.89648438 349.63476562 C487.78831816 364.2205632 484.06061261 375.49027833 474.375 386.5 C465.97859163 394.4363312 454.94793855 397.90211994 443.70054626 397.89044189 C442.80903085 397.89341302 441.91751543 397.89638414 440.9989844 397.8994453 C438.0057425 397.90813082 435.01254061 397.9096404 432.01928711 397.91113281 C429.87580785 397.91576092 427.73232941 397.92078558 425.58885193 397.92617798 C419.7626272 397.93930078 413.936414 397.94574619 408.1101768 397.95018864 C404.47315932 397.9531183 400.836145 397.95722281 397.1991291 397.96169281 C385.82790229 397.97536466 374.45668268 397.98503402 363.08544821 397.9888947 C349.94270515 397.99338106 336.8000658 398.01095707 323.6573543 398.0398953 C313.50699013 398.06147242 303.35665524 398.07159678 293.20626837 398.07293582 C287.13918515 398.07398629 281.07219946 398.07994589 275.0051403 398.09775543 C269.30309612 398.11416854 263.60122351 398.11642468 257.8991642 398.10761642 C255.80247922 398.10684253 253.70578526 398.11123479 251.60912323 398.12107468 C248.7550312 398.13368771 245.9015568 398.12797585 243.04747009 398.11749268 C242.21071037 398.12554908 241.37395064 398.13360548 240.51183456 398.14190602 C234.86719914 398.09314744 234.86719914 398.09314744 232.76484019 396.41425395 C231.4375 394.75 231.4375 394.75 230.4375 391.75 C224.1675 391.42 217.8975 391.09 211.4375 390.75 C211.1075 392.4 210.7775 394.05 210.4375 395.75 C206.86222855 398.1335143 204.32979862 398.03579341 200.20336914 398.01742554 C199.46127701 398.02195665 198.71918488 398.02648776 197.9546051 398.03115618 C195.46055938 398.0438461 192.96673075 398.04217683 190.47265625 398.04052734 C188.68712583 398.04651005 186.90159801 398.05331499 185.11607361 398.06088257 C180.25821581 398.07858378 175.40042843 398.0832399 170.5425415 398.08451414 C167.50564846 398.08593486 164.46877336 398.09020311 161.43188477 398.09550858 C150.83104312 398.11402791 140.23025182 398.12217749 129.62939453 398.12060547 C119.75981228 398.11940604 109.89044943 398.14046435 100.02092266 398.1720928 C91.54176909 398.19829354 83.06268695 398.20897105 74.58349323 398.20769465 C69.52214673 398.2071858 64.46099479 398.21282542 59.39968872 398.23405075 C54.63242699 398.25349511 49.86554403 398.25351535 45.09826851 398.23901749 C43.35486863 398.23693542 41.61144468 398.24159415 39.86808586 398.2537384 C25.26195563 398.34883655 13.25068016 396.05319505 2.27734375 385.71484375 C-9.00779334 373.75470781 -10.86846117 361.12562618 -10.82992554 345.22418213 C-10.83366651 343.7556716 -10.8382698 342.28716305 -10.84365618 340.81865764 C-10.85584522 336.8010631 -10.85563061 332.78355208 -10.85326743 328.76594329 C-10.85285826 324.42648404 -10.86390761 320.08705121 -10.87338257 315.74760437 C-10.88996818 307.25475694 -10.8954909 298.76193728 -10.89660732 290.26907501 C-10.89755842 283.36810766 -10.90167175 276.46714945 -10.90800858 269.566185 C-10.92560992 249.99985943 -10.93484852 230.43355577 -10.93334763 210.86722222 C-10.93326772 209.81324104 -10.9331878 208.75925985 -10.93310547 207.67333984 C-10.93302371 206.61807267 -10.93294195 205.56280549 -10.93285771 204.47556052 C-10.93204386 187.35287748 -10.95120934 170.2302822 -10.9793822 153.10762456 C-11.00808313 135.52544628 -11.02192422 117.94331086 -11.02019465 100.36110854 C-11.01953006 90.49007313 -11.02505341 80.61912987 -11.04655075 70.74811554 C-11.06472525 62.34924014 -11.06914026 53.95049874 -11.0555319 45.55161223 C-11.04898493 41.26537241 -11.04894734 36.97938997 -11.0662384 32.69317436 C-11.08189691 28.77145063 -11.07918026 24.85018991 -11.06167014 20.92847797 C-11.05858436 19.50807321 -11.06229171 18.08763449 -11.07339029 16.66726974 C-11.08745799 14.73964817 -11.07456425 12.81188586 -11.06027794 10.8842659 C-11.06071267 9.81263742 -11.06114741 8.74100893 -11.06159532 7.63690686 C-10.43488341 4.01182998 -9.12886225 2.34340119 -6.5625 -0.25 C-3.5625 -1.25 -3.5625 -1.25 0 0 Z " fill="#020202" transform="translate(17.5625,114.25)"/>
<path d="M0 0 C0.64040374 -0.00235223 1.28080747 -0.00470446 1.94061738 -0.00712797 C4.10713522 -0.01383573 6.27359333 -0.01335922 8.4401207 -0.01294994 C10.00087092 -0.01624746 11.5616203 -0.01997279 13.12236857 -0.02409142 C17.42746395 -0.03413226 21.73254539 -0.03783156 26.03765082 -0.04048073 C30.67445328 -0.04437762 35.31124463 -0.05395636 39.94804001 -0.0626936 C51.15385577 -0.08247534 62.35967247 -0.09252633 73.56550133 -0.10142139 C78.83859639 -0.10580144 84.11169044 -0.11116897 89.3847847 -0.11641026 C106.90700828 -0.13342415 124.42923122 -0.14791926 141.95146179 -0.155159 C146.50072099 -0.15706899 151.04998017 -0.1589893 155.59923935 -0.16094494 C157.29534655 -0.16167055 157.29534655 -0.16167055 159.02571854 -0.16241082 C177.35093847 -0.17071457 195.67609319 -0.1960566 214.00128463 -0.22852562 C232.80252456 -0.26156733 251.60373132 -0.27960514 270.40500045 -0.28280324 C280.96643347 -0.284971 291.5277714 -0.29375853 302.08917618 -0.31926441 C311.08216572 -0.34093199 320.07503708 -0.3490413 329.06804976 -0.33929763 C333.65815333 -0.33474148 338.24801289 -0.33671525 342.83808327 -0.35605907 C347.03891725 -0.37360999 351.23932775 -0.37275914 355.44016573 -0.35716178 C356.96106912 -0.35477338 358.48200122 -0.3591728 360.00286058 -0.37099043 C362.06908911 -0.38605317 364.13380612 -0.3764785 366.19999695 -0.36076355 C367.34794652 -0.36174036 368.4958961 -0.36271717 369.67863202 -0.36372358 C373.60489105 0.25242192 375.76227212 1.67506921 378.85168076 4.13422108 C382.24464112 9.22366163 381.26277198 15.21953586 381.28918076 21.19672108 C381.32205185 22.48256092 381.35492294 23.76840076 381.38879013 25.09320545 C381.44008287 34.22797626 380.23104534 41.35195274 373.91979599 48.24384022 C366.99564966 54.9671519 359.19303021 57.74917191 349.66530991 57.63301563 C348.78585657 57.63840019 347.90640324 57.64378474 347.00029981 57.64933246 C344.07758541 57.66252029 341.15572344 57.64750428 338.23302841 57.63251209 C336.12821697 57.63633805 334.02340815 57.64195945 331.9186058 57.64923573 C327.39895391 57.66116108 322.87953443 57.66071673 318.35987854 57.65064144 C311.217199 57.63506149 304.07475766 57.64877027 296.93209457 57.66667652 C283.06939331 57.69746135 269.20676523 57.6989979 255.3440361 57.69702625 C237.67631354 57.69563208 220.00864666 57.7058976 202.34096563 57.74560398 C195.23577824 57.7605691 188.1308019 57.76024499 181.02561116 57.74812615 C176.61579992 57.74343009 172.20607027 57.75091122 167.79627228 57.76167011 C165.74635129 57.7640849 163.69641689 57.76131066 161.64651108 57.75306225 C158.85617328 57.74250238 156.06646651 57.75014511 153.27614975 57.76241016 C152.45836442 57.75483411 151.64057908 57.74725805 150.79801238 57.73945242 C146.62312783 57.74937306 146.62312783 57.74937306 142.88765144 59.40745926 C141.57954758 61.39789559 141.57954758 61.39789559 140.85168076 65.13422108 C134.25168076 65.13422108 127.65168076 65.13422108 120.85168076 65.13422108 C119.86168076 63.15422108 118.87168076 61.17422108 117.85168076 59.13422108 C115.21922157 57.81799148 113.24546812 57.9944684 110.29623032 57.97600269 C109.11549942 57.96621387 107.93476852 57.95642506 106.7182579 57.94633961 C105.41634506 57.94058414 104.11443222 57.93482868 102.77306747 57.92889881 C101.39347666 57.91932252 100.0138888 57.90931259 98.63430405 57.89890003 C94.88249485 57.87181787 91.13067304 57.85082627 87.37881994 57.83089805 C83.46033638 57.80905888 79.54189187 57.78166009 75.62343979 57.7548418 C68.20034099 57.70488688 60.77722056 57.65995846 53.35407937 57.61681944 C44.90434939 57.56747097 36.4546586 57.51254399 28.0049665 57.45713985 C10.62057411 57.34327683 -6.76385462 57.23644722 -24.14831924 57.13422108 C-23.59402237 56.07203358 -23.03972549 55.00984608 -22.46863174 53.91547108 C-21.73642691 52.48861037 -21.00468051 51.06151435 -20.27331924 49.63422108 C-19.90851456 48.93812733 -19.54370987 48.24203358 -19.16785049 47.52484608 C-15.74915823 40.81177762 -13.90699815 34.4918251 -13.91003799 26.87640858 C-13.89392471 25.75621326 -13.87781143 24.63601795 -13.86120987 23.48187733 C-13.84422608 21.15901691 -13.83909628 18.83604077 -13.84558487 16.51312733 C-13.67582267 7.01739639 -13.67582267 7.01739639 -10.73035049 3.39203358 C-6.89283134 0.03638143 -5.03252676 0.0078454 0 0 Z " fill="#F9F6F6" transform="translate(108.14831924438477,439.86577892303467)"/>
<path d="M0 0 C1.34632114 -0.00543042 2.69263633 -0.01255822 4.03894043 -0.02124023 C7.67127755 -0.03936766 11.30315669 -0.03245044 14.9355011 -0.01972389 C18.75095787 -0.00954089 22.56637749 -0.01900419 26.38183594 -0.02526855 C32.7871804 -0.03252963 39.19233991 -0.02299791 45.59765625 -0.00390625 C52.98513996 0.01785967 60.37218198 0.0108072 67.759655 -0.01121187 C74.12174616 -0.02940999 80.48370495 -0.03190274 86.84581375 -0.0214572 C90.63715089 -0.01524639 94.42828096 -0.01431959 98.21960449 -0.02760315 C101.78541057 -0.03922567 105.35065156 -0.03102083 108.91639709 -0.00802612 C110.83614339 -0.00028278 112.75593793 -0.01204013 114.67565918 -0.02453613 C125.01923787 0.07599502 132.13259533 2.60101075 139.7265625 9.65039062 C145.50680725 15.90142454 146.59827039 22.08716998 146.64599609 30.34033203 C146.65826233 31.51680298 146.65826233 31.51680298 146.67077637 32.71704102 C146.69556016 35.30939994 146.71213112 37.90170424 146.7265625 40.49414062 C146.73188618 41.38266094 146.73720985 42.27118126 146.74269485 43.18662643 C146.76939991 47.89247524 146.78878059 52.5982978 146.80322266 57.30419922 C146.81654191 61.1859504 146.84436097 65.06717342 146.88525391 68.94873047 C146.93475107 73.64777475 146.95936473 78.34634141 146.96644974 83.04563522 C146.9731341 84.82930086 146.98828221 86.61295702 147.01234055 88.39647293 C147.14943159 99.17709749 147.10269525 107.91155237 139.74569702 116.5140686 C131.11088652 124.972981 120.53193541 126.1127138 108.95458984 126.03515625 C107.65070816 126.04216553 106.34682648 126.0491748 105.00343323 126.05639648 C101.46005027 126.07447398 97.91713842 126.06762877 94.3737483 126.05488014 C90.64772341 126.04467509 86.9217359 126.05416607 83.19570923 126.0604248 C76.94355098 126.06767775 70.69158249 126.05817382 64.43945312 126.0390625 C57.23028777 126.01727905 50.02157474 126.02436503 42.81242025 126.04636812 C36.59890659 126.0645668 30.38552843 126.0670593 24.17199671 126.05661345 C20.47123152 126.05040539 16.77067844 126.04946852 13.06992722 126.0627594 C8.94397268 126.07654581 4.81878873 126.05739572 0.69287109 126.03515625 C-0.51983963 126.04325317 -1.73255035 126.0513501 -2.98200989 126.05969238 C-10.08910875 125.98890108 -15.33837568 125.01295025 -21.546875 121.51757812 C-22.59875 120.96070313 -23.650625 120.40382813 -24.734375 119.83007812 C-30.2914807 115.26090233 -33.61179353 109.39745556 -35.546875 102.51757812 C-35.74896654 99.87139533 -35.86078394 97.32810948 -35.86914062 94.68310547 C-35.88403534 93.54027603 -35.88403534 93.54027603 -35.89923096 92.37435913 C-35.92830714 89.8673737 -35.94205204 87.36064161 -35.953125 84.85351562 C-35.95877975 83.99139088 -35.96443451 83.12926613 -35.97026062 82.24101639 C-36.00018367 77.67547645 -36.01867885 73.11006183 -36.02734375 68.54443359 C-36.0382833 63.8572422 -36.08628939 59.17122159 -36.14328766 54.48439598 C-36.18077424 50.85524286 -36.19096398 47.22636472 -36.1940155 43.59703445 C-36.20002074 41.8708318 -36.21591421 40.14463118 -36.24238586 38.41862106 C-36.40409288 27.06120052 -35.65271162 17.70138112 -27.92321777 8.60726929 C-19.77916787 0.94135487 -10.77916207 -0.07016456 0 0 Z " fill="#FBCE59" transform="translate(77.546875,163.482421875)"/>
<path d="M0 0 C1.05960937 -0.00386719 2.11921875 -0.00773438 3.2109375 -0.01171875 C4.31695312 -0.00011719 5.42296875 0.01148438 6.5625 0.0234375 C8.22152344 0.00603516 8.22152344 0.00603516 9.9140625 -0.01171875 C10.97367187 -0.00785156 12.03328125 -0.00398437 13.125 0 C14.58099609 0.00507568 14.58099609 0.00507568 16.06640625 0.01025391 C18.5625 0.3984375 18.5625 0.3984375 20.37695312 1.64038086 C21.88006601 3.86935859 21.94492453 5.24839431 21.96875 7.92578125 C21.99066406 8.80041016 22.01257813 9.67503906 22.03515625 10.57617188 C22.04417969 11.48689453 22.05320312 12.39761719 22.0625 13.3359375 C22.08042003 15.13690073 22.11120465 16.93779226 22.15625 18.73828125 C22.16333984 19.53613037 22.17042969 20.33397949 22.17773438 21.15600586 C22.65762613 23.95283693 23.66136442 25.31878619 25.5625 27.3984375 C28.12478257 28.70814354 28.12478257 28.70814354 31.0625 29.7109375 C38.46219559 32.61699977 45.09033072 36.48429542 51.1875 41.6015625 C53.47487565 43.67664282 53.47487565 43.67664282 56.625 43.5859375 C61.47212866 42.60800803 65.52027866 39.5574178 69.59765625 36.89453125 C72.97960865 35.18795975 74.82944269 34.79567791 78.5625 35.3984375 C82.31499216 38.1989085 84.50031597 42.20743367 86.8125 46.2109375 C87.17601562 46.80197266 87.53953125 47.39300781 87.9140625 48.00195312 C90.3896563 52.26909508 91.29354733 55.49924125 90.5625 60.3984375 C88.875 62.21875 88.875 62.21875 86.5625 63.5234375 C85.7478125 64.00554687 84.933125 64.48765625 84.09375 64.984375 C83.2584375 65.45101562 82.423125 65.91765625 81.5625 66.3984375 C80.05731526 67.30656562 78.55685064 68.22258982 77.0625 69.1484375 C76.4128125 69.53515625 75.763125 69.921875 75.09375 70.3203125 C73.39736006 71.33381964 73.39736006 71.33381964 72.5625 73.3984375 C72.65389789 74.79888903 72.81131357 76.19524865 73 77.5859375 C74.12552063 87.71562321 73.89538672 97.83661249 72.390625 107.91015625 C72.34149633 110.4985875 72.34149633 110.4985875 74.12890625 112.46875 C77.02696193 114.76672673 80.07118569 116.7096274 83.25 118.5859375 C89.47297297 122.30891047 89.47297297 122.30891047 90.5625 123.3984375 C91.36309023 129.95646386 89.11295202 133.80026348 85.6875 139.2734375 C85.22730469 140.04429687 84.76710938 140.81515625 84.29296875 141.609375 C80.8701604 147.2446073 80.8701604 147.2446073 78.5625 148.3984375 C72.44186613 149.11798952 68.71225358 146.40436321 63.86132812 143.15429688 C60.58365951 141.10348539 58.71000585 140.39475752 54.8046875 140.4921875 C51.22962653 141.49148165 49.56940512 143.06623792 46.91796875 145.578125 C42.49575006 148.99562734 37.32674137 151.16250761 32.3046875 153.56640625 C27.08335758 155.95755061 27.08335758 155.95755061 22.5625 159.3984375 C22.32578017 161.92637144 22.1410675 164.42778716 22 166.9609375 C21.855625 169.4153125 21.71125 171.8696875 21.5625 174.3984375 C11.6625 174.3984375 1.7625 174.3984375 -8.4375 174.3984375 C-8.7675 169.7784375 -9.0975 165.1584375 -9.4375 160.3984375 C-13.28098488 156.55495262 -14.94676572 155.58834525 -19.8125 153.7734375 C-26.17212481 151.29374796 -31.31490614 147.92681971 -36.55419922 143.56201172 C-39.53059634 141.21532282 -41.13558638 140.39910545 -44.96875 140.390625 C-49.73795648 141.77627283 -53.34471561 144.20643508 -57.47265625 146.90234375 C-60.85206587 148.60763213 -62.70914287 149.04196215 -66.4375 148.3984375 C-68.37890625 146.52734375 -68.37890625 146.52734375 -70 143.9609375 C-70.58007812 143.05085937 -71.16015625 142.14078125 -71.7578125 141.203125 C-72.31210937 140.27757812 -72.86640625 139.35203125 -73.4375 138.3984375 C-74.20707031 137.16480469 -74.20707031 137.16480469 -74.9921875 135.90625 C-77.37739601 131.90395098 -78.99287902 129.1856482 -78.4375 124.3984375 C-73.91800924 119.76001277 -68.15670005 116.39175983 -62.4375 113.3984375 C-61.7775 113.3984375 -61.1175 113.3984375 -60.4375 113.3984375 C-60.31386216 107.63272935 -60.22314294 101.86779328 -60.1628418 96.10107422 C-60.13770396 94.13967447 -60.10358835 92.17836834 -60.06030273 90.21728516 C-59.99961792 87.39722606 -59.97128359 84.57840556 -59.94921875 81.7578125 C-59.92341232 80.88163269 -59.8976059 80.00545288 -59.87101746 79.10272217 C-59.82080827 73.96855486 -59.82080827 73.96855486 -62.80737305 69.91333008 C-63.67531494 69.41341553 -64.54325684 68.91350098 -65.4375 68.3984375 C-66.28570312 67.87121094 -67.13390625 67.34398437 -68.0078125 66.80078125 C-69.7159809 65.82132689 -71.42431526 64.84216189 -73.1328125 63.86328125 C-77.23969006 61.25297772 -77.23969006 61.25297772 -78.4375 59.3984375 C-78.37212307 53.44913694 -76.08980846 49.44549541 -73 44.5859375 C-72.38801758 43.58530273 -72.38801758 43.58530273 -71.76367188 42.56445312 C-70.14554625 39.94852735 -68.61934356 37.58028106 -66.4375 35.3984375 C-60.36217241 34.54313013 -56.54257458 37.42244623 -51.73632812 40.64257812 C-48.57231147 42.62227847 -46.596925 43.39826459 -42.8359375 43.40234375 C-39.0243725 42.27639869 -37.00670633 40.84812072 -34 38.2734375 C-28.55947878 33.94308601 -23.15480409 31.22153407 -16.69360352 28.69482422 C-13.13431629 27.27917371 -11.62316327 26.67693241 -9.4375 23.3984375 C-9.12048098 21.22478121 -9.12048098 21.22478121 -9.12890625 18.8359375 C-9.10376953 17.95679688 -9.07863281 17.07765625 -9.05273438 16.171875 C-9.01757946 14.32298679 -8.98632904 12.47402021 -8.95898438 10.625 C-8.93255859 9.74585938 -8.90613281 8.86671875 -8.87890625 7.9609375 C-8.86545166 7.15785156 -8.85199707 6.35476563 -8.83813477 5.52734375 C-7.87674578 0.41868322 -4.69152863 0.01635493 0 0 Z " fill="#796C78" transform="translate(363.4375,250.6015625)"/>
<path d="M0 0 C1.26802963 -0.01073296 1.26802963 -0.01073296 2.56167603 -0.02168274 C3.95574425 -0.02571609 3.95574425 -0.02571609 5.37797546 -0.02983093 C6.35534668 -0.03640213 7.3327179 -0.04297333 8.33970642 -0.04974365 C11.58382742 -0.06950309 14.82790209 -0.08114476 18.07206726 -0.09111023 C19.7313881 -0.09722352 19.7313881 -0.09722352 21.42423058 -0.10346031 C27.27843922 -0.1243317 33.13262435 -0.13862916 38.98686218 -0.147995 C45.03989347 -0.15906551 51.09255774 -0.19347006 57.14545918 -0.23316669 C61.79427789 -0.25928535 66.44300851 -0.26768259 71.09189415 -0.27127647 C73.32344735 -0.27615422 75.55499631 -0.28780177 77.78647804 -0.30631447 C80.90842067 -0.33060579 84.02940519 -0.32975902 87.15141296 -0.32279968 C88.53637215 -0.34201477 88.53637215 -0.34201477 89.9493103 -0.36161804 C96.42435137 -0.30895836 96.42435137 -0.30895836 99.31259155 2.15609741 C103.74341026 5.48997416 108.72685533 4.59908822 114.10527039 4.47431946 C115.33667252 4.46205322 116.56807465 4.44978699 117.83679199 4.43714905 C120.50986951 4.40853897 123.18178267 4.3728046 125.85449219 4.32556915 C130.08196763 4.25225147 134.30931386 4.21396601 138.53727722 4.18190002 C150.5574303 4.08539865 162.57678582 3.94172563 174.59599304 3.76338196 C181.23872866 3.66512499 187.88115377 3.59572075 194.52450991 3.5571444 C198.72662435 3.53099858 202.92617302 3.46884565 207.12740326 3.37987471 C210.35549743 3.32187107 213.58376175 3.31622736 216.81230164 3.30244446 C218.55486992 3.24987488 218.55486992 3.24987488 220.3326416 3.19624329 C228.03879926 3.23387559 228.03879926 3.23387559 230.72628784 5.90181732 C232.05778503 8.05152893 232.05778503 8.05152893 233.04181671 10.19493484 C234.94495925 14.24674302 238.96514218 16.4559126 242.95878601 18.14717102 C251.14729652 19.41255749 256.72024974 17.86621045 263.58378601 13.36201477 C265.95878601 12.14717102 265.95878601 12.14717102 267.83769226 12.22138977 C270.98851641 13.59661136 273.93752425 15.28245652 276.89628601 17.02217102 C277.50407898 17.37408508 278.11187195 17.72599915 278.73808289 18.08857727 C280.48248098 19.10096797 282.22076601 20.12386944 283.95878601 21.14717102 C284.92945007 21.60349915 285.90011414 22.05982727 286.90019226 22.52998352 C287.5795282 23.0636554 288.25886414 23.59732727 288.95878601 24.14717102 C289.08744812 27.24824524 289.08744812 27.24824524 288.95878601 30.14717102 C287.73110819 30.14771579 286.50343037 30.14826056 285.23855019 30.14882183 C256.0741937 30.16287605 226.90996298 30.20267255 197.74569444 30.27402664 C194.1534767 30.28279304 190.56125849 30.29134291 186.96903992 30.29975891 C185.89635326 30.30227751 185.89635326 30.30227751 184.80199616 30.30484698 C173.23366212 30.33149266 161.66537763 30.34061031 150.09701605 30.34321245 C138.22046829 30.3462755 126.34406343 30.36826271 114.4675802 30.40769559 C107.79937797 30.429296 101.13136034 30.44162937 94.46310806 30.43332481 C88.18394892 30.42578083 81.90527882 30.44162285 75.62620926 30.47523117 C73.32446738 30.48346005 71.02267682 30.48321964 68.72093964 30.47376823 C65.57094008 30.46211653 62.42253538 30.48131164 59.2726593 30.50793457 C58.36796013 30.49726131 57.46326095 30.48658805 56.53114665 30.47559136 C48.80193308 30.59694551 42.43520312 33.20558731 36.52128601 38.20967102 C36.00566101 38.84904602 35.49003601 39.48842102 34.95878601 40.14717102 C34.42253601 40.78654602 33.88628601 41.42592102 33.33378601 42.08467102 C30.42891796 46.44197309 29.71412223 50.17657705 29.68534851 55.37373352 C29.66472351 56.57127258 29.64409851 57.76881165 29.62284851 59.00263977 C29.59705041 61.49215618 29.57867686 63.98176191 29.56816101 66.47138977 C29.34706011 77.95635299 27.18272808 86.84273903 19.11894226 95.26826477 C12.6051401 100.93397695 5.52216543 102.52218162 -2.90840149 102.42060852 C-11.17519922 101.69906757 -17.55274773 97.15196345 -23.04121399 91.14717102 C-29.27705569 82.73163703 -28.69221732 73.49931031 -28.52949524 63.54560852 C-28.52015296 61.85597283 -28.51304355 60.16632347 -28.50805664 58.47666931 C-28.48909786 54.0606603 -28.44009563 49.64549255 -28.38453674 45.22981262 C-28.33310196 40.71149572 -28.31049122 36.19304096 -28.28535461 31.67451477 C-28.23196356 22.8316405 -28.14412139 13.9896078 -28.04121399 5.14717102 C-21.44121399 5.14717102 -14.84121399 5.14717102 -8.04121399 5.14717102 C-7.38121399 3.82717102 -6.72121399 2.50717102 -6.04121399 1.14717102 C-3.77208381 0.01260593 -2.51981089 0.01462157 0 0 Z " fill="#DCD9EC" transform="translate(51.04121398925781,394.8528289794922)"/>
<path d="M0 0 C1.59353199 -0.00461324 3.18705972 -0.01096899 4.78057861 -0.01890898 C9.14399307 -0.03556741 13.50705643 -0.02737187 17.87047195 -0.0149641 C22.58221026 -0.00590163 27.29388885 -0.01988928 32.00561523 -0.03088379 C41.22976757 -0.0486608 50.45378963 -0.04483266 59.67794704 -0.03323323 C67.17528285 -0.02419597 74.67258218 -0.02297617 82.16992188 -0.02732849 C83.2373934 -0.02794142 84.30486492 -0.02855436 85.40468407 -0.02918586 C87.57330069 -0.03046478 89.7419173 -0.03176163 91.91053391 -0.03307623 C112.24082314 -0.04447963 132.5710402 -0.03137206 152.9013176 -0.00987476 C170.34179995 0.00799599 187.78217581 0.00489182 205.22265625 -0.0135498 C225.48070021 -0.03496073 245.73868093 -0.04338102 265.99673462 -0.03110075 C268.15732828 -0.02982657 270.31792195 -0.02856908 272.47851562 -0.02732849 C273.54154089 -0.02671139 274.60456615 -0.02609429 275.69980431 -0.02545848 C283.18725478 -0.02200626 290.67466512 -0.0278312 298.16210938 -0.0372467 C307.28807888 -0.04847051 316.41391078 -0.04541855 325.53986454 -0.02412373 C330.19518163 -0.01361851 334.85026937 -0.00948252 339.50558472 -0.02272034 C343.76923138 -0.03466095 348.03243663 -0.02805429 352.2960434 -0.00681013 C353.83629674 -0.00235113 355.37658757 -0.00459457 356.91681671 -0.01431328 C367.19803927 -0.07419797 375.10235564 0.72935408 383.13671875 7.57043457 C391.70141678 17.03073585 390.90515112 29.27923352 390.85766602 41.21057129 C390.86473379 43.08583756 390.8734824 44.96109813 390.8837738 46.83634949 C390.9061701 51.90001638 390.90335266 56.96336931 390.89445233 62.02706671 C390.88932677 66.25968279 390.89664694 70.49224069 390.90392441 74.72485077 C390.92088917 84.70565752 390.91738834 94.68631121 390.90063477 104.66711426 C390.88367782 114.96193939 390.89960479 125.2563416 390.93185765 135.55112064 C390.95853146 144.4006361 390.96583667 153.25001972 390.95734257 162.09957135 C390.95241172 167.38083686 390.95463911 172.66184735 390.97513008 177.9430809 C390.99345508 182.90258461 390.98756755 187.861477 390.96293068 192.82094765 C390.95791458 194.64104341 390.96143324 196.46118554 390.97407913 198.28124428 C390.98997129 200.76473052 390.97509789 203.24619358 390.95240784 205.72958374 C390.96424357 206.45068734 390.97607929 207.17179094 390.98827368 207.91474617 C390.9169266 211.75433601 390.3938216 213.41844995 388.00761318 216.486269 C385.32421875 218.50793457 385.32421875 218.50793457 381.76171875 218.63293457 C377.61293334 217.27515026 376.61159915 216.18100533 374.32421875 212.50793457 C373.94400141 209.77588361 373.79251958 207.45272462 373.83215332 204.72717285 C373.82747433 203.95055361 373.82279534 203.17393436 373.81797457 202.3737812 C373.80705317 199.77493085 373.82452452 197.17705143 373.84179688 194.57824707 C373.83961079 192.71372187 373.83561371 190.84919803 373.8299408 188.98468018 C373.82137618 184.97132167 373.82515906 180.95823058 373.83836365 176.94488525 C373.85868715 170.60008984 373.84872897 164.25556447 373.83410645 157.9107666 C373.80506363 143.29745372 373.81580863 128.68422005 373.82680511 114.07089233 C373.83647501 100.67763567 373.83779102 87.28451941 373.80692434 73.89128685 C373.79353466 67.58273175 373.79953348 61.27458029 373.82028961 54.96604919 C373.82926379 51.04340308 373.82181226 47.12091323 373.8098774 43.19828033 C373.8077434 41.37818119 373.81248644 39.55805916 373.82458305 37.73799896 C373.84015983 35.25447614 373.83124681 32.77219549 373.81628418 30.28869629 C373.82677308 29.56739092 373.83726197 28.84608555 373.84806871 28.10292244 C373.80052894 24.56307356 373.38595695 22.60586464 371.48096466 19.58413696 C367.9189448 16.15514047 364.78963947 16.38110116 360.05005836 16.37371349 C359.40820119 16.37136126 358.76634401 16.36900903 358.10503662 16.36658552 C355.93960597 16.35989249 353.77423529 16.36035383 351.60879517 16.36076355 C350.04646919 16.35746513 348.48414407 16.35373961 346.92182004 16.34962207 C342.6170534 16.33959177 338.31230069 16.33588364 334.00752401 16.33323276 C329.36939493 16.32933287 324.73127693 16.31975444 320.09315491 16.3110199 C308.88776215 16.2912486 297.68236847 16.28118932 286.47696263 16.27229211 C281.20374083 16.26791109 275.93052004 16.26254387 270.65729904 16.25730324 C253.13503287 16.24029178 235.61276732 16.22579604 218.09049416 16.2185545 C213.54242578 16.21664452 208.99435742 16.2147242 204.44628906 16.21276855 C203.31585412 16.21228481 202.18541918 16.21180107 201.02072863 16.21130268 C182.69489674 16.20299648 164.36913 16.17764926 146.04332657 16.14518788 C127.2409298 16.11215293 108.43856618 16.09410905 89.63614023 16.09091026 C79.07419506 16.08874206 68.51234495 16.07994807 57.95042801 16.05444908 C48.95853206 16.03279089 39.96675425 16.0246676 30.97483517 16.03441586 C26.38484856 16.03897451 21.79510598 16.03698385 17.20515251 16.01765442 C13.00564423 16.00012146 8.80655977 16.00093949 4.6070476 16.01655171 C3.08551895 16.01894286 1.56396171 16.01452676 0.04247697 16.00272306 C-2.02218086 15.98769387 -4.08531939 15.99721155 -6.14993858 16.01294994 C-7.29772581 16.01197313 -8.44551303 16.01099633 -9.62808168 16.00998992 C-13.34299439 16.61694637 -15.0028425 17.91013782 -17.67578125 20.50793457 C-19.0694354 23.29524287 -18.81592657 25.59569812 -18.83349609 28.7142334 C-18.84888931 30.67185356 -18.84888931 30.67185356 -18.86459351 32.66902161 C-18.86803143 33.36877924 -18.87146935 34.06853687 -18.87501144 34.78949928 C-18.88679775 36.97964661 -18.9062506 39.16959651 -18.9281311 41.35966492 C-18.98974979 47.58716235 -19.04375542 53.81464065 -19.07714844 60.0423584 C-19.0981204 63.85089765 -19.13344577 67.65907868 -19.17790604 71.46741295 C-19.19204895 72.91739364 -19.20078463 74.36743772 -19.20396042 75.8174839 C-19.2088811 77.84955102 -19.23367015 79.88154042 -19.25927734 81.91345215 C-19.2673642 83.06879959 -19.27545105 84.22414703 -19.28378296 85.414505 C-19.7190564 88.84943767 -20.61019679 90.7525729 -22.67578125 93.50793457 C-24.796875 94.39074707 -24.796875 94.39074707 -27.11328125 94.63293457 C-27.87511719 94.7386377 -28.63695312 94.84434082 -29.421875 94.95324707 C-31.67578125 94.50793457 -31.67578125 94.50793457 -33.78430176 92.3890686 C-36.04839115 88.94036877 -36.18198467 87.06048701 -36.19335938 82.96447754 C-36.21227234 81.00621536 -36.21227234 81.00621536 -36.23156738 79.00839233 C-36.22440283 77.58896343 -36.21619767 76.16953946 -36.20703125 74.75012207 C-36.20972934 73.28146101 -36.2136144 71.81280171 -36.21862793 70.34414673 C-36.2245193 67.26575719 -36.21597981 64.18783244 -36.19726562 61.10949707 C-36.17459617 57.19243787 -36.18752354 53.2764824 -36.21155548 49.35946465 C-36.22612729 46.32392323 -36.22135395 43.28863588 -36.21104431 40.25308609 C-36.20840198 38.81081126 -36.21155757 37.3685123 -36.22096252 35.92626572 C-36.27324475 25.64662049 -35.74294214 15.5311709 -28.48828125 7.57043457 C-19.80214233 0.17813522 -10.97112618 -0.06922688 0 0 Z " fill="#020202" transform="translate(42.67578125,-0.5079345703125)"/>
<path d="M0 0 C1.34632114 -0.00543042 2.69263633 -0.01255822 4.03894043 -0.02124023 C7.67127755 -0.03936766 11.30315669 -0.03245044 14.9355011 -0.01972389 C18.75095787 -0.00954089 22.56637749 -0.01900419 26.38183594 -0.02526855 C32.7871804 -0.03252963 39.19233991 -0.02299791 45.59765625 -0.00390625 C52.98513996 0.01785967 60.37218198 0.0108072 67.759655 -0.01121187 C74.12174616 -0.02940999 80.48370495 -0.03190274 86.84581375 -0.0214572 C90.63715089 -0.01524639 94.42828096 -0.01431959 98.21960449 -0.02760315 C101.78541057 -0.03922567 105.35065156 -0.03102083 108.91639709 -0.00802612 C110.83614339 -0.00028278 112.75593793 -0.01204013 114.67565918 -0.02453613 C125.01923787 0.07599502 132.13259533 2.60101075 139.7265625 9.65039062 C145.50680725 15.90142454 146.59827039 22.08716998 146.64599609 30.34033203 C146.65826233 31.51680298 146.65826233 31.51680298 146.67077637 32.71704102 C146.69556016 35.30939994 146.71213112 37.90170424 146.7265625 40.49414062 C146.73188618 41.38266094 146.73720985 42.27118126 146.74269485 43.18662643 C146.76939991 47.89247524 146.78878059 52.5982978 146.80322266 57.30419922 C146.81654191 61.1859504 146.84436097 65.06717342 146.88525391 68.94873047 C146.93475107 73.64777475 146.95936473 78.34634141 146.96644974 83.04563522 C146.9731341 84.82930086 146.98828221 86.61295702 147.01234055 88.39647293 C147.14943159 99.17709749 147.10269525 107.91155237 139.74569702 116.5140686 C131.11088652 124.972981 120.53193541 126.1127138 108.95458984 126.03515625 C107.65070816 126.04216553 106.34682648 126.0491748 105.00343323 126.05639648 C101.46005027 126.07447398 97.91713842 126.06762877 94.3737483 126.05488014 C90.64772341 126.04467509 86.9217359 126.05416607 83.19570923 126.0604248 C76.94355098 126.06767775 70.69158249 126.05817382 64.43945312 126.0390625 C57.23028777 126.01727905 50.02157474 126.02436503 42.81242025 126.04636812 C36.59890659 126.0645668 30.38552843 126.0670593 24.17199671 126.05661345 C20.47123152 126.05040539 16.77067844 126.04946852 13.06992722 126.0627594 C8.94397268 126.07654581 4.81878873 126.05739572 0.69287109 126.03515625 C-0.51983963 126.04325317 -1.73255035 126.0513501 -2.98200989 126.05969238 C-10.08910875 125.98890108 -15.33837568 125.01295025 -21.546875 121.51757812 C-22.59875 120.96070313 -23.650625 120.40382813 -24.734375 119.83007812 C-30.2914807 115.26090233 -33.61179353 109.39745556 -35.546875 102.51757812 C-35.74896654 99.87139533 -35.86078394 97.32810948 -35.86914062 94.68310547 C-35.88403534 93.54027603 -35.88403534 93.54027603 -35.89923096 92.37435913 C-35.92830714 89.8673737 -35.94205204 87.36064161 -35.953125 84.85351562 C-35.95877975 83.99139088 -35.96443451 83.12926613 -35.97026062 82.24101639 C-36.00018367 77.67547645 -36.01867885 73.11006183 -36.02734375 68.54443359 C-36.0382833 63.8572422 -36.08628939 59.17122159 -36.14328766 54.48439598 C-36.18077424 50.85524286 -36.19096398 47.22636472 -36.1940155 43.59703445 C-36.20002074 41.8708318 -36.21591421 40.14463118 -36.24238586 38.41862106 C-36.40409288 27.06120052 -35.65271162 17.70138112 -27.92321777 8.60726929 C-19.77916787 0.94135487 -10.77916207 -0.07016456 0 0 Z M-19.96720886 22.37734985 C-20.82285645 25.53654969 -20.80998661 28.48979571 -20.8215332 31.76123047 C-20.82664413 32.48369461 -20.83175507 33.20615875 -20.83702087 33.95051575 C-20.85090206 36.33493371 -20.84996105 38.71906209 -20.84765625 41.10351562 C-20.8515444 42.76494453 -20.85587931 44.42637244 -20.86064148 46.08779907 C-20.86810081 49.5696332 -20.8678148 53.05136593 -20.86254883 56.53320312 C-20.85675885 60.9875243 -20.87367498 65.44142903 -20.8968935 69.89568138 C-20.91165184 73.32728488 -20.91249962 76.75878863 -20.90938377 80.19041824 C-20.90989607 81.83220875 -20.91511664 83.47400497 -20.92519569 85.11576462 C-20.93758188 87.41582742 -20.93075567 89.71508605 -20.91918945 92.01513672 C-20.91981888 93.32211517 -20.9204483 94.62909363 -20.9210968 95.97567749 C-20.37670749 101.12816413 -18.82231454 104.36657171 -14.984375 107.83007812 C-11.4313752 110.28984722 -9.63093215 110.645707 -5.34223938 110.66474915 C-4.23893784 110.67190445 -3.13563629 110.67905975 -1.99890137 110.68643188 C-0.78279175 110.68912079 0.43331787 110.69180969 1.6862793 110.69458008 C2.96279861 110.70115128 4.23931793 110.70772247 5.55451965 110.7144928 C9.79544821 110.73554466 14.03637716 110.74589819 18.27734375 110.75585938 C19.73767427 110.75990691 21.1980046 110.76402384 22.65833473 110.76820946 C29.52101789 110.78726588 36.38369028 110.80149433 43.24639481 110.80982143 C51.16401201 110.8195873 59.08134915 110.84588764 66.99886769 110.88632232 C73.12041289 110.91650993 79.24187795 110.93129291 85.36349612 110.93460244 C89.01855152 110.93695052 92.67330788 110.94587844 96.32828331 110.97106361 C100.4100332 110.99873402 104.49116026 110.99450517 108.57299805 110.98754883 C109.77898651 111.00035889 110.98497498 111.01316895 112.22750854 111.02636719 C118.83051497 110.9853344 123.19767591 110.6802459 128.453125 106.51757812 C131.75210927 102.59425313 131.89367126 98.82508102 131.87304688 93.88500977 C131.88151642 93.13313889 131.88998596 92.38126801 131.89871216 91.60661316 C131.92204199 89.13014646 131.92310535 86.65430249 131.921875 84.17773438 C131.92897881 82.45047254 131.93667813 80.72321307 131.94494629 78.99595642 C131.95838169 75.37882931 131.95996403 71.76192044 131.95410156 68.14477539 C131.94820499 63.51647203 131.97879895 58.88921749 132.01921844 54.26111698 C132.04510579 50.69480274 132.04797197 47.12874075 132.04432678 43.5623455 C132.04601694 41.85634156 132.05564949 40.15032583 132.07347107 38.44441414 C132.09568385 36.05541496 132.0859498 33.66853482 132.06835938 31.27954102 C132.08162262 30.57961029 132.09488586 29.87967957 132.10855103 29.15853882 C132.04578783 25.47786954 131.4445133 23.03150301 129.22717285 20.15745544 C125.04035447 16.17313813 121.54878156 15.27082878 115.84976196 15.24342346 C114.73392227 15.23344833 113.61808258 15.22347321 112.46842957 15.2131958 C110.64641777 15.21219879 110.64641777 15.21219879 108.78759766 15.21118164 C106.8575312 15.19869637 106.8575312 15.19869637 104.88847351 15.18595886 C101.36567587 15.16405605 97.84296501 15.15522083 94.32010698 15.15013242 C92.11709477 15.14648422 89.91410512 15.1402418 87.71110153 15.13313103 C80.01963049 15.10865238 72.32822675 15.09558781 64.63671875 15.09204102 C57.47645786 15.08840567 50.31662559 15.05850674 43.15649569 15.01663643 C37.00090753 14.98190714 30.84546127 14.96649213 24.68977582 14.96579498 C21.01682663 14.96500313 17.34431445 14.95630764 13.67146683 14.92779732 C9.57315207 14.89669403 5.47585508 14.90568871 1.37744141 14.91821289 C0.16681534 14.9033786 -1.04381073 14.88854431 -2.29112244 14.8732605 C-10.16780635 14.9418352 -14.97049608 15.83470138 -19.96720886 22.37734985 Z " fill="#040302" transform="translate(77.546875,163.482421875)"/>
<path d="M0 0 C1.11608389 -0.01043099 2.23216778 -0.02086198 3.38207239 -0.03160906 C5.2212982 -0.01822473 5.2212982 -0.01822473 7.09768009 -0.00457001 C8.40022317 -0.01080997 9.70276624 -0.01704993 11.04478031 -0.02347898 C14.66333159 -0.04020892 18.28146202 -0.03190962 21.900015 -0.01953411 C25.80126491 -0.01050069 29.70244138 -0.02444488 33.6036768 -0.0354538 C41.2476814 -0.05326245 48.89152911 -0.04938849 56.53553992 -0.03780323 C62.74727659 -0.02877773 68.95896922 -0.02754108 75.17071056 -0.0318985 C76.05406523 -0.03251143 76.93741989 -0.03312436 77.84754287 -0.03375587 C79.64195109 -0.03503474 81.4363593 -0.0363316 83.2307675 -0.03764623 C100.06672417 -0.04905907 116.90259379 -0.03592765 133.73853619 -0.01444477 C148.18935421 0.00342376 162.64004371 0.0003255 177.09085941 -0.01811981 C193.86411454 -0.03951945 210.63729332 -0.0479571 227.41056019 -0.03567076 C229.19875402 -0.03439654 230.98694786 -0.03313906 232.77514172 -0.0318985 C233.65500938 -0.0312814 234.53487704 -0.03066429 235.44140736 -0.03002849 C241.64627199 -0.02657264 247.85108826 -0.03240907 254.0559454 -0.04181671 C261.61687311 -0.05302815 269.17763468 -0.05001486 276.73854332 -0.02869374 C280.59741632 -0.01817123 284.4560122 -0.01408165 288.31488323 -0.02729034 C292.49516553 -0.04138291 296.67474634 -0.02457199 300.85500431 -0.00457001 C302.07892413 -0.01349289 303.30284395 -0.02241578 304.56385225 -0.03160906 C312.73208085 0.04455376 312.73208085 0.04455376 316.79357338 2.35151672 C318.53983402 4.50336456 318.53983402 4.50336456 319.16483402 7.44086456 C318.52642025 10.56909205 317.74076676 12.26686223 315.40668786 14.45563388 C311.07580571 16.8862463 305.67690708 16.18222488 300.85500431 16.13828278 C299.55090125 16.14608273 298.24679818 16.15388268 296.90317684 16.161919 C293.28487527 16.18280583 289.66723243 16.17246946 286.04892838 16.15698791 C282.14633557 16.1456857 278.24385688 16.16313137 274.34128666 16.17688751 C266.69705796 16.19913602 259.05307454 16.1943118 251.40883618 16.17982431 C245.19758419 16.1685392 238.98640101 16.166998 232.77514172 16.17244339 C231.89163382 16.17320956 231.00812593 16.17397572 230.09784507 16.1747651 C228.30311264 16.1763637 226.50838024 16.17798477 224.71364785 16.17962806 C207.87960561 16.19389007 191.04569945 16.17748533 174.21167953 16.15062623 C159.76053073 16.12828315 145.30958272 16.13217022 130.85843754 16.15522003 C114.08370772 16.1819634 97.30909718 16.19252082 80.53434902 16.17715871 C78.74646956 16.17556593 76.95859007 16.17399408 75.17071056 16.17244339 C74.29099718 16.17167201 73.41128379 16.17090063 72.50491242 16.17010588 C66.29905498 16.16578477 60.09327307 16.17308418 53.88742733 16.18484116 C46.32755844 16.1988483 38.7679492 16.19510387 31.20811015 16.16843744 C27.34930171 16.15527555 23.49092654 16.15018673 19.63212109 16.1666832 C15.45359508 16.18427667 11.2761678 16.1633046 7.09768009 16.13828278 C5.25845428 16.15501319 5.25845428 16.15501319 3.38207239 16.17208159 C-4.78794281 16.07663475 -4.78794281 16.07663475 -8.21378136 13.15508842 C-9.73527154 9.91806853 -10.06157344 8.0366334 -9.46016598 4.50336456 C-6.54581159 0.79205208 -4.66581272 0.00314051 0 0 Z " fill="#010101" transform="translate(65.46016597747803,129.49663543701172)"/>
<path d="M0 0 C9.62457724 5.8523639 15.8837592 14.55517451 19.33984375 25.22265625 C21.76343381 35.41894343 19.4193479 45.40765491 14.64453125 54.61328125 C8.55985352 64.31940256 -0.06354193 69.92988587 -11 73 C-13.65435168 73.21179801 -16.16337986 73.33455237 -18.8125 73.3125 C-19.52027588 73.30686035 -20.22805176 73.3012207 -20.95727539 73.29541016 C-31.57877148 73.04933352 -39.44616326 69.14025315 -47.203125 61.9609375 C-52.08745521 56.84143584 -54.93618296 51.75113033 -57 45 C-57.18949219 44.38769531 -57.37898438 43.77539062 -57.57421875 43.14453125 C-59.6053379 32.914399 -58.37546482 22.95492153 -53 14 C-40.86457093 -2.84149113 -18.97510371 -10.31388702 0 0 Z " fill="#020202" transform="translate(389,308)"/>
<path d="M0 0 C1.11543686 0.00233139 2.23087372 0.00466278 3.38011169 0.00706482 C5.73452417 0.0167952 8.08891347 0.03856569 10.44311523 0.0715332 C14.04901744 0.12096248 17.65355512 0.13301604 21.25976562 0.13867188 C23.54819161 0.15275736 25.83660575 0.16896158 28.125 0.1875 C29.20423233 0.1928627 30.28346466 0.1982254 31.395401 0.20375061 C32.40001877 0.21973801 33.40463654 0.2357254 34.43969727 0.25219727 C35.76276634 0.26815697 35.76276634 0.26815697 37.11256409 0.28443909 C39.71495053 0.58376676 41.3007226 1.14068469 43.49609375 2.55859375 C45.81936255 6.04349695 45.74883489 7.41189131 45.75488281 11.52709961 C45.76118713 12.75524887 45.76749146 13.98339813 45.77398682 15.24876404 C45.77040662 16.59032331 45.76630455 17.93188128 45.76171875 19.2734375 C45.7630662 20.6496233 45.76500741 22.02580863 45.76751709 23.4019928 C45.77046558 26.28618909 45.7661803 29.17026147 45.75683594 32.05444336 C45.74545216 35.74776821 45.75199561 39.44080204 45.76398087 43.13411617 C45.7712161 45.97630496 45.76890373 48.81842504 45.76372528 51.66061592 C45.76239282 53.02215166 45.76402235 54.38369368 45.76868439 55.74522209 C45.77377544 57.65037793 45.76463721 59.55555569 45.75488281 61.46069336 C45.75329163 62.54418564 45.75170044 63.62767792 45.75006104 64.7440033 C45.49093576 67.61575717 45.15470661 69.21432108 43.49609375 71.55859375 C40.51104626 73.58965881 37.99958719 73.82204858 34.43969727 73.86499023 C32.93277061 73.88897133 32.93277061 73.88897133 31.395401 73.91343689 C30.31616867 73.91879959 29.23693634 73.92416229 28.125 73.9296875 C26.4532798 73.94323021 26.4532798 73.94323021 24.74778748 73.95704651 C22.3917001 73.97154846 20.03557246 73.9804356 17.67944336 73.98413086 C14.07532033 73.99603849 10.47290295 74.04523716 6.86914062 74.09570312 C4.57943544 74.10516608 2.28971974 74.11240172 0 74.1171875 C-1.61581215 74.14648598 -1.61581215 74.14648598 -3.26426697 74.17637634 C-7.69332357 74.14966528 -10.71839137 73.96749604 -14.68139648 71.90454102 C-17.68909909 66.38269718 -17.22029632 60.6266358 -17.16796875 54.46484375 C-17.17133978 53.07148821 -17.17619479 51.67813555 -17.1824646 50.28479004 C-17.1898227 47.36942453 -17.17916656 44.45482678 -17.15576172 41.53955078 C-17.12727236 37.80998882 -17.14368236 34.08222581 -17.17362404 30.3527298 C-17.1917271 27.47693423 -17.18592571 24.6015624 -17.17298508 21.72575378 C-17.16965926 20.35108729 -17.1737092 18.97638182 -17.18538284 17.60176086 C-17.25606734 6.93948696 -17.25606734 6.93948696 -14.68139648 2.21264648 C-9.83268701 -0.31136478 -5.38898709 -0.09771502 0 0 Z " fill="#030201" transform="translate(153.50390625,191.44140625)"/>
<path d="M0 0 C6.03365943 4.62873249 9.98514922 9.40332382 12.87890625 16.44140625 C13.29140625 17.36953125 13.70390625 18.29765625 14.12890625 19.25390625 C16.32014495 28.56667073 15.06695047 37.74847015 10.40234375 46.078125 C4.30386891 55.39291876 -3.22431902 60.86976741 -14.12109375 63.44140625 C-24.85656263 64.66321793 -33.2997609 62.30655428 -42.05078125 56.1015625 C-48.96761 50.55504888 -53.40845189 43.18234254 -55.12109375 34.44140625 C-56.05335753 23.16254284 -54.096069 14.22213742 -46.9453125 5.32421875 C-33.8600438 -8.18134766 -15.70822463 -10.63081869 0 0 Z " fill="#040404" transform="translate(197.12109375,51.55859375)"/>
<path d="M0 0 C0.90306051 -0.00623996 1.80612102 -0.01247993 2.73654699 -0.01890898 C5.76916792 -0.03489164 8.80099096 -0.02221401 11.83361816 -0.00964355 C14.0050351 -0.01506232 16.17644835 -0.02218359 18.34785461 -0.03088379 C24.25068199 -0.04914914 30.15323032 -0.04203624 36.0560627 -0.02936745 C42.22683604 -0.01925647 48.39758512 -0.02862783 54.56835938 -0.03491211 C64.93205058 -0.04219405 75.29562784 -0.03258641 85.65930176 -0.0135498 C97.64956536 0.00821996 109.639437 0.001169 121.62970304 -0.02085543 C131.91513511 -0.03899379 142.20048517 -0.04157538 152.48592806 -0.03110075 C158.63297264 -0.02485724 164.77988925 -0.0240538 170.92692566 -0.0372467 C176.70538283 -0.04878176 182.48348848 -0.04082213 188.26190758 -0.01766968 C190.38557539 -0.01237007 192.50927267 -0.01391763 194.63292885 -0.02272034 C197.52627763 -0.03360983 200.41849161 -0.01999194 203.31176758 0 C204.15728731 -0.00892289 205.00280704 -0.01784577 205.87394857 -0.02703905 C209.5106008 0.0218872 211.69906885 0.17259012 214.6734848 2.35608673 C216.73307776 5.34578836 216.80947937 6.94946971 216.15588379 10.50793457 C214.17799632 13.15676348 212.5779127 15.16211675 209.26016331 15.96894765 C206.91829256 16.15423954 204.62327408 16.17426346 202.27416992 16.14285278 C201.37912766 16.15065274 200.4840854 16.15845269 199.56192064 16.16648901 C196.56222425 16.18643569 193.56379276 16.17063383 190.56408691 16.15490723 C188.41384642 16.16168214 186.26361173 16.17058456 184.11338806 16.18145752 C178.27248119 16.20427216 172.43201538 16.19540532 166.59110069 16.17956209 C160.48218969 16.16691446 154.37331676 16.17864005 148.2644043 16.18649292 C138.0050172 16.19559276 127.74580999 16.18359265 117.4864502 16.15979004 C105.62056897 16.1325783 93.75511728 16.14139221 81.88924646 16.16892207 C71.70652413 16.19160246 61.5239312 16.1948184 51.34119177 16.18172872 C45.25726117 16.17392839 39.17353254 16.1729088 33.08961487 16.18941116 C27.37016223 16.20384091 21.65126407 16.19386094 15.93187141 16.16493988 C13.83120203 16.15832115 11.73048608 16.16024009 9.62983513 16.1712532 C6.76512328 16.18488885 3.90219537 16.16781666 1.03759766 16.14285278 C0.20345479 16.15400639 -0.63068809 16.16516 -1.49010801 16.1766516 C-5.75638044 16.10438416 -7.37988419 15.86891561 -10.86406708 13.15965843 C-12.84411621 10.50793457 -12.84411621 10.50793457 -13.40661621 7.44543457 C-11.97453217 -0.03322655 -6.57832812 -0.06942201 0 0 Z " fill="#070707" transform="translate(54.8441162109375,336.4920654296875)"/>
<path d="M0 0 C1.27496149 -0.00935994 1.27496149 -0.00935994 2.57567978 -0.01890898 C5.42866363 -0.03488557 8.28079862 -0.02221658 11.13378906 -0.00964355 C13.1771291 -0.0150626 15.22046524 -0.02218403 17.26379395 -0.03088379 C22.81746467 -0.04914588 28.37083874 -0.04203762 33.92451477 -0.02936745 C39.73093477 -0.01925476 45.53732902 -0.0286283 51.34375 -0.03491211 C61.09542409 -0.04219356 70.84697709 -0.03258772 80.59863281 -0.0135498 C91.87995483 0.00821981 103.1609877 0.0011688 114.4423027 -0.02085543 C124.1205226 -0.03899521 133.79865535 -0.04157469 143.47688675 -0.03110075 C149.26064037 -0.02485802 155.04425799 -0.02405165 160.82800293 -0.0372467 C166.26502548 -0.04878384 171.70167451 -0.0408184 177.13865662 -0.01766968 C179.13654459 -0.01237118 181.13446388 -0.01391577 183.13233948 -0.02272034 C185.85492974 -0.03361435 188.57631512 -0.01998693 191.29882812 0 C192.09376553 -0.00892289 192.88870293 -0.01784577 193.70772934 -0.02703905 C197.21588253 0.02308604 199.26463055 0.22740398 202.13616943 2.32093048 C204.37523933 5.55692744 204.26563352 7.67368016 203.64941406 11.50793457 C200.77383691 14.63474642 199.07314165 15.45176701 194.83096313 16.01409245 C193.30789336 16.03731885 191.78439309 16.03861749 190.26123047 16.02259827 C188.99829635 16.03301656 188.99829635 16.03301656 187.7098484 16.04364532 C184.88995462 16.0619347 182.07090029 16.05164574 179.25097656 16.04138184 C177.22881439 16.04843928 175.2066575 16.05718356 173.18450928 16.06748962 C167.69282285 16.09001158 162.20142423 16.08703746 156.70970917 16.07816815 C152.12696432 16.07306242 147.54427376 16.08034738 142.9615345 16.08764023 C132.15236807 16.1046478 121.34334279 16.10106426 110.53417969 16.08435059 C99.37721099 16.06742241 88.22063334 16.08327162 77.06370735 16.11557347 C67.48820662 16.14224798 57.91282778 16.14955131 48.33729362 16.14105839 C42.61664018 16.13612368 36.89622215 16.13837449 31.17559814 16.1588459 C25.79759497 16.17716968 20.42015559 16.17128452 15.04218292 16.1466465 C13.06728651 16.14162841 11.09234738 16.14515413 9.11748505 16.15779495 C6.42353698 16.1736759 3.73145683 16.15882232 1.03759766 16.13612366 C0.25403711 16.14795939 -0.52952343 16.15979511 -1.33682823 16.1719895 C-5.33362877 16.10345707 -7.1577343 15.65941395 -10.33969116 13.160079 C-12.35058594 10.50793457 -12.35058594 10.50793457 -12.91308594 7.44543457 C-11.5243421 0.19310565 -6.43669803 -0.07224962 0 0 Z " fill="#060606" transform="translate(54.3505859375,307.4920654296875)"/>
<path d="M0 0 C0.84195608 -0.00709439 1.68391216 -0.01418877 2.55138206 -0.02149814 C5.37147096 -0.03909451 8.19018458 -0.0209653 11.01025391 -0.00291443 C13.03241606 -0.00805262 15.05457373 -0.01533314 17.07672119 -0.02459717 C22.56848949 -0.043132 28.0597731 -0.03015924 33.5515213 -0.01050687 C39.29607215 0.00586362 45.04059191 -0.00293104 50.78515625 -0.00802612 C60.4325333 -0.01254886 70.07971657 0.00333403 79.72705078 0.03126526 C90.88398313 0.06331786 102.04056595 0.06330194 113.19752312 0.04605049 C123.9259365 0.03019206 134.65422163 0.0369146 145.38262939 0.0539875 C149.95033172 0.06086383 154.51793142 0.05981954 159.08563232 0.05244255 C164.46359279 0.04478692 169.84115502 0.05688253 175.21904755 0.08429146 C177.19393481 0.09118391 179.16885921 0.09126408 181.14374542 0.08407593 C183.8374871 0.07540038 186.52999445 0.09130482 189.22363281 0.11352539 C190.00719336 0.10528462 190.7907539 0.09704386 191.5980587 0.08855337 C195.25835385 0.14437189 197.44527986 0.52715547 200.60092163 2.44160557 C202.61181641 4.62818909 202.61181641 4.62818909 203.17431641 8.12818909 C202.51032494 12.25969154 201.95373061 13.19173037 198.61181641 15.62818909 C195.70178547 16.02095849 193.17051453 16.16877933 190.26123047 16.13612366 C189.41125614 16.14236362 188.56128181 16.14860358 187.68555069 16.15503263 C184.83256684 16.17100923 181.98043185 16.15834023 179.12744141 16.14576721 C177.08410137 16.15118626 175.04076523 16.15830769 172.99743652 16.16700745 C167.4437658 16.18526954 161.89039173 16.17816128 156.3367157 16.1654911 C150.5302957 16.15537842 144.72390144 16.16475196 138.91748047 16.17103577 C129.16580637 16.17831721 119.41425337 16.16871137 109.66259766 16.14967346 C98.38127564 16.12790384 87.10024277 16.13495486 75.81892776 16.15697908 C66.14070787 16.17511887 56.46257512 16.17769835 46.78434372 16.16722441 C41.0005901 16.16098168 35.21697247 16.16017531 29.43322754 16.17337036 C23.99620499 16.1849075 18.55955596 16.17694206 13.12257385 16.15379333 C11.12468588 16.14849483 9.12676659 16.15003943 7.12889099 16.15884399 C4.40630073 16.16973801 1.68491535 16.15611059 -1.03759766 16.13612366 C-1.83253506 16.14504654 -2.62747246 16.15396943 -3.44649887 16.16316271 C-6.978575 16.1126958 -9.0016152 15.91548603 -11.87493896 13.78003693 C-13.38818359 11.62818909 -13.38818359 11.62818909 -13.95068359 8.69068909 C-12.53954693 1.00783393 -6.87051157 -0.10377948 0 0 Z " fill="#070707" transform="translate(55.38818359375,364.37181091308594)"/>
<path d="M0 0 C1.04788696 -0.01260864 2.09577393 -0.02521729 3.17541504 -0.03820801 C4.86459045 -0.02606262 4.86459045 -0.02606262 6.58789062 -0.01367188 C8.32975647 -0.01941223 8.32975647 -0.01941223 10.10681152 -0.02526855 C12.56128812 -0.0279898 15.01579361 -0.02061392 17.47021484 -0.00390625 C21.23014904 0.01749847 24.98817222 -0.00370276 28.74804688 -0.02929688 C31.13216568 -0.02665364 33.5162833 -0.02152875 35.90039062 -0.01367188 C37.02650757 -0.0217688 38.15262451 -0.02986572 39.31286621 -0.03820801 C40.36075317 -0.02559937 41.40864014 -0.01299072 42.48828125 0 C43.86916931 0.00477356 43.86916931 0.00477356 45.2779541 0.00964355 C48.53645184 0.68076215 49.72946238 1.91262795 51.74414062 4.51757812 C52.15401898 7.42743305 52.32913727 9.95224266 52.31054688 12.86132812 C52.31984474 14.07048889 52.31984474 14.07048889 52.32933044 15.30407715 C52.33642187 17.00527745 52.33326633 18.70654724 52.32055664 20.40771484 C52.30668403 23.00943699 52.3407731 25.60756566 52.37890625 28.20898438 C52.37985744 29.86393317 52.37799863 31.51888646 52.37304688 33.17382812 C52.38630508 33.9499646 52.39956329 34.72610107 52.41322327 35.52575684 C52.35281136 39.03270586 52.01101816 41.15320896 49.92163086 44.00585938 C45.09387636 46.30270577 40.55820835 46.08865284 35.27539062 46.04882812 C34.16232544 46.05265503 33.04926025 46.05648193 31.90246582 46.0604248 C29.55231826 46.06314326 27.20214041 46.05578683 24.85205078 46.0390625 C21.25680013 46.01765351 17.66354794 46.0388681 14.06835938 46.06445312 C11.78319872 46.06180984 9.4980393 46.05668485 7.21289062 46.04882812 C6.13881958 46.05692505 5.06474854 46.06502197 3.95812988 46.07336426 C-0.37305184 46.01900087 -3.49014438 45.88187373 -7.43334961 44.00585938 C-9.99464572 40.50890962 -9.95607106 37.34805309 -9.88476562 33.17382812 C-9.88717758 32.36772095 -9.88958954 31.56161377 -9.89207458 30.7310791 C-9.89109678 29.0298164 -9.87771865 27.32852164 -9.8527832 25.62744141 C-9.81846936 23.02591693 -9.83212541 20.42778942 -9.8515625 17.82617188 C-9.84466382 16.17120952 -9.83499123 14.51625593 -9.82226562 12.86132812 C-9.82722549 12.08519165 -9.83218536 11.30905518 -9.83729553 10.50939941 C-9.76417807 7.15022732 -9.63894121 5.01289747 -7.55101013 2.31323242 C-4.78843278 0.15187815 -3.47135303 0.01200004 0 0 Z " fill="#020201" transform="translate(77.255859375,219.482421875)"/>
<path d="M0 0 C0.89074219 -0.00515625 1.78148438 -0.0103125 2.69921875 -0.015625 C3.61832031 -0.00015625 4.53742188 0.0153125 5.484375 0.03125 C6.83982422 0.00804687 6.83982422 0.00804687 8.22265625 -0.015625 C16.0115725 0.02920329 22.18332349 1.87816173 28.109375 7.03125 C33.23657782 13.06325331 34.60919259 16.99204418 34.515625 24.93359375 C33.80443695 31.50220558 30.18432001 36.32379674 25.234375 40.53125 C22.921875 41.84375 22.921875 41.84375 21.234375 42.53125 C22.79254684 46.18109816 25.04561899 48.6998454 27.734375 51.59375 C34.09856662 58.46418413 34.09856662 58.46418413 34.671875 62.96875 C34.234375 66.53125 34.234375 66.53125 32.171875 69.03125 C28.29131159 71.01281429 26.42602056 70.58592211 22.234375 69.53125 C19.57421875 67.2734375 19.57421875 67.2734375 17.171875 64.40625 C16.32753906 63.41753906 15.48320313 62.42882812 14.61328125 61.41015625 C13.82824219 60.46011719 13.04320313 59.51007813 12.234375 58.53125 C11.02797908 57.13374185 9.82002642 55.73757326 8.609375 54.34375 C7.825625 53.415625 7.041875 52.4875 6.234375 51.53125 C6.21310547 52.96017578 6.21310547 52.96017578 6.19140625 54.41796875 C5.75293152 65.94866899 5.75293152 65.94866899 3.046875 68.90625 C-0.30562472 70.84324984 -1.96096369 71.25980217 -5.765625 70.53125 C-8.54317554 68.39339604 -9.64150819 67.20839663 -10.2802887 63.72338867 C-10.28648727 62.6429126 -10.29268585 61.56243652 -10.29907227 60.44921875 C-10.32282677 58.60710815 -10.32282677 58.60710815 -10.34706116 56.7277832 C-10.34321982 55.39143493 -10.33818085 54.05508964 -10.33203125 52.71875 C-10.33726776 51.34398986 -10.34354434 49.96923331 -10.35081482 48.59448242 C-10.36121408 45.71613636 -10.35666471 42.83828482 -10.34204102 39.95996094 C-10.32484559 36.27403523 -10.34835694 32.5896673 -10.38353062 28.90391541 C-10.40550609 26.06593528 -10.40406322 23.22832794 -10.3957653 20.39028931 C-10.39494598 19.03152761 -10.40180607 17.67273849 -10.41653633 16.3140564 C-10.43398101 14.41386662 -10.41612072 12.51345215 -10.39672852 10.61328125 C-10.39576675 9.53280518 -10.39480499 8.4523291 -10.39381409 7.33911133 C-9.765625 4.53125 -9.765625 4.53125 -7.37321472 2.18347168 C-4.60219701 0.42769871 -3.2336182 0.01832078 0 0 Z " fill="#030303" transform="translate(102.765625,44.46875)"/>
<path d="M0 0 C1.2183252 -0.00990463 2.43665039 -0.01980927 3.69189453 -0.03001404 C5.03898721 -0.02577605 6.38607892 -0.0212182 7.73316956 -0.01637268 C9.1542057 -0.02207597 10.57523726 -0.02904008 11.9962616 -0.03717041 C15.85374144 -0.05512198 19.71099406 -0.05392971 23.56850314 -0.04822803 C26.78923465 -0.04513894 30.00992234 -0.05122552 33.23064762 -0.05726677 C40.82901879 -0.07131704 48.42727754 -0.06974666 56.02565002 -0.05836487 C63.86354081 -0.0468837 71.70108943 -0.06095796 79.53893512 -0.08776134 C86.26942366 -0.10991578 92.99980477 -0.1165563 99.73032719 -0.11068493 C103.74965772 -0.10731343 107.76876891 -0.10974299 111.78806877 -0.12693596 C115.56798574 -0.14239904 119.34739575 -0.13845719 123.12729263 -0.11963081 C124.51360667 -0.11594305 125.89995822 -0.11905896 127.28623772 -0.1295166 C129.18037001 -0.14271312 131.07463316 -0.12877911 132.96875 -0.11352539 C134.02822562 -0.11331611 135.08770124 -0.11310682 136.17928219 -0.1128912 C139.78941555 0.51708114 141.47340006 1.82138017 144.04786682 4.38768005 C144.85574703 8.18471702 144.44121306 9.76514959 142.3722229 13.03964233 C137.86791316 17.26317564 130.99854309 16.07145612 125.23316956 16.01878357 C123.81035978 16.0239241 122.38755638 16.0312064 120.96476746 16.04046631 C117.10723977 16.0589704 113.25040383 16.04604932 109.392905 16.02637601 C105.35487493 16.00998288 101.31688845 16.01880317 97.27883911 16.02389526 C90.4990179 16.02841498 83.7194727 16.01255285 76.93971252 15.98460388 C69.10118801 15.95253943 61.26316091 15.95257299 53.42460102 15.96981865 C45.88269528 15.98568038 38.34097193 15.97895336 30.79907417 15.96188164 C27.58978992 15.95500882 24.38065176 15.95604585 21.17136955 15.96342659 C17.39303867 15.97108606 13.61527422 15.95897525 9.83703995 15.93157768 C8.45032114 15.92468956 7.06354946 15.92460053 5.6768322 15.93179321 C3.78454926 15.94047749 1.89219966 15.9221063 0 15.90234375 C-1.0590986 15.89953683 -2.11819719 15.89672991 -3.20938969 15.89383793 C-6.63334368 15.26196649 -7.8165009 14.08105193 -9.95213318 11.38768005 C-10.72458285 8.42851624 -10.3499346 6.52036627 -9.95213318 3.38768005 C-6.87344062 0.19279339 -4.32052677 0.00991261 0 0 Z " fill="#020202" transform="translate(253.95213317871094,192.61231994628906)"/>
<path d="M0 0 C1.40378906 -0.00290039 1.40378906 -0.00290039 2.8359375 -0.00585938 C4.28613281 0.02991211 4.28613281 0.02991211 5.765625 0.06640625 C6.71695313 0.05544922 7.66828125 0.04449219 8.6484375 0.03320312 C16.48192701 0.11368418 22.15061613 2.25719626 28.765625 6.31640625 C33.53083838 11.21398667 36.30663241 16.21554144 36.578125 23.12890625 C36.1582418 30.83753114 33.78295743 36.33607784 28.078125 41.56640625 C22.82429629 45.98463596 18.5313607 46.88153682 11.703125 46.75390625 C9.82173828 46.72683594 9.82173828 46.72683594 7.90234375 46.69921875 C6.47341797 46.66441406 6.47341797 46.66441406 5.015625 46.62890625 C5.10263672 48.59923828 5.10263672 48.59923828 5.19140625 50.609375 C5.23831548 52.34501648 5.28381439 54.08069648 5.328125 55.81640625 C5.3909668 57.11288086 5.3909668 57.11288086 5.45507812 58.43554688 C5.54190065 62.96768283 5.48955491 64.98623469 2.72265625 68.73828125 C0.015625 70.62890625 0.015625 70.62890625 -3.609375 70.69140625 C-7.37592135 69.50564166 -8.07904323 68.96246322 -9.984375 65.62890625 C-10.37878418 62.90370178 -10.37878418 62.90370178 -10.40429688 59.74633789 C-10.42020874 58.56153336 -10.43612061 57.37672882 -10.45251465 56.15602112 C-10.45271606 54.87992477 -10.45291748 53.60382843 -10.453125 52.2890625 C-10.46073853 50.97481796 -10.46835205 49.66057343 -10.47619629 48.3065033 C-10.48963026 45.52659567 -10.49121494 42.74697198 -10.48535156 39.96704102 C-10.47945596 36.41128413 -10.51004285 32.85689295 -10.55046844 29.30140018 C-10.58259332 25.90141105 -10.57822914 22.50170293 -10.578125 19.1015625 C-10.59452026 17.82749039 -10.61091553 16.55341827 -10.62780762 15.24073792 C-10.55919878 6.48193565 -10.55919878 6.48193565 -7.75878906 2.32617188 C-4.85116609 0.54741484 -3.37131957 -0.00291637 0 0 Z " fill="#030303" transform="translate(48.984375,44.37109375)"/>
<path d="M0 0 C1.54586876 3.09173752 1.29359521 5.59429552 1 9 C-0.625 11.4375 -0.625 11.4375 -3 13 C-7.11345445 13.76529385 -9.7279762 12.75760183 -13.375 11 C-18.53913937 8.57795808 -22.53702019 7.81612939 -28.13671875 9.73046875 C-33.94140667 12.35920912 -37.51834781 16.09429606 -40 22 C-40.91504286 28.74242108 -40.7566324 34.72843561 -36.609375 40.30859375 C-32.56157536 44.56271327 -28.46634845 47.24360896 -22.5 47.5625 C-17.21097932 47.25138114 -12.11663406 45.30855683 -8.4921875 41.35546875 C-7 40 -7 40 -3.5 40.125 C0 41 0 41 1.9375 42.125 C3.70590549 45.24571558 3.47628428 47.4874034 3 51 C-0.80691216 57.3448536 -6.98652119 60.39324614 -13.92578125 62.6171875 C-22.6506112 64.22741977 -31.34423955 63.62070979 -39 59 C-47.76347299 52.45951942 -53.42170799 45.67188693 -56 35 C-56.80299892 26.27905829 -56.76915047 18.52400137 -52 11 C-51.56429688 10.30390625 -51.12859375 9.6078125 -50.6796875 8.890625 C-45.19400084 0.91689466 -37.90417175 -3.9474084 -28.6875 -6.6875 C-17.989813 -7.93141709 -9.07622446 -6.03497648 0 0 Z " fill="#040404" transform="translate(356,52)"/>
<path d="M0 0 C1.27423828 -0.00193359 2.54847656 -0.00386719 3.86132812 -0.00585938 C4.51963623 0.00662842 5.17794434 0.01911621 5.85620117 0.03198242 C7.86974368 0.06638318 9.87891232 0.05261018 11.89257812 0.03320312 C21.62652145 0.10713181 21.62652145 0.10713181 24.68334961 2.44555664 C26.30859375 4.62890625 26.30859375 4.62890625 26.87109375 8.12890625 C26.30859375 11.62890625 26.30859375 11.62890625 24.32421875 13.83203125 C20.2526427 16.25809988 17.13214965 16.08098077 12.49609375 15.87890625 C11.31370117 15.85183594 11.31370117 15.85183594 10.10742188 15.82421875 C8.17395114 15.77734673 6.2411109 15.70561035 4.30859375 15.62890625 C4.30859375 19.58890625 4.30859375 23.54890625 4.30859375 27.62890625 C5.95408203 27.54189453 5.95408203 27.54189453 7.6328125 27.453125 C9.08719689 27.40620937 10.54162749 27.36071114 11.99609375 27.31640625 C12.71732422 27.27451172 13.43855469 27.23261719 14.18164062 27.18945312 C18.37427406 27.0937309 19.87452048 27.29478776 23.328125 29.953125 C25.30859375 32.62890625 25.30859375 32.62890625 25.30859375 35.75390625 C24.03257316 39.42246544 22.73980931 40.91329847 19.30859375 42.62890625 C16.59099267 42.70072446 13.89999987 42.72190131 11.18359375 42.69140625 C10.42949219 42.68689453 9.67539062 42.68238281 8.8984375 42.67773438 C7.03512248 42.66594124 5.1718482 42.64800567 3.30859375 42.62890625 C3.30859375 46.58890625 3.30859375 50.54890625 3.30859375 54.62890625 C4.54996094 54.5825 5.79132813 54.53609375 7.0703125 54.48828125 C8.71221546 54.45075204 10.35414452 54.41435311 11.99609375 54.37890625 C12.81271484 54.34539062 13.62933594 54.311875 14.47070312 54.27734375 C18.55571892 54.21118965 20.76018935 54.3050731 24.3515625 56.42578125 C26.30859375 58.62890625 26.30859375 58.62890625 26.93359375 62.12890625 C26.30859375 65.62890625 26.30859375 65.62890625 24.17407227 67.81445312 C20.77163721 69.96891315 18.83590276 70.14406328 14.8359375 70.16015625 C12.99225586 70.16789062 12.99225586 70.16789062 11.11132812 70.17578125 C9.83580078 70.1603125 8.56027344 70.14484375 7.24609375 70.12890625 C5.32700195 70.15210937 5.32700195 70.15210937 3.36914062 70.17578125 C2.14130859 70.170625 0.91347656 70.16546875 -0.3515625 70.16015625 C-1.47183838 70.15564453 -2.59211426 70.15113281 -3.74633789 70.14648438 C-7.3171574 69.51893423 -8.46351296 68.42576921 -10.69140625 65.62890625 C-11.99390153 63.02391568 -11.84716193 61.07429163 -11.88427734 58.15698242 C-11.90034027 57.01206833 -11.9164032 55.86715424 -11.93295288 54.68754578 C-11.97731572 49.44918575 -12.01890725 44.21091337 -12.04150391 38.97241211 C-12.05483894 36.20677582 -12.08268179 33.44187817 -12.12353516 30.67651367 C-12.18234101 26.69582093 -12.20016507 22.7154873 -12.21484375 18.734375 C-12.23751312 17.49777634 -12.2601825 16.26117767 -12.28353882 14.98710632 C-12.26262174 6.51491351 -12.26262174 6.51491351 -9.5769043 2.34912109 C-6.11414875 0.28476915 -4.02006519 -0.00250575 0 0 Z " fill="#060606" transform="translate(269.69140625,45.37109375)"/>
<path d="M0 0 C6.53287988 3.67842336 10.27639729 8.04126757 13.3515625 14.77734375 C15.16882185 23.0376135 13.98516433 28.62983459 9.96484375 36.15234375 C6.59754411 40.96082031 2.17856439 43.33259281 -2.9609375 45.90234375 C-12.470286 46.59393273 -18.97561581 46.09253493 -26.6484375 40.27734375 C-32.20822622 35.16834871 -34.16337792 29.34989184 -34.5234375 21.90234375 C-34.25835985 14.95730939 -31.99218064 10.11311381 -27.24609375 5.0859375 C-19.68984943 -1.77585986 -9.72581146 -3.60547892 0 0 Z " fill="#F7F4F4" transform="translate(379.9609375,320.09765625)"/>
<path d="M0 0 C1.46671394 -0.01073296 1.46671394 -0.01073296 2.96305847 -0.02168274 C6.1913441 -0.03857474 9.41824208 -0.01916337 12.64648438 0.00219727 C14.89180618 0.00136862 17.13712793 -0.0010906 19.38244629 -0.00511169 C24.08669305 -0.00797006 28.7904638 0.00673587 33.49462891 0.03417969 C39.52413746 0.06826195 45.55279476 0.0622443 51.58234406 0.04351711 C56.21835421 0.03294781 60.85416634 0.04188444 65.49015808 0.05690193 C67.7133068 0.06208467 69.9364762 0.06160084 72.15962219 0.05535698 C75.26702328 0.04990582 78.37320643 0.07027787 81.48046875 0.09765625 C82.39906174 0.09113037 83.31765472 0.08460449 84.26408386 0.07788086 C88.45621651 0.1406755 90.67649398 0.28115811 94.31091309 2.5372467 C96.40758651 4.8127277 96.90241823 5.650314 96.80273438 8.69360352 C96.24023438 12.63110352 96.24023438 12.63110352 94.82043457 14.35194397 C90.77974231 16.35515678 86.84514272 16.05641452 82.39453125 16.03515625 C81.39575455 16.0420195 80.39697784 16.04888275 79.36793518 16.05595398 C76.06480719 16.07426307 72.76215224 16.07037887 69.45898438 16.06469727 C67.16499679 16.06925675 64.87101058 16.07456163 62.57702637 16.08058167 C57.76857962 16.08952062 52.9602989 16.08708024 48.15185547 16.07714844 C41.98439072 16.06565203 35.81749793 16.08587706 29.65010834 16.11506557 C24.91294708 16.13339408 20.17592377 16.13314188 15.43873596 16.12742805 C13.16450701 16.12727446 10.89026893 16.13335002 8.61607361 16.14571953 C5.43899424 16.16056581 2.262983 16.14999905 -0.9140625 16.1328125 C-1.85652328 16.14248047 -2.79898407 16.15214844 -3.77000427 16.16210938 C-10.11890556 16.0900437 -10.11890556 16.0900437 -13.33996582 13.78334045 C-15.31900654 10.78336501 -15.40744476 9.1573566 -14.75976562 5.63110352 C-10.54193085 -0.17905014 -6.64727956 -0.08460909 0 0 Z " fill="#040404" transform="translate(56.759765625,394.368896484375)"/>
<path d="M0 0 C0.89148743 -0.00686325 1.78297485 -0.0137265 2.70147705 -0.02079773 C5.64750099 -0.03909523 8.59299395 -0.03522438 11.5390625 -0.02954102 C13.58642755 -0.03410106 15.63379106 -0.0394061 17.68115234 -0.04542542 C21.97174296 -0.05436207 26.26214748 -0.05192664 30.55273438 -0.04199219 C36.05434947 -0.03049573 41.5553234 -0.05072176 47.05685425 -0.07990932 C51.2844654 -0.09824312 55.51192206 -0.09798459 59.73956299 -0.0922718 C61.76817729 -0.09211828 63.79680186 -0.09818847 65.82537842 -0.11056328 C68.66003836 -0.12541994 71.49350281 -0.11483588 74.328125 -0.09765625 C75.16772766 -0.10732422 76.00733032 -0.11699219 76.87237549 -0.12695312 C80.51130329 -0.08070761 82.70491015 0.06699494 85.68115234 2.2518158 C87.74121554 5.24170974 87.81773528 6.84516761 87.1640625 10.40405273 C85.18353308 13.05464631 83.58387598 15.06006506 80.26266289 15.86471748 C77.93047383 16.04834498 75.64566753 16.06824281 73.30639648 16.03515625 C71.98357666 16.04588921 71.98357666 16.04588921 70.6340332 16.05683899 C67.72554371 16.07371711 64.81859736 16.05433032 61.91015625 16.03295898 C59.88664116 16.03378769 57.86312613 16.03624713 55.83961487 16.04026794 C51.60193585 16.04312524 47.36478558 16.0284298 43.12719727 16.00097656 C37.69393431 15.96687233 32.26161548 15.97291999 26.82830715 15.99163914 C22.65127179 16.00220382 18.47445639 15.99327647 14.29744148 15.97825432 C12.29396276 15.97306962 10.2904611 15.97355779 8.2869854 15.97979927 C5.48826499 15.98524587 2.69089997 15.96489517 -0.10766602 15.9375 C-0.93634689 15.94402588 -1.76502777 15.95055176 -2.61882019 15.95727539 C-6.27125114 15.89644086 -8.39454798 15.73894386 -11.34825134 13.49790955 C-13.88148441 9.93248864 -13.3811969 7.69797049 -12.8359375 3.40405273 C-9.41352173 -0.57797292 -4.85771509 -0.02604532 0 0 Z " fill="#030303" transform="translate(256.8359375,221.595947265625)"/>
<path d="M0 0 C0.75792847 -0.00619858 1.51585693 -0.01239716 2.29675293 -0.01878357 C3.89362305 -0.02586364 5.49056727 -0.02273933 7.08740234 -0.01000977 C9.52449808 0.0038678 11.95775885 -0.03024639 14.39453125 -0.06835938 C15.95052177 -0.06931059 17.50651707 -0.06745161 19.0625 -0.0625 C20.14863586 -0.08238731 20.14863586 -0.08238731 21.25671387 -0.10267639 C25.15322284 -0.03130157 26.90999574 0.47286866 30.02929688 2.87915039 C32.03125 5.56640625 32.03125 5.56640625 32.03125 9.19140625 C30.72042669 13.61543493 30.72042669 13.61543493 28.03125 15.56640625 C25.33203125 15.859375 25.33203125 15.859375 22.34375 15.75390625 C21.34988281 15.72683594 20.35601562 15.69976562 19.33203125 15.671875 C18.57277344 15.63707031 17.81351562 15.60226563 17.03125 15.56640625 C17.04235306 16.181707 17.05345612 16.79700775 17.06489563 17.43095398 C17.17556497 23.83850581 17.2509488 30.24578593 17.3059082 36.65405273 C17.33104315 39.04511544 17.36515633 41.43610139 17.40844727 43.8269043 C17.46914061 47.26500389 17.49747072 50.70208721 17.51953125 54.140625 C17.54533768 55.20850754 17.5711441 56.27639008 17.59773254 57.37663269 C17.60053142 64.79272778 17.60053142 64.79272778 14.69213867 68.74536133 C12.03125 70.56640625 12.03125 70.56640625 8.96875 71.12890625 C5.34235694 70.43449056 4.32664524 69.41056993 2.03125 66.56640625 C1.55023193 64.14923096 1.55023193 64.14923096 1.57714844 61.43066406 C1.57745056 60.40990784 1.57775269 59.38915161 1.57806396 58.33746338 C1.59870911 57.24254578 1.61935425 56.14762817 1.640625 55.01953125 C1.64628479 53.89319275 1.65194458 52.76685425 1.65777588 51.60638428 C1.68016455 48.00929243 1.73036787 44.41319699 1.78125 40.81640625 C1.80131167 38.37761855 1.81956302 35.93881524 1.8359375 33.5 C1.88003756 27.52179551 1.94697537 21.54417206 2.03125 15.56640625 C1.2683667 15.58453369 0.5054834 15.60266113 -0.28051758 15.62133789 C-1.27720459 15.63543701 -2.2738916 15.64953613 -3.30078125 15.6640625 C-4.29053955 15.68218994 -5.28029785 15.70031738 -6.30004883 15.71899414 C-8.96875 15.56640625 -8.96875 15.56640625 -11.65625 14.00390625 C-13.50567533 10.56925921 -13.5858665 8.40624224 -12.96875 4.56640625 C-9.06478789 0.38218607 -5.46823064 -0.03745624 0 0 Z " fill="#050505" transform="translate(376.96875,44.43359375)"/>
<path d="M0 0 C10.56 0 21.12 0 32 0 C32 14.19 32 28.38 32 43 C21.44 43 10.88 43 0 43 C0 28.81 0 14.62 0 0 Z " fill="#B7E76A" transform="translate(152,207)"/>
<path d="M0 0 C6.0625445 2.73340157 9.91919346 7.03407564 13.21484375 12.7265625 C14.71573718 19.0303149 14.53657047 23.77916524 11.46484375 29.6015625 C7.93880385 34.91545362 3.91895156 37.54668707 -2.16015625 39.3515625 C-7.93241782 40.49187145 -12.02268058 39.83577409 -17.03515625 36.7265625 C-21.65777187 33.27185154 -24.31806739 29.87782909 -26.16015625 24.3515625 C-26.79264879 18.51396741 -26.55279514 13.35881331 -23.640625 8.17578125 C-17.78615651 0.96196387 -9.00046201 -2.70176617 0 0 Z " fill="#F5F2F2" transform="translate(183.16015625,60.6484375)"/>
<path d="M0 0 C3.33364059 0.98774536 4.36241468 1.32149861 6.375 4 C6.76268005 6.28105164 6.76268005 6.28105164 6.77905273 8.98706055 C6.79173691 10.00209152 6.80442108 11.0171225 6.81748962 12.06291199 C6.81455399 13.15976822 6.81161835 14.25662445 6.80859375 15.38671875 C6.8138356 16.51769485 6.81907745 17.64867096 6.82447815 18.81391907 C6.83090748 21.21049173 6.82954964 23.60709591 6.82104492 26.00366211 C6.81257303 29.65601606 6.84122428 33.30678654 6.87304688 36.95898438 C6.87466 39.28906203 6.87407924 41.61914245 6.87109375 43.94921875 C6.88794472 45.57932137 6.88794472 45.57932137 6.90513611 47.24235535 C6.84666755 53.66696103 6.14515548 58.66739258 2.375 64 C-2.74349408 68.86256937 -7.04628061 70.52062164 -14.01953125 70.38671875 C-19.25945239 69.60897933 -22.96025808 66.66474192 -26.625 63 C-27.9577755 60.334449 -28.19953668 58.94450049 -27.625 56 C-25.5625 53.125 -25.5625 53.125 -22.625 51 C-18.60465076 51.06814151 -16.5073175 51.1176825 -13.625 54 C-12.305 54 -10.985 54 -9.625 54 C-9.62357498 53.39722733 -9.62214996 52.79445465 -9.62068176 52.17341614 C-9.60098288 45.89501543 -9.54670521 39.61758672 -9.47241211 33.33959961 C-9.44922668 30.99722265 -9.43483514 28.65474136 -9.42944336 26.31225586 C-9.42015824 22.94318584 -9.3791743 19.57575809 -9.33203125 16.20703125 C-9.3359639 15.16102249 -9.33989655 14.11501373 -9.34394836 13.03730774 C-9.24783366 8.23898876 -9.18186968 5.76898817 -6.30737305 1.79956055 C-3.625 0 -3.625 0 0 0 Z " fill="#050505" transform="translate(240.625,45)"/>
<path d="M0 0 C10.89 0 21.78 0 33 0 C33 4.95 33 9.9 33 15 C22.11 15 11.22 15 0 15 C0 10.05 0 5.1 0 0 Z " fill="#F05E68" transform="translate(82,235)"/>
<path d="M0 0 C9.91071429 -0.66964286 9.91071429 -0.66964286 13.625 2.125 C16 5 16 5 16.6875 8 C15.71813589 12.22995247 14.63075002 13.57949999 11 16 C7.22851721 16.41846508 3.81542502 16.22984488 0 16 C0 10.72 0 5.44 0 0 Z " fill="#F2EFEF" transform="translate(54,60)"/>
<path d="M0 0 C0.66 0 1.32 0 2 0 C2 4.95 2 9.9 2 15 C-3.61 15 -9.22 15 -15 15 C-15 12.69 -15 10.38 -15 8 C-14.00097656 7.50628906 -13.00195312 7.01257813 -11.97265625 6.50390625 C-10.6692186 5.85687605 -9.36583602 5.20973489 -8.0625 4.5625 C-7.40314453 4.23701172 -6.74378906 3.91152344 -6.06445312 3.57617188 C-2.81709965 2.10888654 -2.81709965 2.10888654 0 0 Z " fill="#DBD8EB" transform="translate(415,410)"/>
<path d="M0 0 C8.08978328 -0.48297214 8.08978328 -0.48297214 12.0625 1.625 C14 4 14 4 14.625 7 C14 10 14 10 12.0625 12.375 C7.79694123 14.63835772 4.79214336 14.28609811 0 14 C0 9.38 0 4.76 0 0 Z " fill="#F0EEEE" transform="translate(108,60)"/>
</svg>
