<?xml version="1.0" encoding="UTF-8"?>
<svg version="1.1" xmlns="http://www.w3.org/2000/svg" width="512" height="512">
<path d="M0 0 C18.62856748 -0.48571418 40.2097288 1.85222199 54.92578125 14.2265625 C72.50519912 31.05299048 73.87101719 54.66717353 74.49267578 77.75 C75.10216604 106.554817 70.64141745 130.79178008 54.421875 155.12109375 C73.231875 155.12109375 92.041875 155.12109375 111.421875 155.12109375 C111.40125 159.70886719 111.380625 164.29664063 111.359375 169.0234375 C111.3641082 171.94481727 111.37120125 174.86581543 111.38671875 177.78710938 C111.41108171 182.41549664 111.42710729 187.04277976 111.39111328 191.67114258 C111.36261339 195.40655951 111.37348229 199.14004823 111.41067505 202.87536812 C111.41807263 204.29417095 111.4117224 205.71311984 111.39083862 207.13178825 C111.29234629 214.42747104 111.33257357 219.733616 116.3371582 225.34472656 C117.6935444 226.60910207 119.05457776 227.86852551 120.421875 229.12109375 C131.98954494 244.82488407 137.59745416 264.57746173 137.51953125 283.90234375 C137.51740883 284.95077454 137.51740883 284.95077454 137.51524353 286.02038574 C137.5097117 288.22066804 137.49717277 290.42084298 137.484375 292.62109375 C137.47935116 294.1263006 137.47478982 295.63150907 137.47070312 297.13671875 C137.46062182 300.79825025 137.44103422 304.45955391 137.421875 308.12109375 C144.681875 308.12109375 151.941875 308.12109375 159.421875 308.12109375 C159.421875 319.34109375 159.421875 330.56109375 159.421875 342.12109375 C56.461875 342.12109375 -46.498125 342.12109375 -152.578125 342.12109375 C-152.578125 330.90109375 -152.578125 319.68109375 -152.578125 308.12109375 C-145.318125 308.12109375 -138.058125 308.12109375 -130.578125 308.12109375 C-130.62453125 305.57519531 -130.6709375 303.02929688 -130.71875 300.40625 C-130.75014852 297.87738019 -130.77431984 295.34853398 -130.79785156 292.81958008 C-130.81768548 291.09258948 -130.8447614 289.36566336 -130.87988281 287.63891602 C-131.29733061 266.5516631 -127.14473809 247.53515723 -114.578125 230.12109375 C-113.94336746 229.48008728 -113.30860992 228.83908081 -112.65461731 228.1786499 C-105.82859967 220.89056741 -105.43548384 214.57851671 -105.578125 204.92578125 C-105.57059127 203.48273541 -105.5595439 202.03970408 -105.54516602 200.59671021 C-105.51694201 196.83151748 -105.53587931 193.06804256 -105.56524658 189.30291748 C-105.59056355 184.76806133 -105.55623892 180.23329725 -105.53211975 175.69848633 C-105.50220642 168.83836174 -105.54720069 161.98242579 -105.578125 155.12109375 C-77.363125 154.62609375 -77.363125 154.62609375 -48.578125 154.12109375 C-50.888125 150.49109375 -53.198125 146.86109375 -55.578125 143.12109375 C-56.90789435 140.54920464 -58.13727703 138.08124928 -59.265625 135.43359375 C-59.55324707 134.76787354 -59.84086914 134.10215332 -60.13720703 133.41625977 C-65.2360113 121.15471272 -67.71253779 108.20815046 -67.78125 94.953125 C-67.78695007 94.07822922 -67.79265015 93.20333344 -67.79852295 92.30192566 C-67.80793621 90.45040071 -67.81449225 88.59885929 -67.81835938 86.74731445 C-67.82794027 83.98682034 -67.85894559 81.22711271 -67.890625 78.46679688 C-68.02217878 56.45543592 -66.39430646 33.10357625 -50.7734375 16.1640625 C-37.08848108 3.13212268 -18.01368782 0.84609746 0 0 Z " fill="#4D4F7F" transform="translate(254.578125,169.87890625)"/>
<path d="M0 0 C18.62856748 -0.48571418 40.2097288 1.85222199 54.92578125 14.2265625 C72.50519912 31.05299048 73.87101719 54.66717353 74.49267578 77.75 C75.09001982 105.98078051 71.16786013 131.56553791 54.421875 155.12109375 C50.97840099 156.84283076 47.01065956 156.33337689 43.21801758 156.37744141 C42.26336609 156.39204407 41.3087146 156.40664673 40.32513428 156.42169189 C31.51606424 156.54770037 22.70608884 156.61643407 13.89630604 156.66953468 C7.97601934 156.70531471 2.05708935 156.75866315 -3.86254883 156.85498047 C-9.58381047 156.94779368 -15.30387084 156.99645451 -21.02584267 157.01392746 C-23.20563571 157.02802368 -25.38538635 157.05766771 -27.56474876 157.10322952 C-44.62413702 157.44244768 -44.62413702 157.44244768 -49.42858887 154.19351196 C-51.27288494 151.8797894 -52.44255589 149.84082228 -53.578125 147.12109375 C-54.32268497 145.80660884 -55.07385897 144.4958128 -55.8359375 143.19140625 C-56.4747505 141.88419797 -57.0969249 140.56874146 -57.703125 139.24609375 C-58.03513916 138.53211426 -58.36715332 137.81813477 -58.70922852 137.08251953 C-64.62536757 123.79670107 -67.7060184 109.46578229 -67.78125 94.953125 C-67.78695007 94.07822922 -67.79265015 93.20333344 -67.79852295 92.30192566 C-67.80793621 90.45040071 -67.81449225 88.59885929 -67.81835938 86.74731445 C-67.82794027 83.98682034 -67.85894559 81.22711271 -67.890625 78.46679688 C-68.02217878 56.45543592 -66.39430646 33.10357625 -50.7734375 16.1640625 C-37.08848108 3.13212268 -18.01368782 0.84609746 0 0 Z " fill="#4E5080" transform="translate(254.578125,169.87890625)"/>
<path d="M0 0 C0.33 0 0.66 0 1 0 C1 20.46 1 40.92 1 62 C29.38 62 57.76 62 87 62 C87 70.91 87 79.82 87 89 C101.85 89 116.7 89 132 89 C132 80.09 132 71.18 132 62 C160.38 62 188.76 62 218 62 C218 41.54 218 21.08 218 0 C222.59775244 3.83146036 225.48722485 6.61918132 228.5 11.5 C228.88309326 12.11311035 229.26618652 12.7262207 229.66088867 13.35791016 C239.16017007 28.87174181 244.17126368 45.52660852 244.09765625 63.78125 C244.09553383 64.82968079 244.09553383 64.82968079 244.09336853 65.89929199 C244.0878367 68.09957429 244.07529777 70.29974923 244.0625 72.5 C244.05747616 74.00520685 244.05291482 75.51041532 244.04882812 77.015625 C244.03874682 80.6771565 244.01915922 84.33846016 244 88 C251.26 88 258.52 88 266 88 C266 99.22 266 110.44 266 122 C163.04 122 60.08 122 -46 122 C-46 110.78 -46 99.56 -46 88 C-38.74 88 -31.48 88 -24 88 C-24.04640625 85.45410156 -24.0928125 82.90820312 -24.140625 80.28515625 C-24.17202352 77.75628644 -24.19619484 75.22744023 -24.21972656 72.69848633 C-24.23956048 70.97149573 -24.2666364 69.24456961 -24.30175781 67.51782227 C-24.81544195 41.56921931 -17.48154935 19.65608353 0 0 Z " fill="#4E507F" transform="translate(148,390)"/>
<path d="M0 0 C16.149375 -0.350625 32.29875 -0.70125 48.9375 -1.0625 C54.00343506 -1.21726807 59.06937012 -1.37203613 64.28881836 -1.53149414 C70.55969238 -1.60827637 70.55969238 -1.60827637 73.51173401 -1.62254333 C75.53830261 -1.64835516 77.56463842 -1.70754189 79.5894928 -1.79478455 C91.47506738 -2.28049547 100.78459549 -1.46274326 109.8671875 6.859375 C118.36999637 15.83499021 119.08724731 25.29756969 118.92604065 37.22193909 C118.83926677 39.7847416 118.75059547 42.34748047 118.66015625 44.91015625 C118.62838307 47.57653177 118.60338054 50.24212601 118.58726501 52.90855408 C118.53485868 59.16492663 118.39600356 65.41612204 118.22432369 71.6702351 C118.01405463 79.50376439 117.92226274 87.33817252 117.83007812 95.17382812 C117.66549335 109.11989729 117.32490182 123.05470404 117 137 C78.39 137 39.78 137 0 137 C0 91.79 0 46.58 0 0 Z " fill="#3BBDF3" transform="translate(377,162)"/>
<path d="M0 0 C1.57870602 1.50400385 3.14296613 3.02342385 4.6875 4.5625 C5.53441406 5.37460938 5.53441406 5.37460938 6.3984375 6.203125 C17.04090565 17.35237734 21.18421406 33.27120137 21.04150391 48.26904297 C20.58701093 62.60974702 15.53097513 73.50166119 6.28881836 84.23999023 C0.56247869 90.9461342 -1.62718245 96.41766693 -2.72265625 105.14453125 C-3.39327349 107.89361783 -4.08143362 108.86646153 -6.3125 110.5625 C-7.7975 111.0575 -7.7975 111.0575 -9.3125 111.5625 C-9.33828125 112.73167969 -9.3640625 113.90085937 -9.390625 115.10546875 C-9.44692367 116.65368226 -9.50427062 118.2018579 -9.5625 119.75 C-9.57667969 120.51892578 -9.59085937 121.28785156 -9.60546875 122.08007812 C-9.82091349 127.09994068 -10.48482448 129.96532318 -14.3125 133.5625 C-17.78575181 134.7202506 -20.67317448 134.63116652 -24.3125 134.5625 C-24.25449219 135.20316406 -24.19648437 135.84382812 -24.13671875 136.50390625 C-23.84106906 142.17193312 -24.17824862 145.75904351 -27.90625 150.16015625 C-32.05017718 154.29257252 -36.03897044 155.22166162 -41.75 155.62109375 C-46.48063877 155.51292366 -50.3869118 154.36354767 -53.8828125 151.09375 C-57.35270785 147.04884342 -58.44193406 144.65835634 -58.375 139.4375 C-58.36597656 138.52742187 -58.35695312 137.61734375 -58.34765625 136.6796875 C-58.33605469 135.98101562 -58.32445312 135.28234375 -58.3125 134.5625 C-59.55 134.60375 -60.7875 134.645 -62.0625 134.6875 C-65.32676921 134.68173274 -67.59933393 134.54519829 -70.3125 132.5625 C-72.3265956 129.5413566 -72.58086596 128.75589983 -72.7265625 125.33203125 C-72.76523438 124.52958984 -72.80390625 123.72714844 -72.84375 122.90039062 C-72.8746875 122.06701172 -72.905625 121.23363281 -72.9375 120.375 C-72.97617188 119.53001953 -73.01484375 118.68503906 -73.0546875 117.81445312 C-73.14886279 115.73082476 -73.23176675 113.64669247 -73.3125 111.5625 C-74.488125 111.19125 -74.488125 111.19125 -75.6875 110.8125 C-78.3125 109.5625 -78.3125 109.5625 -79.58203125 107.75390625 C-80.39485638 105.31543087 -80.71046125 103.05320532 -81 100.5 C-82.37466513 92.39272295 -86.89289792 86.09890016 -92.375 80.125 C-103.12203272 68.13903322 -104.16759621 53.31311696 -103.51220703 38.06640625 C-103.07107172 32.53549696 -101.48393891 27.63156395 -99.3125 22.5625 C-98.76916016 21.24765625 -98.76916016 21.24765625 -98.21484375 19.90625 C-90.89204111 3.82090724 -77.51648456 -6.16085776 -61.3125 -12.4375 C-40.50147726 -19.60373044 -16.37646485 -14.37218109 0 0 Z " fill="#FDD834" transform="translate(121.3125,160.4375)"/>
<path d="M0 0 C1.08087891 0.0009668 1.08087891 0.0009668 2.18359375 0.00195312 C6.71222442 0.03880455 11.03170151 0.45258249 15.5 1.1875 C15.79390625 2.65123047 15.79390625 2.65123047 16.09375 4.14453125 C17.55405006 11.08579007 17.55405006 11.08579007 21.16015625 17.03125 C23.56506843 18.25592807 24.80388856 18.51618574 27.5 18.1875 C31.50704278 16.27636761 34.98880804 13.89189234 38.5 11.1875 C46.66979594 16.13237649 54.80954529 22.77702949 59.5 31.1875 C59.1562928 34.99282973 57.85484101 37.50928166 55.8125 40.6875 C53.67327025 44.13827645 53.67327025 44.13827645 54.1875 48.0625 C54.620625 48.76375 55.05375 49.465 55.5 50.1875 C55.5 51.1775 55.5 52.1675 55.5 53.1875 C56.33144531 53.30867188 57.16289062 53.42984375 58.01953125 53.5546875 C59.10621094 53.72226562 60.19289063 53.88984375 61.3125 54.0625 C62.39144531 54.22492187 63.47039062 54.38734375 64.58203125 54.5546875 C67.5 55.1875 67.5 55.1875 70.5 57.1875 C72.66109828 65.83189312 72.47146762 76.51304249 70.5 85.1875 C67.9171085 87.7703915 66.13079636 87.69832051 62.5625 88.3125 C58.29086425 89.30181666 58.29086425 89.30181666 54.83203125 91.80859375 C53.67154851 94.16271588 53.32285717 95.55692901 53.5 98.1875 C54.82039175 100.97217234 56.33698984 103.32407297 58.1796875 105.79296875 C59.5 108.1875 59.5 108.1875 59.44921875 110.68359375 C56.59614174 118.20961171 48.04160857 125.60697323 41.5 130.1875 C39.54296875 131.05859375 39.54296875 131.05859375 37.5 131.1875 C35.3515625 129.9375 35.3515625 129.9375 33.125 128.1875 C29.52880966 125.56498205 29.52880966 125.56498205 25.125 125.25 C24.25875 125.559375 23.3925 125.86875 22.5 126.1875 C21.015 126.6825 21.015 126.6825 19.5 127.1875 C18.62012394 129.56816801 17.92741106 131.80231901 17.3125 134.25 C17.13525391 134.91322266 16.95800781 135.57644531 16.77539062 136.25976562 C16.33894804 137.89937426 15.91799781 139.54309238 15.5 141.1875 C10.29226436 142.34973397 5.31458176 142.37134485 0 142.375 C-0.93714844 142.38724609 -1.87429687 142.39949219 -2.83984375 142.41210938 C-12.07455404 142.43175769 -12.07455404 142.43175769 -15.5 140.1875 C-16.42578125 138.1640625 -16.42578125 138.1640625 -16.8125 135.8125 C-17.02326172 134.65621094 -17.02326172 134.65621094 -17.23828125 133.4765625 C-17.5 131.1875 -17.5 131.1875 -17.5 127.1875 C-22.00176626 125.59751447 -25.73529493 124.35973906 -30.21484375 126.4609375 C-31.906557 127.58535443 -33.56393771 128.76380926 -35.17578125 130 C-37.5 131.1875 -37.5 131.1875 -39.953125 130.6640625 C-47.16800822 126.48120076 -55.92129566 118.91885184 -59.5 111.1875 C-59.18043049 107.94706513 -57.72860943 105.86472839 -55.875 103.25 C-53.82328483 100.15115572 -53.82328483 100.15115572 -53.625 96.5 C-54.058125 95.3553125 -54.058125 95.3553125 -54.5 94.1875 C-55 91.6875 -55 91.6875 -55.5 89.1875 C-57.294375 89.001875 -57.294375 89.001875 -59.125 88.8125 C-62.78367181 88.34460591 -66.09813336 87.68100243 -69.5 86.1875 C-70.52628246 83.10865261 -70.62906515 80.9748637 -70.6328125 77.75 C-70.63410156 76.69039063 -70.63539063 75.63078125 -70.63671875 74.5390625 C-70.63285156 73.43304688 -70.62898437 72.32703125 -70.625 71.1875 C-70.62886719 70.08148438 -70.63273438 68.97546875 -70.63671875 67.8359375 C-70.63542969 66.77632813 -70.63414062 65.71671875 -70.6328125 64.625 C-70.63168457 63.65433594 -70.63055664 62.68367188 -70.62939453 61.68359375 C-70.5 59.1875 -70.5 59.1875 -69.5 56.1875 C-67.1015625 55.23828125 -67.1015625 55.23828125 -64.125 54.5 C-63.14789063 54.24863281 -62.17078125 53.99726562 -61.1640625 53.73828125 C-58.5 53.1875 -58.5 53.1875 -55.5 53.1875 C-54.33893597 49.83720077 -53.55442378 46.74483585 -53.5 43.1875 C-54.80581752 40.52231408 -56.30982438 38.46458833 -58.21484375 36.1953125 C-59.5 34.1875 -59.5 34.1875 -59.44140625 32.2265625 C-55.83696153 24.41942497 -47.23159945 17.36461363 -40.5 12.1875 C-39.51 11.8575 -38.52 11.5275 -37.5 11.1875 C-35.08203125 12.7265625 -35.08203125 12.7265625 -32.3125 14.8125 C-28.48219571 17.36700001 -28.48219571 17.36700001 -24.10546875 18.4453125 C-21.45303375 17.80557864 -20.33434553 17.23315494 -18.5 15.1875 C-16.92080505 10.92474066 -16.1155997 6.68266034 -15.5 2.1875 C-10.17627334 0.41525941 -5.59108081 -0.09501837 0 0 Z " fill="#FE656F" transform="translate(257.5,-0.1875)"/>
<path d="M0 0 C3.79000529 1.2633351 4.32015268 2.64463742 6.5 5.9375 C19.2736889 23.89977292 39.95457983 35.24644429 61.3828125 39.30859375 C74.27108079 41.42776932 86.36752171 39.78757594 99 37 C100.99920273 36.60015945 102.99908419 36.20367763 105 35.8125 C106.33354685 35.54271996 107.6669801 35.27237185 109 35 C108.39196898 57.58835235 102.59747771 79.54628026 89 98 C85.55652599 99.72173701 81.58878456 99.21228314 77.79614258 99.25634766 C76.84149109 99.27095032 75.8868396 99.28555298 74.90325928 99.30059814 C66.09418924 99.42660662 57.28421384 99.49534032 48.47443104 99.54844093 C42.55414434 99.58422096 36.63521435 99.6375694 30.71557617 99.73388672 C24.99431453 99.82669993 19.27425416 99.87536076 13.55228233 99.89283371 C11.37248929 99.90692993 9.19273865 99.93657396 7.01337624 99.98213577 C-10.04601202 100.32135393 -10.04601202 100.32135393 -14.85046387 97.07241821 C-16.69475994 94.75869565 -17.86443089 92.71972853 -19 90 C-19.74455997 88.68551509 -20.49573397 87.37471905 -21.2578125 86.0703125 C-21.8966255 84.76310422 -22.5187999 83.44764771 -23.125 82.125 C-23.45701416 81.41102051 -23.78902832 80.69704102 -24.13110352 79.96142578 C-28.77373654 69.53550797 -31.55938259 58.30229837 -33 47 C-33.19464844 45.87980469 -33.38929688 44.75960937 -33.58984375 43.60546875 C-33.98604584 39.71022349 -34.00028299 36.80107538 -33 33 C-29.88888681 29.87988214 -26.62092093 27.77885338 -22.88671875 25.48828125 C-12.94761305 19.38721835 -5.6285871 10.06803607 0 0 Z " fill="#FEBEA7" transform="translate(220,227)"/>
<path d="M0 0 C1.08087891 0.0009668 1.08087891 0.0009668 2.18359375 0.00195312 C6.71222442 0.03880455 11.03170151 0.45258249 15.5 1.1875 C15.995 5.6425 15.995 5.6425 16.5 10.1875 C15.46101563 10.6721875 14.42203125 11.156875 13.3515625 11.65625 C-4.91896951 20.35493629 -17.08966577 31.75900713 -24.23974609 51.19873047 C-27.95438537 61.93616834 -31.05439941 72.41669033 -26.2734375 83.31640625 C-25.5 85.1875 -25.5 85.1875 -24.75 88.8125 C-21.18235935 103.66792174 -11.0477703 116.8223198 1.5 125.1875 C6.39375259 128.05646715 11.43040335 130.64594221 16.5 133.1875 C16.005 137.1475 16.005 137.1475 15.5 141.1875 C10.29226436 142.34973397 5.31458176 142.37134485 0 142.375 C-0.93714844 142.38724609 -1.87429687 142.39949219 -2.83984375 142.41210938 C-12.07455404 142.43175769 -12.07455404 142.43175769 -15.5 140.1875 C-16.42578125 138.1640625 -16.42578125 138.1640625 -16.8125 135.8125 C-17.02326172 134.65621094 -17.02326172 134.65621094 -17.23828125 133.4765625 C-17.5 131.1875 -17.5 131.1875 -17.5 127.1875 C-22.00176626 125.59751447 -25.73529493 124.35973906 -30.21484375 126.4609375 C-31.906557 127.58535443 -33.56393771 128.76380926 -35.17578125 130 C-37.5 131.1875 -37.5 131.1875 -39.953125 130.6640625 C-47.16800822 126.48120076 -55.92129566 118.91885184 -59.5 111.1875 C-59.18043049 107.94706513 -57.72860943 105.86472839 -55.875 103.25 C-53.82328483 100.15115572 -53.82328483 100.15115572 -53.625 96.5 C-54.058125 95.3553125 -54.058125 95.3553125 -54.5 94.1875 C-55 91.6875 -55 91.6875 -55.5 89.1875 C-57.294375 89.001875 -57.294375 89.001875 -59.125 88.8125 C-62.78367181 88.34460591 -66.09813336 87.68100243 -69.5 86.1875 C-70.52628246 83.10865261 -70.62906515 80.9748637 -70.6328125 77.75 C-70.63410156 76.69039063 -70.63539063 75.63078125 -70.63671875 74.5390625 C-70.63285156 73.43304688 -70.62898437 72.32703125 -70.625 71.1875 C-70.62886719 70.08148438 -70.63273438 68.97546875 -70.63671875 67.8359375 C-70.63542969 66.77632813 -70.63414062 65.71671875 -70.6328125 64.625 C-70.63168457 63.65433594 -70.63055664 62.68367188 -70.62939453 61.68359375 C-70.5 59.1875 -70.5 59.1875 -69.5 56.1875 C-67.1015625 55.23828125 -67.1015625 55.23828125 -64.125 54.5 C-63.14789063 54.24863281 -62.17078125 53.99726562 -61.1640625 53.73828125 C-58.5 53.1875 -58.5 53.1875 -55.5 53.1875 C-54.33893597 49.83720077 -53.55442378 46.74483585 -53.5 43.1875 C-54.80581752 40.52231408 -56.30982438 38.46458833 -58.21484375 36.1953125 C-59.5 34.1875 -59.5 34.1875 -59.44140625 32.2265625 C-55.83696153 24.41942497 -47.23159945 17.36461363 -40.5 12.1875 C-39.51 11.8575 -38.52 11.5275 -37.5 11.1875 C-35.08203125 12.7265625 -35.08203125 12.7265625 -32.3125 14.8125 C-28.48219571 17.36700001 -28.48219571 17.36700001 -24.10546875 18.4453125 C-21.45303375 17.80557864 -20.33434553 17.23315494 -18.5 15.1875 C-16.92080505 10.92474066 -16.1155997 6.68266034 -15.5 2.1875 C-10.17627334 0.41525941 -5.59108081 -0.09501837 0 0 Z " fill="#FC4654" transform="translate(257.5,-0.1875)"/>
<path d="M0 0 C4.59775244 3.83146036 7.48722485 6.61918132 10.5 11.5 C10.88309326 12.11311035 11.26618652 12.7262207 11.66088867 13.35791016 C26.66771764 37.86643964 26 59.65335842 26 89 C-10.96 89 -47.92 89 -86 89 C-86 80.09 -86 71.18 -86 62 C-57.62 62 -29.24 62 0 62 C0 41.54 0 21.08 0 0 Z " fill="#FD646F" transform="translate(366,390)"/>
<path d="M0 0 C0.33 0 0.66 0 1 0 C1 20.46 1 40.92 1 62 C29.38 62 57.76 62 87 62 C87 70.91 87 79.82 87 89 C50.37 89 13.74 89 -24 89 C-24 52.49853983 -23.56002685 26.49066433 0 0 Z " fill="#FB646F" transform="translate(148,390)"/>
<path d="M0 0 C1.47982716 0.8815472 2.94222051 1.79388451 4.375 2.75 C5.73625 3.5853125 5.73625 3.5853125 7.125 4.4375 C14.21996979 11.72955228 16.75208236 19.36144003 16.65234375 29.32421875 C16.00071554 37.3732038 12.49087767 44.4459645 6.375 49.75 C-0.87703968 54.72585204 -8.70890615 57.77941866 -17.625 56.75 C-25.5391028 55.19821514 -32.20752526 51.05718228 -37.23046875 44.7265625 C-42.51268842 36.64058401 -43.71532661 28.90823119 -42.265625 19.390625 C-40.03309824 10.88288788 -33.45026069 4.02799213 -26 -0.375 C-17.7966307 -3.95279346 -8.05631048 -3.87183877 0 0 Z " fill="#E2EFF9" transform="translate(270.625,44.25)"/>
<path d="M0 0 C5.61 0 11.22 0 17 0 C17 41.91 17 83.82 17 127 C11.39 127 5.78 127 0 127 C0 85.09 0 43.18 0 0 Z " fill="#454674" transform="translate(149,325)"/>
<path d="M0 0 C20.46 0 40.92 0 62 0 C62 18 62 18 58 23 C54.52674819 24.1577506 51.63932552 24.06866652 48 24 C48.05800781 24.64066406 48.11601563 25.28132813 48.17578125 25.94140625 C48.47143094 31.60943312 48.13425138 35.19654351 44.40625 39.59765625 C40.26232282 43.73007252 36.27352956 44.65916162 30.5625 45.05859375 C25.83186123 44.95042366 21.9255882 43.80104767 18.4296875 40.53125 C14.95979215 36.48634342 13.87056594 34.09585634 13.9375 28.875 C13.94652344 27.96492188 13.95554687 27.05484375 13.96484375 26.1171875 C13.97644531 25.41851562 13.98804688 24.71984375 14 24 C12.7625 24.04125 11.525 24.0825 10.25 24.125 C6.98573079 24.11923274 4.71316607 23.98269829 2 22 C0 19 0 19 0 0 Z " fill="#C5DBF1" transform="translate(49,271)"/>
<path d="M0 0 C14.85 0 29.7 0 45 0 C45 14.52 45 29.04 45 44 C30.15 44 15.3 44 0 44 C0 29.48 0 14.96 0 0 Z " fill="#434674" transform="translate(235,435)"/>
<path d="M0 0 C3.5625 0.5625 3.5625 0.5625 6.5 2.6875 C8.99129045 6.1602079 9.14673161 7.37127323 8.5625 11.5625 C6.92786281 13.95457897 5.38548519 15.89713377 3.4375 18 C2.63856323 18.8964624 2.63856323 18.8964624 1.82348633 19.81103516 C0.08802465 21.74568935 -1.67065735 23.65648334 -3.4375 25.5625 C-4.04126465 26.21589355 -4.6450293 26.86928711 -5.26708984 27.54248047 C-8.27060758 30.78532233 -11.28977854 34.01287522 -14.3203125 37.23046875 C-17.17350265 40.26651249 -19.93350997 43.37006002 -22.65625 46.5234375 C-25.11380859 49.33669536 -27.61368921 52.10971327 -30.125 54.875 C-30.5893042 55.39151123 -31.0536084 55.90802246 -31.53198242 56.44018555 C-37.76774622 63.27828659 -37.76774622 63.27828659 -42.375 64.0625 C-48.67065974 63.03463719 -52.68729086 55.93524814 -56.5 51.125 C-57.01626953 50.48240234 -57.53253906 49.83980469 -58.06445312 49.17773438 C-66.17281857 39.00354334 -66.17281857 39.00354334 -67 34.5 C-66.22261449 30.44032011 -64.73166492 28.99731755 -61.4375 26.5625 C-58.5 25.9375 -58.5 25.9375 -55.4375 26.5625 C-49.93603636 30.19112495 -46.31353805 35.2988862 -42.4375 40.5625 C-39.54118126 39.26233484 -37.58555694 37.92739577 -35.44921875 35.5859375 C-34.91151855 35.00183105 -34.37381836 34.41772461 -33.81982422 33.81591797 C-33.26053223 33.19604004 -32.70124023 32.57616211 -32.125 31.9375 C-31.54250488 31.30086426 -30.96000977 30.66422852 -30.35986328 30.00830078 C-26.9405762 26.26018095 -23.57004754 22.47255505 -20.25390625 18.6328125 C-17.790188 15.82470353 -15.27276577 13.06754937 -12.75 10.3125 C-12.28577637 9.80444824 -11.82155273 9.29639648 -11.34326172 8.77294922 C-10.04869113 7.36268367 -8.74334428 5.96233307 -7.4375 4.5625 C-6.73882812 3.79550781 -6.04015625 3.02851563 -5.3203125 2.23828125 C-3.4375 0.5625 -3.4375 0.5625 0 0 Z " fill="#EBF6FE" transform="translate(464.4375,196.4375)"/>
<path d="M0 0 C3.96 0 7.92 0 12 0 C12 45.21 12 90.42 12 137 C8.04 137 4.08 137 0 137 C0 91.79 0 46.58 0 0 Z " fill="#2EB0E8" transform="translate(377,162)"/>
<path d="M0 0 C0.33 0 0.66 0 1 0 C1.04989487 5.7617063 1.08595113 11.52328342 1.10986328 17.28515625 C1.11984485 19.2402567 1.13343487 21.19534252 1.15087891 23.15039062 C1.31377595 41.89313227 1.31377595 41.89313227 -0.51904297 50.97753906 C-1.60867428 57.82506982 -1.48507632 64.82960792 -1.625 71.75 C-1.66328598 73.3333523 -1.70234338 74.91668614 -1.7421875 76.5 C-1.83841907 80.33322409 -1.91888627 84.16630881 -2 88 C-9.26 88 -16.52 88 -24 88 C-24.09298874 82.89853441 -24.17225615 77.80013182 -24.21972656 72.69848633 C-24.23956048 70.97149573 -24.2666364 69.24456961 -24.30175781 67.51782227 C-24.81544195 41.56921931 -17.48154935 19.65608353 0 0 Z " fill="#FF4756" transform="translate(148,390)"/>
<path d="M0 0 C-2.80591136 2.89359609 -5.66935772 5.58743792 -8.75 8.1875 C-24.27872822 21.84811054 -33.0521665 38.96264628 -34.43359375 59.6875 C-34.53438232 61.16162354 -34.53438232 61.16162354 -34.63720703 62.66552734 C-34.75157675 64.59643219 -34.83350852 66.52961132 -34.87841797 68.46337891 C-35.12161328 73.1177501 -35.45864725 76.12188781 -39.01171875 79.3359375 C-43.08663969 82.29536542 -47.52358464 84.70596401 -52 87 C-53.15134586 32.51477116 -53.15134586 32.51477116 -35.1953125 13.04296875 C-25.43719046 3.75048324 -13.2602006 -0.48024871 0 0 Z " fill="#474876" transform="translate(239,173)"/>
<path d="M0 0 C0 0.66 0 1.32 0 2 C-0.77601562 2.13535156 -1.55203125 2.27070313 -2.3515625 2.41015625 C-19.51008245 5.8295749 -32.69527112 14.05718541 -43 28.125 C-52.6690561 42.96970657 -54.28133428 59.53056527 -51.34765625 76.8515625 C-48.50997084 86.08317426 -42.85652864 93.83497011 -36.75 101.1875 C-31.69746424 107.37149164 -29.96797951 113.26753883 -28.52734375 121.01953125 C-28.03485192 123.29648088 -28.03485192 123.29648088 -26 126 C-30.62885021 126.90761769 -33.85025191 127.48984886 -38 125 C-39.85361148 122.00774146 -40.29477869 119.40058789 -40.6875 115.9375 C-42.06216513 107.83022295 -46.58039792 101.53640016 -52.0625 95.5625 C-62.80953272 83.57653322 -63.85509621 68.75061696 -63.19970703 53.50390625 C-62.75857172 47.97299696 -61.17143891 43.06906395 -59 38 C-58.45666016 36.68515625 -58.45666016 36.68515625 -57.90234375 35.34375 C-50.57954111 19.25840724 -37.20398456 9.27664224 -21 3 C-14.30057668 0.69306814 -7.062115 0 0 0 Z " fill="#FBC12D" transform="translate(81,145)"/>
<path d="M0 0 C1.20005082 2.40010163 1.07252981 3.77273368 0.9921875 6.4453125 C0.74737308 18.08955774 1.15339117 28.67517957 4 40 C4.26683594 41.09183594 4.53367188 42.18367188 4.80859375 43.30859375 C7.31256284 52.40078373 11.35749706 60.81882959 16 69 C16.33355845 69.61512231 16.66711691 70.23024462 17.0107832 70.864007 C18.20495591 72.81740581 19.34879112 74.40869073 21 76 C24.07419872 76.72076633 26.11635513 76.95052948 29.18676758 76.88647461 C30.40218231 76.90263824 30.40218231 76.90263824 31.64215088 76.91912842 C34.31054362 76.94645696 36.97613081 76.92466864 39.64453125 76.90234375 C41.4982834 76.91172944 43.35202233 76.9241876 45.20573425 76.93959045 C50.07711374 76.97182571 54.94755214 76.9623707 59.81896973 76.94421387 C64.79282951 76.93305853 69.76644797 76.96135684 74.74023438 76.98632812 C84.49365758 77.02948462 94.2465417 77.02859692 104 77 C104 77.33 104 77.66 104 78 C91.21321486 78.20865762 78.42683553 78.36850961 65.63869381 78.46630955 C59.70033009 78.51325286 53.76313217 78.57690865 47.82543945 78.67895508 C42.09356321 78.77684624 36.3628071 78.83057913 30.63015938 78.85389519 C28.44476244 78.8705073 26.25942591 78.90294903 24.07450676 78.95157051 C6.95339759 79.31736883 6.95339759 79.31736883 2.14508057 76.074646 C0.29992012 73.75973506 -0.86688316 71.72224651 -2 69 C-2.74439579 67.68542211 -3.49554152 66.37460659 -4.2578125 65.0703125 C-4.8966255 63.76310422 -5.5187999 62.44764771 -6.125 61.125 C-6.45701416 60.41102051 -6.78902832 59.69704102 -7.13110352 58.96142578 C-11.77373654 48.53550797 -14.55938259 37.30229837 -16 26 C-16.19464844 24.87980469 -16.38929688 23.75960938 -16.58984375 22.60546875 C-16.98911336 18.68006527 -17.03821173 15.8265518 -16 12 C-12.23967124 7.58226157 -6.95238468 4.87404579 -2 2 C-1.34 1.34 -0.68 0.68 0 0 Z " fill="#F4A98F" transform="translate(203,248)"/>
<path d="M0 0 C2.31 0 4.62 0 7 0 C7.03738281 1.09699219 7.07476562 2.19398438 7.11328125 3.32421875 C7.17896653 4.77867857 7.24541299 6.23310416 7.3125 7.6875 C7.33505859 8.40873047 7.35761719 9.12996094 7.38085938 9.87304688 C7.6053337 14.3421267 8.169519 17.34483565 11 21 C14.04751586 22.52375793 17.2503275 22.21902264 20.59765625 22.28125 C21.34712021 22.29965942 22.09658417 22.31806885 22.86875916 22.33703613 C26.081711 22.41584103 29.2948742 22.48360069 32.50805664 22.55224609 C34.85053256 22.60385395 37.19282152 22.66114063 39.53515625 22.71875 C40.26742935 22.73232544 40.99970245 22.74590088 41.75416565 22.7598877 C46.88717098 22.88717098 46.88717098 22.88717098 48 24 C48.68217051 29.08704297 48.77753233 33.59684139 45.8125 37.9375 C42.13682168 42.27684247 38.81281123 44.04926624 33.1875 44.875 C28.22727987 45.22192016 24.25999762 44.65066519 20 42 C16.89963896 39.10015983 14.08138177 35.98571526 13.90234375 31.6171875 C13.91394531 30.71226562 13.92554688 29.80734375 13.9375 28.875 C13.94652344 27.96492188 13.95554687 27.05484375 13.96484375 26.1171875 C13.97644531 25.41851562 13.98804688 24.71984375 14 24 C12.7625 24.04125 11.525 24.0825 10.25 24.125 C6.98573079 24.11923274 4.71316607 23.98269829 2 22 C-0.10209857 18.84685215 -0.2434761 18.13896919 -0.1953125 14.55078125 C-0.18886719 13.70322266 -0.18242188 12.85566406 -0.17578125 11.98242188 C-0.15902344 11.10134766 -0.14226563 10.22027344 -0.125 9.3125 C-0.11597656 8.41982422 -0.10695312 7.52714844 -0.09765625 6.60742188 C-0.07409748 4.40467686 -0.04120329 2.20247412 0 0 Z " fill="#B0CFED" transform="translate(49,271)"/>
<path d="M0 0 C4.95 0 9.9 0 15 0 C15 14.19 15 28.38 15 43 C10.38 43 5.76 43 1 43 C0.38350405 28.65546037 -0.13053265 14.3585913 0 0 Z " fill="#3A3D6B" transform="translate(235,435)"/>
<path d="M0 0 C-3 2 -3 2 -5.26953125 3.19140625 C-13.36673829 7.55718148 -18.1051206 13.22366879 -21 22 C-22.0208324 32.35415716 -20.6438226 40.74011244 -14 49 C-9.12558851 53.44016547 -4.24769736 55.99181156 2 58 C2 58.33 2 58.66 2 59 C-7.61388896 59.52439394 -14.53543337 57.12612056 -21.98828125 50.9609375 C-28.023758 45.07781259 -31.03300891 38.07223277 -31.3125 29.6875 C-31.05263098 20.07234631 -28.21922164 14.20521117 -21.52734375 7.2421875 C-14.85876338 1.32601264 -8.81816507 -0.71114234 0 0 Z " fill="#D2E0EE" transform="translate(259,42)"/>
</svg>
